<?xml version="1.0" encoding="UTF-8" standalone="no"?>
<!-- Created with Inkscape (http://www.inkscape.org/) -->

<svg
   width="212"
   height="50"
   viewBox="0 0 56.091664 13.229167"
   version="1.1"
   id="svg5"
   xml:space="preserve"
   xmlns="http://www.w3.org/2000/svg"
   xmlns:svg="http://www.w3.org/2000/svg"><defs
     id="defs2" /><g
     id="layer1"><g
       id="layer1-6"
       transform="matrix(2.0833271,0,0,2.0833271,14.2875,0)"
       style="display:inline"><rect
         style="display:inline;fill:#2c2c2c;fill-opacity:1;stroke:#2c2c2c;stroke-width:0.27365;stroke-linecap:round;stroke-linejoin:round;stroke-dasharray:none;stroke-opacity:1"
         id="rect4952-5"
         width="6.0763688"
         height="4.806365"
         x="0.136825"
         y="1.406829"
         rx="1.2152665"
         ry="1.5404927" /><rect
         style="display:inline;fill:#464646;fill-opacity:1;stroke:#2c2c2c;stroke-width:0.27365;stroke-linecap:round;stroke-linejoin:round;stroke-dasharray:none;stroke-opacity:1"
         id="rect4952"
         width="6.0763688"
         height="4.806365"
         x="0.13682513"
         y="0.136825"
         rx="1.2152665"
         ry="1.5404927" /><text
         xml:space="preserve"
         style="font-size:3.55601px;font-family:'UbuntuMono NF';-inkscape-font-specification:'UbuntuMono NF';display:none;fill:none;fill-opacity:1;stroke:#f2f2f2;stroke-width:0.254001;stroke-linecap:round;stroke-linejoin:round;stroke-dasharray:none;stroke-opacity:1"
         x="1.9837462"
         y="3.8361731"
         id="text4580"><tspan
           id="tspan4578"
           style="font-style:normal;font-variant:normal;font-weight:normal;font-stretch:normal;font-size:3.55601px;font-family:sans-serif;-inkscape-font-specification:sans-serif;fill:#f2f2f2;fill-opacity:1;stroke:#f2f2f2;stroke-width:0.254001;stroke-linejoin:round;stroke-dasharray:none;stroke-opacity:1"
           x="0"
           y="0">A</tspan></text><g
         aria-label="A"
         id="text5423"
         style="font-size:3.55601px;font-family:'UbuntuMono NF';-inkscape-font-specification:'UbuntuMono NF';display:inline;fill:none;stroke:#f2f2f2;stroke-width:0.254001;stroke-linecap:round;stroke-linejoin:round"><path
           d="m 3.6692949,3.0574069 0.2667008,0.7787662 h 0.369825 L 3.3954821,1.2438418 H 2.9687609 L 2.0441983,3.8361731 h 0.352045 L 2.6700561,3.0574069 Z M 3.5768387,2.7800381 H 2.7518443 L 3.1785655,1.5994428 Z"
           style="font-family:sans-serif;-inkscape-font-specification:sans-serif;fill:#f2f2f2"
           id="path5426" /></g></g><g
       id="layer1-7"
       transform="matrix(2.0833271,0,0,2.0833271,42.8625,0)"
       style="display:inline"><rect
         style="display:inline;fill:#2c2c2c;fill-opacity:1;stroke:#2c2c2c;stroke-width:0.27365;stroke-linecap:round;stroke-linejoin:round;stroke-dasharray:none;stroke-opacity:1"
         id="rect4952-5-2"
         width="6.0763688"
         height="4.806365"
         x="0.136825"
         y="1.406829"
         rx="1.2152665"
         ry="1.5404927" /><rect
         style="display:inline;fill:#464646;fill-opacity:1;stroke:#2c2c2c;stroke-width:0.27365;stroke-linecap:round;stroke-linejoin:round;stroke-dasharray:none;stroke-opacity:1"
         id="rect4952-1"
         width="6.0763688"
         height="4.806365"
         x="0.13682513"
         y="0.136825"
         rx="1.2152665"
         ry="1.5404927" /><text
         xml:space="preserve"
         style="font-size:3.55601px;font-family:'UbuntuMono NF';-inkscape-font-specification:'UbuntuMono NF';display:none;fill:none;fill-opacity:1;stroke:#f2f2f2;stroke-width:0.254001;stroke-linecap:round;stroke-linejoin:round;stroke-dasharray:none;stroke-opacity:1"
         x="1.8308377"
         y="3.8361731"
         id="text4580-0"><tspan
           id="tspan4578-9"
           style="font-style:normal;font-variant:normal;font-weight:normal;font-stretch:normal;font-size:3.55601px;font-family:sans-serif;-inkscape-font-specification:sans-serif;fill:#f2f2f2;fill-opacity:1;stroke:#f2f2f2;stroke-width:0.254001;stroke-linejoin:round;stroke-dasharray:none;stroke-opacity:1"
           x="0"
           y="0">D</tspan></text><g
         aria-label="D"
         id="text5583"
         style="font-size:3.55601px;font-family:'UbuntuMono NF';-inkscape-font-specification:'UbuntuMono NF';display:inline;fill:none;stroke:#f2f2f2;stroke-width:0.254001;stroke-linecap:round;stroke-linejoin:round"><path
           d="m 2.1473226,3.8361731 h 0.9992388 c 0.6543059,0 1.056135,-0.4907294 1.056135,-1.2979437 0,-0.8036583 -0.3982731,-1.2943876 -1.056135,-1.2943876 H 2.1473226 Z M 2.4780315,3.5445802 V 1.5354346 h 0.6116338 c 0.5120654,0 0.7823222,0.344933 0.7823222,1.0063508 0,0.6578619 -0.2702568,1.0027948 -0.7823222,1.0027948 z"
           style="font-family:sans-serif;-inkscape-font-specification:sans-serif;fill:#f2f2f2"
           id="path5585" /></g></g><g
       id="layer1-8"
       transform="matrix(2.0833271,0,0,2.0833271,28.575,0)"
       style="display:inline"><rect
         style="display:inline;fill:#2c2c2c;fill-opacity:1;stroke:#2c2c2c;stroke-width:0.27365;stroke-linecap:round;stroke-linejoin:round;stroke-dasharray:none;stroke-opacity:1"
         id="rect4952-5-0"
         width="6.0763688"
         height="4.806365"
         x="0.136825"
         y="1.406829"
         rx="1.2152665"
         ry="1.5404927" /><rect
         style="display:inline;fill:#464646;fill-opacity:1;stroke:#2c2c2c;stroke-width:0.27365;stroke-linecap:round;stroke-linejoin:round;stroke-dasharray:none;stroke-opacity:1"
         id="rect4952-4"
         width="6.0763688"
         height="4.806365"
         x="0.13682513"
         y="0.136825"
         rx="1.2152665"
         ry="1.5404927" /><text
         xml:space="preserve"
         style="font-size:3.55601px;font-family:'UbuntuMono NF';-inkscape-font-specification:'UbuntuMono NF';display:none;fill:none;fill-opacity:1;stroke:#f2f2f2;stroke-width:0.254001;stroke-linecap:round;stroke-linejoin:round;stroke-dasharray:none;stroke-opacity:1"
         x="1.9855242"
         y="3.8361731"
         id="text4580-3"><tspan
           id="tspan4578-2"
           style="font-style:normal;font-variant:normal;font-weight:normal;font-stretch:normal;font-size:3.55601px;font-family:sans-serif;-inkscape-font-specification:sans-serif;fill:#f2f2f2;fill-opacity:1;stroke:#f2f2f2;stroke-width:0.254001;stroke-linejoin:round;stroke-dasharray:none;stroke-opacity:1"
           x="0"
           y="0">S</tspan></text><g
         aria-label="S"
         id="text5550"
         style="font-size:3.55601px;font-family:'UbuntuMono NF';-inkscape-font-specification:'UbuntuMono NF';display:inline;fill:none;stroke:#f2f2f2;stroke-width:0.254001;stroke-linecap:round;stroke-linejoin:round"><path
           d="m 4.1049061,2.0048279 c 0,-0.1778005 -0.010668,-0.2275846 -0.067564,-0.348489 C 3.8951016,1.3576341 3.5928407,1.2011696 3.1554515,1.2011696 c -0.5689616,0 -0.9210066,0.2915929 -0.9210066,0.7609862 0,0.3164849 0.1671324,0.5156214 0.5085094,0.6045217 L 3.3865921,2.737366 c 0.330709,0.085344 0.4765054,0.2169166 0.4765054,0.4196091 0,0.1386844 -0.074676,0.2809248 -0.1849126,0.3591571 -0.1031242,0.074676 -0.2667007,0.1102363 -0.4765053,0.1102363 -0.2844808,0 -0.4729493,-0.067564 -0.5974097,-0.2169166 C 2.5082576,3.2956595 2.4655855,3.1711992 2.4691415,3.0111787 H 2.1562127 c 0.00356,0.2382527 0.049784,0.3947171 0.1529084,0.5369575 0.1778005,0.2453647 0.4765053,0.3698251 0.8712224,0.3698251 0.3093729,0 0.5618496,-0.07112 0.7289821,-0.1991366 0.1742445,-0.1386844 0.2844808,-0.369825 0.2844808,-0.5938536 0,-0.3200409 -0.1991366,-0.5547376 -0.5511816,-0.6507499 L 2.991875,2.2999767 C 2.6789461,2.2146325 2.5651538,2.1150642 2.5651538,1.9159277 c 0,-0.2631448 0.2311407,-0.4373893 0.5796296,-0.4373893 0.4124972,0 0.6436379,0.1849125 0.6471939,0.5262895 z"
           style="font-family:sans-serif;-inkscape-font-specification:sans-serif;fill:#f2f2f2"
           id="path5552" /></g></g><g
       id="layer1-5"
       transform="scale(2.0833271)"
       style="display:inline"><rect
         style="display:inline;fill:#2c2c2c;fill-opacity:1;stroke:#2c2c2c;stroke-width:0.27365;stroke-linecap:round;stroke-linejoin:round;stroke-dasharray:none;stroke-opacity:1"
         id="rect4952-5-1"
         width="6.0763688"
         height="4.806365"
         x="0.136825"
         y="1.406829"
         rx="1.2152665"
         ry="1.5404927" /><rect
         style="display:inline;fill:#464646;fill-opacity:1;stroke:#2c2c2c;stroke-width:0.27365;stroke-linecap:round;stroke-linejoin:round;stroke-dasharray:none;stroke-opacity:1"
         id="rect4952-8"
         width="6.0763688"
         height="4.806365"
         x="0.13682513"
         y="0.136825"
         rx="1.2152665"
         ry="1.5404927" /><text
         xml:space="preserve"
         style="font-size:3.55601px;font-family:'UbuntuMono NF';-inkscape-font-specification:'UbuntuMono NF';display:none;fill:none;fill-opacity:1;stroke:#f2f2f2;stroke-width:0.254001;stroke-linecap:round;stroke-linejoin:round;stroke-dasharray:none;stroke-opacity:1"
         x="1.4841267"
         y="3.8361731"
         id="text4580-2"><tspan
           id="tspan4578-23"
           style="font-style:normal;font-variant:normal;font-weight:normal;font-stretch:normal;font-size:3.55601px;font-family:sans-serif;-inkscape-font-specification:sans-serif;fill:#f2f2f2;fill-opacity:1;stroke:#f2f2f2;stroke-width:0.254001;stroke-linejoin:round;stroke-dasharray:none;stroke-opacity:1"
           x="0"
           y="0">W</tspan></text><g
         aria-label="W"
         id="text5517"
         style="font-size:3.55601px;font-family:'UbuntuMono NF';-inkscape-font-specification:'UbuntuMono NF';display:inline;fill:none;stroke:#f2f2f2;stroke-width:0.254001;stroke-linecap:round;stroke-linejoin:round"><path
           d="M 4.1297981,3.8361731 4.78766,1.2438418 H 4.4178349 L 3.9413296,3.3489997 3.3510319,1.2438418 H 2.9954309 L 2.4193573,3.3489997 1.9321839,1.2438418 h -0.369825 l 0.6649739,2.5923313 h 0.362713 l 0.5796296,-2.13005 0.5974097,2.13005 z"
           style="font-family:sans-serif;-inkscape-font-specification:sans-serif;fill:#f2f2f2"
           id="path5519" /></g></g></g></svg>
