<?xml version="1.0" encoding="UTF-8" standalone="no"?>
<!-- Created with Inkscape (http://www.inkscape.org/) -->

<svg
   width="50"
   height="50"
   viewBox="0 0 13.229166 13.229166"
   version="1.1"
   id="svg5"
   xmlns="http://www.w3.org/2000/svg"
   xmlns:svg="http://www.w3.org/2000/svg">
  <defs
     id="defs2" />
  <g
     id="layer1"
     transform="scale(2.083327)"
     style="display:inline">
    <rect
       style="display:inline;fill:#2c2c2c;fill-opacity:1;stroke:#2c2c2c;stroke-width:0.27365;stroke-linecap:round;stroke-linejoin:round;stroke-dasharray:none;stroke-opacity:1"
       id="rect4952-5"
       width="6.0763688"
       height="4.806365"
       x="0.136825"
       y="1.406829"
       rx="1.2152665"
       ry="1.5404927" />
    <rect
       style="display:inline;fill:#464646;fill-opacity:1;stroke:#2c2c2c;stroke-width:0.27365;stroke-linecap:round;stroke-linejoin:round;stroke-dasharray:none;stroke-opacity:1"
       id="rect4952"
       width="6.0763688"
       height="4.806365"
       x="0.13682513"
       y="0.136825"
       rx="1.2152665"
       ry="1.5404927" />
    <text
       xml:space="preserve"
       style="font-size:3.55601px;font-family:'UbuntuMono NF';-inkscape-font-specification:'UbuntuMono NF';display:none;fill:none;fill-opacity:1;stroke:#f2f2f2;stroke-width:0.254001;stroke-linecap:round;stroke-linejoin:round;stroke-dasharray:none;stroke-opacity:1"
       x="1.9855242"
       y="3.8361731"
       id="text4580"><tspan
         id="tspan4578"
         style="font-style:normal;font-variant:normal;font-weight:normal;font-stretch:normal;font-size:3.55601px;font-family:sans-serif;-inkscape-font-specification:sans-serif;fill:#f2f2f2;fill-opacity:1;stroke:#f2f2f2;stroke-width:0.254001;stroke-linejoin:round;stroke-dasharray:none;stroke-opacity:1"
         x="0"
         y="0">S</tspan></text>
    <g
       aria-label="S"
       id="text5550"
       style="font-size:3.55601px;font-family:'UbuntuMono NF';-inkscape-font-specification:'UbuntuMono NF';display:inline;fill:none;stroke:#f2f2f2;stroke-width:0.254001;stroke-linecap:round;stroke-linejoin:round">
      <path
         d="m 4.1049061,2.0048279 c 0,-0.1778005 -0.010668,-0.2275846 -0.067564,-0.348489 C 3.8951016,1.3576341 3.5928407,1.2011696 3.1554515,1.2011696 c -0.5689616,0 -0.9210066,0.2915929 -0.9210066,0.7609862 0,0.3164849 0.1671324,0.5156214 0.5085094,0.6045217 L 3.3865921,2.737366 c 0.330709,0.085344 0.4765054,0.2169166 0.4765054,0.4196091 0,0.1386844 -0.074676,0.2809248 -0.1849126,0.3591571 -0.1031242,0.074676 -0.2667007,0.1102363 -0.4765053,0.1102363 -0.2844808,0 -0.4729493,-0.067564 -0.5974097,-0.2169166 C 2.5082576,3.2956595 2.4655855,3.1711992 2.4691415,3.0111787 H 2.1562127 c 0.00356,0.2382527 0.049784,0.3947171 0.1529084,0.5369575 0.1778005,0.2453647 0.4765053,0.3698251 0.8712224,0.3698251 0.3093729,0 0.5618496,-0.07112 0.7289821,-0.1991366 0.1742445,-0.1386844 0.2844808,-0.369825 0.2844808,-0.5938536 0,-0.3200409 -0.1991366,-0.5547376 -0.5511816,-0.6507499 L 2.991875,2.2999767 C 2.6789461,2.2146325 2.5651538,2.1150642 2.5651538,1.9159277 c 0,-0.2631448 0.2311407,-0.4373893 0.5796296,-0.4373893 0.4124972,0 0.6436379,0.1849125 0.6471939,0.5262895 z"
         style="font-family:sans-serif;-inkscape-font-specification:sans-serif;fill:#f2f2f2"
         id="path5552" />
    </g>
  </g>
</svg>
