<?xml version="1.0" encoding="UTF-8" standalone="no"?>
<!-- Created with Inkscape (http://www.inkscape.org/) -->

<svg
   width="1036"
   height="611"
   viewBox="0 0 274.10833 161.66042"
   version="1.1"
   id="svg5"
   xmlns="http://www.w3.org/2000/svg"
   xmlns:svg="http://www.w3.org/2000/svg">
  <defs
     id="defs2" />
  <g
     id="layer1"
     transform="matrix(0.65805418,0,0,0.65805418,-10.939475,-16.890833)">
    <g
       id="g7807"
       transform="translate(-3.0782633e-8,7.9006263)">
      <g
         id="g7789"
         transform="translate(-4.0208776)">
        <g
           aria-label="Disaster"
           id="text186-8"
           style="font-size:105.833px;line-height:1.25;word-spacing:0px;stroke-width:2.64583">
          <path
             d="m 35.295393,28.522077 q 1.375829,-0.740831 2.963324,-0.740831 2.222493,0 4.127487,1.269996 0.740831,0.529165 1.375829,1.05833 0.634998,0.529165 1.164163,0.952497 0.634998,0.423332 1.693328,0.846664 1.05833,0.423332 1.799161,0.846664 3.17499,1.693328 9.313304,5.29165 l 9.419137,5.397483 q 8.149141,4.656652 14.287455,8.043308 l 6.773312,3.598322 q 6.032481,3.069157 10.159968,5.503316 4.233319,2.434159 7.831639,5.503316 2.64583,2.434159 4.12749,4.762485 1.48166,2.328326 1.48166,5.079984 l -0.10583,1.164163 q -1.05833,6.138314 -6.45581,11.747463 -4.12749,4.444986 -9.73664,7.619976 -5.503316,3.17499 -12.69996,6.032477 -12.276628,4.65666 -28.151578,8.36081 -1.693328,0.42333 -2.434159,0.52917 l -4.339153,1.05833 -6.138314,1.16416 q -2.857491,0.52916 -6.984978,1.05833 -0.423332,0.10583 -1.587495,0.42333 -1.05833,0.21167 -1.904994,0.21167 -0.423332,0 -1.269996,-0.21167 -2.222493,-0.42333 -2.222493,-2.64582 0,-1.48167 1.05833,-3.38666 0.952497,-2.01083 2.010827,-3.17499 3.17499,-3.70416 9.313304,-5.07998 1.269996,-0.3175 1.481662,-0.635 0.317499,-0.423334 0.423332,-1.799163 0,-1.904994 0.211666,-5.714982 0.846664,-10.054135 1.05833,-15.345785 0.423332,-5.079984 0.529165,-7.619976 0.105833,-0.529165 0.211666,-1.375829 0.105833,-0.952497 0.105833,-2.222493 0,-1.375829 -0.423332,-2.539992 -2.222493,-5.397483 -7.090811,-13.334958 0,0.105833 0.105833,0.317499 0.211666,0.105833 0.317499,0.529165 -1.375829,-2.434159 -4.550819,-7.090811 -0.423332,-0.529165 -0.952497,-1.375829 -0.529165,-0.846664 -0.952497,-1.375829 -0.317499,-0.317499 -0.846664,-0.846664 -0.529165,-0.634998 -0.846664,-1.05833 -0.529165,-1.05833 -0.529165,-1.904994 0,-2.328326 2.328326,-4.868318 2.222493,-2.539992 4.550819,-4.021654 z m 24.659089,68.156452 q 9.630803,-2.11666 20.849101,-5.609149 6.032481,-1.904994 9.842469,-3.492489 3.809988,-1.587495 7.196644,-4.127487 -3.069157,-3.704155 -6.984978,-6.34998 Q 87.04773,74.347766 79.956919,70.114446 L 72.019444,65.351961 59.213651,57.414486 q 3.915821,11.112465 3.915821,20.849101 0,7.090811 -2.010827,14.075789 z"
             style="font-family:'Sedgwick Ave Display';-inkscape-font-specification:'Sedgwick Ave Display';text-align:center;text-anchor:middle;stroke:#000000;stroke-linecap:round;stroke-linejoin:round"
             id="path7839" />
          <path
             d="m 117.84522,56.673655 q 0.10583,-2.11666 3.06916,-3.704155 2.96332,-1.693328 5.92665,-1.693328 1.69332,0 2.75165,0.740831 1.05833,0.634998 0.9525,2.11666 l -3.06916,57.467317 q -0.10583,2.22249 -3.06915,3.91582 -2.96333,1.5875 -5.92665,1.5875 -3.91582,0 -3.80999,-3.06916 z m -0.21167,-13.969956 q -0.21166,1.481662 0.74084,2.222493 1.05833,0.740831 2.75165,0.740831 2.85749,0 5.82082,-1.587495 2.96332,-1.587495 3.28082,-3.809988 0.84667,-5.29165 1.16416,-7.937475 0.42334,-2.645825 -3.28082,-2.645825 -2.85749,0 -5.92665,1.587495 -3.06915,1.587495 -3.28082,3.598322 z"
             style="font-family:'Sedgwick Ave Display';-inkscape-font-specification:'Sedgwick Ave Display';text-align:center;text-anchor:middle;stroke:#000000;stroke-linecap:round;stroke-linejoin:round"
             id="path7841" />
          <path
             d="m 171.60834,67.362788 q -2.01083,-1.693328 -6.98498,-4.444986 -4.86832,-2.857491 -7.51414,-2.857491 -2.11666,0 -2.11666,2.11666 0,0.740831 0.52916,2.539992 0.74083,2.434159 3.28083,4.656652 2.53999,2.11666 6.66747,4.974151 3.38666,2.328326 4.33916,3.17499 4.65665,4.021654 7.40831,6.773312 2.75166,2.645825 4.97415,6.34998 2.32832,3.598322 2.32832,7.40831 0,2.539992 -1.26999,5.291652 -2.43416,4.97415 -8.04331,7.61997 -5.50332,2.64583 -11.74746,2.64583 -2.11666,0 -4.23332,-0.3175 -14.39329,-2.43416 -26.56409,-19.155773 -0.63499,-0.952497 -0.63499,-1.904994 0,-2.328326 3.06915,-4.23332 3.17499,-2.010827 6.24415,-2.010827 2.32833,0 3.38666,1.375829 6.56164,8.889972 12.91162,13.017455 5.82082,3.80999 9.84247,3.80999 3.28082,0 3.28082,-2.85749 0,-2.010826 -1.58749,-4.97415 -1.5875,-2.857491 -4.12749,-5.397483 -2.53999,-2.539992 -6.45581,-5.820815 l -2.85749,-2.434159 q -0.42333,-0.423332 -3.91582,-3.069157 -2.85749,-2.11666 -4.86832,-3.915821 -2.01083,-1.799161 -3.38666,-3.915821 -1.79916,-2.857491 -1.79916,-5.926648 0,-4.762485 4.02166,-8.678306 4.12748,-4.021654 9.41913,-5.503316 3.38666,-0.952497 6.45582,-0.952497 5.71498,0 11.00663,2.645825 5.39748,2.645825 10.9008,7.302477 0.95249,0.740831 0.95249,1.799161 0,2.010827 -3.28082,3.915821 -3.28082,1.904994 -6.45581,1.904994 -2.11666,0 -3.17499,-0.952497 z"
             style="font-family:'Sedgwick Ave Display';-inkscape-font-specification:'Sedgwick Ave Display';text-align:center;text-anchor:middle;stroke:#000000;stroke-linecap:round;stroke-linejoin:round"
             id="path7843" />
          <path
             d="m 208.64979,81.438577 -0.84666,2.11666 7.40831,6.244147 -0.74083,-3.069157 Q 213.72977,83.766903 211.50728,74.1361 Z m 12.06496,-30.903236 q 1.48166,9.207471 3.70416,18.732441 2.32832,9.419137 5.60915,21.695765 3.06915,11.641633 4.02165,15.451613 0.10583,0.3175 0.10583,0.9525 0,2.53999 -2.85749,4.44499 -2.85749,1.79916 -5.92665,1.79916 -2.53999,0 -3.91582,-1.37583 -3.06915,-3.28082 -6.45581,-6.24415 -3.38666,-2.96332 -8.88997,-7.302474 l -3.49249,-2.857491 q -4.44499,9.524965 -6.87915,14.075785 -0.74083,1.5875 -3.91582,2.96333 -3.06915,1.26999 -5.71498,1.26999 -2.96332,0 -2.96332,-1.90499 0,-0.52917 0.3175,-1.27 3.17499,-7.83164 7.51414,-17.991606 l 2.22249,-5.397483 q -2.64582,-2.645825 -2.64582,-2.645825 -0.74083,-0.740831 -0.74083,-1.693328 0,-1.799161 2.32832,-3.386656 2.32833,-1.693328 5.18582,-2.222493 5.07998,-12.170795 9.52497,-24.764922 0.42333,-1.481662 2.64582,-2.539992 2.32833,-1.164163 4.86832,-1.481662 1.79916,-0.529165 3.06916,-0.529165 2.96332,0 3.28082,2.222493 z"
             style="font-family:'Sedgwick Ave Display';-inkscape-font-specification:'Sedgwick Ave Display';text-align:center;text-anchor:middle;stroke:#000000;stroke-linecap:round;stroke-linejoin:round"
             id="path7845" />
          <path
             d="m 274.37206,67.362788 q -2.01083,-1.693328 -6.98498,-4.444986 -4.86832,-2.857491 -7.51415,-2.857491 -2.11666,0 -2.11666,2.11666 0,0.740831 0.52917,2.539992 0.74083,2.434159 3.28082,4.656652 2.53999,2.11666 6.66748,4.974151 3.38666,2.328326 4.33915,3.17499 4.65666,4.021654 7.40831,6.773312 2.75166,2.645825 4.97416,6.34998 2.32832,3.598322 2.32832,7.40831 0,2.539992 -1.26999,5.291652 -2.43416,4.97415 -8.04331,7.61997 -5.50332,2.64583 -11.74747,2.64583 -2.11666,0 -4.23332,-0.3175 -14.39328,-2.43416 -26.56408,-19.155773 -0.635,-0.952497 -0.635,-1.904994 0,-2.328326 3.06916,-4.23332 3.17499,-2.010827 6.24415,-2.010827 2.32832,0 3.38665,1.375829 6.56165,8.889972 12.91163,13.017455 5.82081,3.80999 9.84247,3.80999 3.28082,0 3.28082,-2.85749 0,-2.010826 -1.58749,-4.97415 -1.5875,-2.857491 -4.12749,-5.397483 -2.53999,-2.539992 -6.45581,-5.820815 l -2.85749,-2.434159 q -0.42334,-0.423332 -3.91583,-3.069157 -2.85749,-2.11666 -4.86831,-3.915821 -2.01083,-1.799161 -3.38666,-3.915821 -1.79916,-2.857491 -1.79916,-5.926648 0,-4.762485 4.02165,-8.678306 4.12749,-4.021654 9.41914,-5.503316 3.38666,-0.952497 6.45581,-0.952497 5.71499,0 11.00664,2.645825 5.39748,2.645825 10.90079,7.302477 0.9525,0.740831 0.9525,1.799161 0,2.010827 -3.28082,3.915821 -3.28082,1.904994 -6.45581,1.904994 -2.11666,0 -3.17499,-0.952497 z"
             style="font-family:'Sedgwick Ave Display';-inkscape-font-specification:'Sedgwick Ave Display';text-align:center;text-anchor:middle;stroke:#000000;stroke-linecap:round;stroke-linejoin:round"
             id="path7847" />
          <path
             d="m 318.92754,50.535341 q 2.2225,-0.211666 3.38666,0.529165 1.26999,0.740831 2.64582,2.857491 0.84667,1.375829 0.84667,2.328326 0,2.328326 -2.96333,2.751658 l -3.70415,0.423332 q -5.18582,0.740831 -5.50332,0.740831 -1.79916,16.93328 -2.85749,29.421574 -1.05833,12.488292 -1.37583,24.659092 -0.10583,1.48166 -1.26999,2.22249 -1.05833,0.74083 -2.85749,0.74083 -3.17499,0 -6.34998,-1.69333 -3.06916,-1.79916 -2.96333,-4.02165 0.3175,-11.2183 1.27,-22.859929 0.95249,-11.747463 2.53999,-27.199081 l -6.66748,0.846664 q -1.48166,0.105833 -2.32833,-0.105833 -0.74083,-0.317499 -1.48166,-1.269996 -0.74083,-0.952497 -1.48166,-2.11666 -0.84666,-1.164163 -0.84666,-2.328326 0,-0.952497 0.74083,-1.693328 0.74083,-0.740831 2.22249,-0.952497 2.32833,-0.317499 5.39748,-0.740831 l 5.39749,-0.740831 1.90499,-18.309109 q 0.3175,-2.963324 4.33915,-2.963324 3.17499,0 6.13832,1.799161 3.06915,1.693328 2.85749,3.915821 l -1.37583,14.181622 q 2.96332,-0.211666 4.33915,-0.423332 z"
             style="font-family:'Sedgwick Ave Display';-inkscape-font-specification:'Sedgwick Ave Display';text-align:center;text-anchor:middle;stroke:#000000;stroke-linecap:round;stroke-linejoin:round"
             id="path7849" />
          <path
             d="m 369.51574,102.39351 q 1.58749,0.52917 1.58749,1.90499 0,1.69333 -2.01083,3.70416 -2.22249,2.22249 -5.71498,2.22249 -1.69333,0 -2.85749,-0.42333 -5.60915,-1.79916 -10.15997,-1.79916 -7.93747,0 -16.19245,5.07998 -1.37583,0.9525 -3.38665,1.5875 -1.905,0.52916 -3.59832,0.52916 -1.5875,0 -2.54,-0.52916 -0.95249,-0.635 -0.95249,-1.905 0,-0.74083 0.21166,-1.26999 3.06916,-8.57247 4.86832,-15.451619 1.90499,-6.879145 2.53999,-13.969956 0.9525,-9.52497 0.9525,-13.969956 0,-11.747463 -4.55082,-17.99161 -0.52916,-0.634998 -0.52916,-1.693328 0,-2.11666 2.96332,-3.915821 2.96332,-1.904994 5.82081,-1.904994 1.905,0 2.75166,0.846664 1.37583,0.529165 1.79916,1.693328 2.64583,6.984978 7.30248,11.853296 4.65665,4.762485 11.00663,4.762485 1.16417,0 3.49249,-0.423332 1.48166,-0.211666 1.905,-0.211666 1.79916,0 2.64582,0.846664 0.9525,0.740831 0.9525,2.11666 0,1.481662 -1.27,2.963324 -1.16416,1.481662 -3.17499,2.11666 -4.33915,1.481662 -8.6783,1.481662 -5.18582,0 -9.94831,-2.11666 -0.21166,5.926648 -0.52916,8.889972 l -0.74083,6.667479 q 4.12748,-0.740831 8.25497,-1.269996 l 1.48166,-0.105833 q 4.23332,0 4.23332,2.857491 0,1.904994 -2.11666,3.386656 -2.11666,1.481662 -4.33915,1.904994 -3.28082,0.634998 -8.9958,1.375829 -1.16417,5.185817 -2.54,9.736637 6.98498,-2.539993 14.18163,-2.539993 7.93747,0 15.87495,2.963323 z"
             style="font-family:'Sedgwick Ave Display';-inkscape-font-specification:'Sedgwick Ave Display';text-align:center;text-anchor:middle;stroke:#000000;stroke-linecap:round;stroke-linejoin:round"
             id="path7851" />
          <path
             d="m 395.33892,75.935261 q 4.12749,-3.280823 6.66748,-5.820815 2.64583,-2.539992 4.02166,-5.079984 -5.71499,-1.481662 -16.93329,-4.868318 l -0.52916,21.484099 q 3.17499,-2.645825 3.70415,-3.17499 z m 17.03912,14.81662 q 0.84666,-1.693328 3.59832,-2.857491 2.75166,-1.269996 5.29165,-1.269996 3.49249,0 3.49249,2.222493 0,0.634998 -0.3175,1.481662 -4.33916,10.159971 -6.56165,19.684941 -0.52916,2.11666 -3.06916,3.91582 -1.05833,1.37583 -3.28082,2.32832 -2.11666,0.9525 -4.23332,0.9525 -1.79916,0 -2.96332,-0.74083 -1.05833,-0.74083 -1.16417,-2.32833 -0.42333,-6.87914 -4.55082,-12.59412 -4.02165,-5.714985 -10.37163,-7.408313 l -0.52916,15.345783 q -0.10584,2.01083 -3.38666,3.70416 -3.17499,1.69332 -6.13831,1.69332 -1.5875,0 -2.54,-0.52916 -0.95249,-0.635 -0.95249,-1.90499 l 0.3175,-14.604958 q -1.37583,-0.952497 -1.37583,-2.222493 0,-1.481662 1.58749,-2.857491 0.52917,-19.261606 1.27,-38.417379 0.10583,-2.222493 2.96332,-3.809988 2.96333,-1.693328 5.92665,-1.693328 2.22249,0 3.17499,1.05833 11.5358,3.17499 23.91826,6.984978 1.90499,-0.423332 2.64582,-0.423332 1.79916,0 2.75166,0.846664 1.05833,0.740831 1.05833,2.328326 0,4.339153 -2.85749,8.043308 -2.85749,3.598322 -7.93747,8.043308 l -2.11666,1.904994 q -5.07999,4.974151 -9.84247,8.784139 8.6783,2.434159 13.96995,9.630803 0.42333,-1.05833 2.2225,-5.29165 z"
             style="font-family:'Sedgwick Ave Display';-inkscape-font-specification:'Sedgwick Ave Display';text-align:center;text-anchor:middle;stroke:#000000;stroke-linecap:round;stroke-linejoin:round"
             id="path7853" />
        </g>
        <g
           aria-label="Disaster"
           id="text186-8-9"
           style="font-size:105.833px;line-height:1.25;word-spacing:0px;stroke-width:2.64583">
          <path
             d="m 40.587064,23.230412 q 1.375829,-0.740831 2.963324,-0.740831 2.222493,0 4.127487,1.269996 0.740831,0.529165 1.375829,1.05833 0.634998,0.529165 1.164163,0.952497 0.634998,0.423332 1.693328,0.846664 1.05833,0.423332 1.799161,0.846664 3.17499,1.693328 9.313304,5.29165 l 9.419137,5.397483 q 8.149141,4.656653 14.287455,8.043309 l 6.773312,3.598322 q 6.032481,3.069157 10.159966,5.503316 4.23332,2.434159 7.83164,5.503316 2.64583,2.434159 4.12749,4.762485 1.48166,2.328326 1.48166,5.079984 l -0.10583,1.164163 q -1.05833,6.138314 -6.45581,11.747463 -4.12749,4.444986 -9.73664,7.619976 -5.503315,3.17499 -12.699959,6.032481 -12.276628,4.65665 -28.151578,8.36081 -1.693328,0.42333 -2.434159,0.52916 l -4.339153,1.05833 -6.138314,1.16416 q -2.857491,0.52917 -6.984978,1.05833 -0.423332,0.10584 -1.587495,0.42334 -1.05833,0.21166 -1.904994,0.21166 -0.423332,0 -1.269996,-0.21166 -2.222493,-0.42334 -2.222493,-2.64583 0,-1.48166 1.05833,-3.38665 0.952497,-2.01083 2.010827,-3.17499 3.17499,-3.704159 9.313304,-5.079988 1.269996,-0.317499 1.481662,-0.634998 0.317499,-0.423332 0.423332,-1.799161 0,-1.904994 0.211666,-5.714982 0.846664,-10.054135 1.05833,-15.345785 0.423332,-5.079984 0.529165,-7.619976 0.105833,-0.529165 0.211666,-1.375829 0.105833,-0.952497 0.105833,-2.222493 0,-1.375829 -0.423332,-2.539992 -2.222493,-5.397483 -7.090811,-13.334958 0,0.105833 0.105833,0.317499 0.211666,0.105833 0.317499,0.529165 -1.375829,-2.434159 -4.550819,-7.090812 -0.423332,-0.529165 -0.952497,-1.375829 -0.529165,-0.846664 -0.952497,-1.375829 -0.317499,-0.317499 -0.846664,-0.846664 -0.529165,-0.634998 -0.846664,-1.05833 -0.529165,-1.05833 -0.529165,-1.904994 0,-2.328326 2.328326,-4.868318 2.222493,-2.539992 4.550819,-4.021654 z m 24.659089,68.156453 q 9.630803,-2.11666 20.849101,-5.609149 6.032481,-1.904994 9.842469,-3.492489 3.809988,-1.587495 7.196647,-4.127487 -3.06916,-3.704155 -6.984981,-6.34998 Q 92.339401,69.056102 85.24859,64.822782 L 77.311115,60.060297 64.505322,52.122822 q 3.915821,11.112465 3.915821,20.849101 0,7.090811 -2.010827,14.075789 z"
             style="font-family:'Sedgwick Ave Display';-inkscape-font-specification:'Sedgwick Ave Display';text-align:center;text-anchor:middle;fill:#2252bc;stroke:#000000;stroke-linecap:round;stroke-linejoin:round"
             id="path7856" />
          <path
             d="m 123.13689,51.381991 q 0.10583,-2.11666 3.06916,-3.704155 2.96332,-1.693328 5.92665,-1.693328 1.69332,0 2.75165,0.740831 1.05833,0.634998 0.9525,2.11666 l -3.06916,57.467321 q -0.10583,2.22249 -3.06915,3.91582 -2.96333,1.58749 -5.92665,1.58749 -3.91582,0 -3.80999,-3.06915 z m -0.21166,-13.969957 q -0.21167,1.481662 0.74083,2.222493 1.05833,0.740831 2.75165,0.740831 2.8575,0 5.82082,-1.587495 2.96332,-1.587495 3.28082,-3.809988 0.84667,-5.29165 1.16417,-7.937475 0.42333,-2.645825 -3.28083,-2.645825 -2.85749,0 -5.92665,1.587495 -3.06915,1.587495 -3.28082,3.598322 z"
             style="font-family:'Sedgwick Ave Display';-inkscape-font-specification:'Sedgwick Ave Display';text-align:center;text-anchor:middle;fill:#2252bc;stroke:#000000;stroke-linecap:round;stroke-linejoin:round"
             id="path7858" />
          <path
             d="m 176.90001,62.071124 q -2.01083,-1.693328 -6.98498,-4.444986 -4.86832,-2.857491 -7.51414,-2.857491 -2.11666,0 -2.11666,2.11666 0,0.740831 0.52916,2.539992 0.74083,2.434159 3.28083,4.656652 2.53999,2.11666 6.66748,4.974151 3.38665,2.328326 4.33915,3.17499 4.65665,4.021654 7.40831,6.773312 2.75166,2.645825 4.97415,6.34998 2.32833,3.598322 2.32833,7.40831 0,2.539992 -1.27,5.29165 -2.43416,4.974146 -8.04331,7.619976 -5.50331,2.64582 -11.74746,2.64582 -2.11666,0 -4.23332,-0.31749 -14.39329,-2.43416 -26.56408,-19.155777 -0.635,-0.952497 -0.635,-1.904994 0,-2.328326 3.06915,-4.23332 3.17499,-2.010827 6.24415,-2.010827 2.32833,0 3.38666,1.375829 6.56164,8.889972 12.91162,13.017459 5.82082,3.809988 9.84247,3.809988 3.28083,0 3.28083,-2.857491 0,-2.010827 -1.5875,-4.974151 -1.58749,-2.857491 -4.12749,-5.397483 -2.53999,-2.539992 -6.45581,-5.820815 l -2.85749,-2.434159 q -0.42333,-0.423332 -3.91582,-3.069157 -2.85749,-2.11666 -4.86832,-3.915821 -2.01083,-1.799161 -3.38666,-3.915821 -1.79916,-2.857491 -1.79916,-5.926648 0,-4.762485 4.02166,-8.678306 4.12748,-4.021654 9.41913,-5.503316 3.38666,-0.952497 6.45582,-0.952497 5.71498,0 11.00663,2.645825 5.39748,2.645825 10.9008,7.302477 0.9525,0.740831 0.9525,1.799161 0,2.010827 -3.28083,3.915821 -3.28082,1.904994 -6.45581,1.904994 -2.11666,0 -3.17499,-0.952497 z"
             style="font-family:'Sedgwick Ave Display';-inkscape-font-specification:'Sedgwick Ave Display';text-align:center;text-anchor:middle;fill:#2252bc;stroke:#000000;stroke-linecap:round;stroke-linejoin:round"
             id="path7860" />
          <path
             d="m 213.94146,76.146913 -0.84666,2.11666 7.40831,6.244147 -0.74083,-3.069157 q -0.74083,-2.963324 -2.96333,-12.594127 z m 12.06496,-30.903236 q 1.48167,9.207471 3.70416,18.732441 2.32833,9.419137 5.60915,21.695765 3.06916,11.64163 4.02165,15.451617 0.10584,0.3175 0.10584,0.9525 0,2.53999 -2.8575,4.44498 -2.85749,1.79916 -5.92664,1.79916 -2.54,0 -3.91582,-1.37582 -3.06916,-3.28083 -6.45582,-6.24415 -3.38665,-2.963325 -8.88997,-7.302478 l -3.49249,-2.857491 q -4.44498,9.524969 -6.87914,14.075789 -0.74083,1.58749 -3.91582,2.96332 -3.06916,1.27 -5.71499,1.27 -2.96332,0 -2.96332,-1.90499 0,-0.52917 0.3175,-1.27 3.17499,-7.831642 7.51414,-17.99161 l 2.22249,-5.397483 q -2.64582,-2.645825 -2.64582,-2.645825 -0.74083,-0.740831 -0.74083,-1.693328 0,-1.799161 2.32832,-3.386656 2.32833,-1.693328 5.18582,-2.222493 5.07999,-12.170795 9.52497,-24.764922 0.42333,-1.481662 2.64583,-2.539992 2.32832,-1.164163 4.86831,-1.481662 1.79917,-0.529165 3.06916,-0.529165 2.96333,0 3.28082,2.222493 z"
             style="font-family:'Sedgwick Ave Display';-inkscape-font-specification:'Sedgwick Ave Display';text-align:center;text-anchor:middle;fill:#2252bc;stroke:#000000;stroke-linecap:round;stroke-linejoin:round"
             id="path7862" />
          <path
             d="m 279.66373,62.071124 q -2.01083,-1.693328 -6.98498,-4.444986 -4.86832,-2.857491 -7.51414,-2.857491 -2.11666,0 -2.11666,2.11666 0,0.740831 0.52916,2.539992 0.74083,2.434159 3.28082,4.656652 2.54,2.11666 6.66748,4.974151 3.38666,2.328326 4.33916,3.17499 4.65665,4.021654 7.40831,6.773312 2.75165,2.645825 4.97415,6.34998 2.32832,3.598322 2.32832,7.40831 0,2.539992 -1.26999,5.29165 -2.43416,4.974146 -8.04331,7.619976 -5.50332,2.64582 -11.74746,2.64582 -2.11666,0 -4.23332,-0.31749 -14.39329,-2.43416 -26.56409,-19.155777 -0.63499,-0.952497 -0.63499,-1.904994 0,-2.328326 3.06915,-4.23332 3.17499,-2.010827 6.24415,-2.010827 2.32833,0 3.38666,1.375829 6.56164,8.889972 12.91162,13.017459 5.82082,3.809988 9.84247,3.809988 3.28082,0 3.28082,-2.857491 0,-2.010827 -1.58749,-4.974151 -1.5875,-2.857491 -4.12749,-5.397483 -2.53999,-2.539992 -6.45581,-5.820815 l -2.85749,-2.434159 q -0.42333,-0.423332 -3.91582,-3.069157 -2.85749,-2.11666 -4.86832,-3.915821 -2.01083,-1.799161 -3.38666,-3.915821 -1.79916,-2.857491 -1.79916,-5.926648 0,-4.762485 4.02166,-8.678306 4.12748,-4.021654 9.41913,-5.503316 3.38666,-0.952497 6.45582,-0.952497 5.71498,0 11.00663,2.645825 5.39748,2.645825 10.9008,7.302477 0.95249,0.740831 0.95249,1.799161 0,2.010827 -3.28082,3.915821 -3.28082,1.904994 -6.45581,1.904994 -2.11666,0 -3.17499,-0.952497 z"
             style="font-family:'Sedgwick Ave Display';-inkscape-font-specification:'Sedgwick Ave Display';text-align:center;text-anchor:middle;fill:#2252bc;stroke:#000000;stroke-linecap:round;stroke-linejoin:round"
             id="path7864" />
          <path
             d="m 324.21921,45.243677 q 2.2225,-0.211666 3.38666,0.529165 1.27,0.740831 2.64582,2.857491 0.84667,1.375829 0.84667,2.328326 0,2.328326 -2.96333,2.751658 l -3.70415,0.423332 q -5.18582,0.740831 -5.50332,0.740831 -1.79916,16.93328 -2.85749,29.421574 -1.05833,12.488294 -1.37583,24.659086 -0.10583,1.48166 -1.26999,2.2225 -1.05833,0.74083 -2.85749,0.74083 -3.17499,0 -6.34998,-1.69333 -3.06916,-1.79916 -2.96333,-4.02166 0.3175,-11.218293 1.27,-22.859923 0.9525,-11.747463 2.53999,-27.199081 l -6.66748,0.846664 q -1.48166,0.105833 -2.32832,-0.105833 -0.74084,-0.317499 -1.48167,-1.269996 -0.74083,-0.952497 -1.48166,-2.11666 -0.84666,-1.164163 -0.84666,-2.328326 0,-0.952497 0.74083,-1.693328 0.74083,-0.740831 2.22249,-0.952497 2.32833,-0.317499 5.39748,-0.740831 l 5.39749,-0.740831 1.90499,-18.30911 q 0.3175,-2.963324 4.33915,-2.963324 3.17499,0 6.13832,1.799161 3.06916,1.693328 2.85749,3.915821 l -1.37583,14.181623 q 2.96332,-0.211666 4.33915,-0.423332 z"
             style="font-family:'Sedgwick Ave Display';-inkscape-font-specification:'Sedgwick Ave Display';text-align:center;text-anchor:middle;fill:#2252bc;stroke:#000000;stroke-linecap:round;stroke-linejoin:round"
             id="path7866" />
          <path
             d="m 374.80741,97.101847 q 1.58749,0.529165 1.58749,1.904994 0,1.693329 -2.01082,3.704159 -2.2225,2.22249 -5.71499,2.22249 -1.69332,0 -2.85749,-0.42333 -5.60915,-1.79916 -10.15997,-1.79916 -7.93747,0 -16.19244,5.07998 -1.37583,0.9525 -3.38666,1.58749 -1.90499,0.52917 -3.59832,0.52917 -1.5875,0 -2.53999,-0.52917 -0.9525,-0.63499 -0.9525,-1.90499 0,-0.74083 0.21166,-1.27 3.06916,-8.572468 4.86832,-15.451613 1.905,-6.879145 2.53999,-13.969956 0.9525,-9.52497 0.9525,-13.969956 0,-11.747463 -4.55082,-17.99161 -0.52916,-0.634998 -0.52916,-1.693328 0,-2.116661 2.96332,-3.915822 2.96333,-1.904994 5.82082,-1.904994 1.90499,0 2.75165,0.846664 1.37583,0.529165 1.79917,1.693328 2.64582,6.984979 7.30247,11.853297 4.65665,4.762485 11.00663,4.762485 1.16417,0 3.49249,-0.423332 1.48167,-0.211666 1.905,-0.211666 1.79916,0 2.64582,0.846664 0.9525,0.740831 0.9525,2.11666 0,1.481662 -1.27,2.963324 -1.16416,1.481662 -3.17499,2.11666 -4.33915,1.481662 -8.6783,1.481662 -5.18582,0 -9.9483,-2.11666 -0.21167,5.926648 -0.52917,8.889972 l -0.74083,6.667479 q 4.12749,-0.740831 8.25497,-1.269996 l 1.48167,-0.105833 q 4.23332,0 4.23332,2.857491 0,1.904994 -2.11666,3.386656 -2.11666,1.481662 -4.33916,1.904994 -3.28082,0.634998 -8.9958,1.375829 -1.16417,5.185817 -2.53999,9.736636 6.98497,-2.539992 14.18162,-2.539992 7.93747,0 15.87495,2.963324 z"
             style="font-family:'Sedgwick Ave Display';-inkscape-font-specification:'Sedgwick Ave Display';text-align:center;text-anchor:middle;fill:#2252bc;stroke:#000000;stroke-linecap:round;stroke-linejoin:round"
             id="path7868" />
          <path
             d="m 400.63059,70.643597 q 4.12749,-3.280823 6.66748,-5.820815 2.64583,-2.539992 4.02166,-5.079984 -5.71499,-1.481662 -16.93328,-4.868318 l -0.52917,21.484099 q 3.17499,-2.645825 3.70416,-3.17499 z m 17.03912,14.81662 q 0.84666,-1.693328 3.59832,-2.857491 2.75166,-1.269996 5.29165,-1.269996 3.49249,0 3.49249,2.222493 0,0.634998 -0.3175,1.481662 -4.33915,10.159968 -6.56165,19.684935 -0.52916,2.11666 -3.06915,3.91582 -1.05833,1.37583 -3.28083,2.32833 -2.11666,0.9525 -4.23332,0.9525 -1.79916,0 -2.96332,-0.74083 -1.05833,-0.74084 -1.16416,-2.32833 -0.42334,-6.87915 -4.55082,-12.594127 -4.02166,-5.714982 -10.37164,-7.40831 l -0.52916,15.345787 q -0.10584,2.01082 -3.38666,3.70415 -3.17499,1.69333 -6.13831,1.69333 -1.5875,0 -2.53999,-0.52916 -0.9525,-0.635 -0.9525,-1.905 l 0.3175,-14.604952 q -1.37583,-0.952497 -1.37583,-2.222493 0,-1.481662 1.58749,-2.857491 0.52917,-19.261606 1.27,-38.417379 0.10583,-2.222493 2.96332,-3.809988 2.96333,-1.693328 5.92665,-1.693328 2.22249,0 3.17499,1.05833 11.5358,3.17499 23.91826,6.984978 1.90499,-0.423332 2.64582,-0.423332 1.79917,0 2.75166,0.846664 1.05833,0.740831 1.05833,2.328326 0,4.339153 -2.85749,8.043308 -2.85749,3.598322 -7.93747,8.043308 l -2.11666,1.904994 q -5.07999,4.974151 -9.84247,8.784139 8.6783,2.434159 13.96995,9.630803 0.42334,-1.05833 2.2225,-5.29165 z"
             style="font-family:'Sedgwick Ave Display';-inkscape-font-specification:'Sedgwick Ave Display';text-align:center;text-anchor:middle;fill:#2252bc;stroke:#000000;stroke-linecap:round;stroke-linejoin:round"
             id="path7870" />
        </g>
      </g>
      <g
         id="g7795"
         transform="translate(-2.6458906,-25.929177)">
        <g
           aria-label="Way"
           id="text186-4"
           style="font-size:105.833px;line-height:1.25;word-spacing:0px;stroke:#000000;stroke-width:2.64583">
          <path
             d="m 207.32748,158.59123 q 1.48166,0.635 1.48166,4.02165 0,2.11666 -0.52916,4.97415 -0.52917,2.85749 -0.635,3.70416 -0.74083,6.45581 -2.11666,14.60495 -1.48166,9.20747 -2.43416,14.28746 -0.9525,4.97415 -2.64583,10.15997 -2.01082,6.13831 -5.39748,11.21829 -3.38666,5.07999 -8.14914,6.13832 -1.05833,0.21166 -1.48166,0.21166 -3.06916,0 -4.65665,-2.75165 -1.5875,-2.75166 -2.01083,-5.82082 -0.42333,-3.06916 -0.74083,-7.72581 -2.01083,6.13832 -4.02166,10.37164 -2.01082,4.12748 -5.39748,7.19664 -2.85749,2.53999 -4.97415,2.53999 -3.59832,0 -4.55082,-7.51414 -0.84666,-6.66748 -1.90499,-20.00244 -1.27,-15.55745 -2.32833,-22.96576 -0.21167,-1.58749 -1.05833,-5.18582 -0.635,-2.43416 -1.16416,-5.07998 -0.42333,-2.64583 -0.42333,-4.76249 0,-2.01082 0.52916,-3.91582 0.84666,-2.75165 2.96332,-5.07998 2.2225,-2.43416 4.23332,-2.43416 2.32833,0 3.17499,3.28082 1.48167,5.39749 2.8575,14.71079 0.21166,1.27 0.52916,3.70416 0.42333,2.43415 0.74083,4.12748 2.11666,11.11247 3.17499,22.22493 l 0.84667,-4.23332 q 0.84666,-4.76248 1.58749,-7.72581 0.84666,-2.96332 2.43416,-5.60915 1.58749,-2.64582 3.59832,-4.76248 2.01083,-2.22249 4.12749,-2.22249 2.11666,0 3.28082,2.43416 1.27,2.32832 1.69333,4.76248 0.42333,2.32833 0.84666,6.24415 0.21167,2.11666 0.42334,6.34998 0.42333,7.83164 1.48166,12.48829 1.90499,-7.61997 3.06915,-20.74327 1.16417,-10.15996 1.27,-10.9008 0.74083,-5.18581 1.27,-7.83164 0.63499,-2.75166 1.90499,-5.39748 1.27,-2.43416 3.49249,-4.86832 2.22249,-2.53999 4.33915,-2.53999 0.635,0 1.27,0.3175 z"
             style="font-family:'Sedgwick Ave Display';-inkscape-font-specification:'Sedgwick Ave Display'"
             id="path7873" />
          <path
             d="m 234.84411,201.55943 -0.84666,2.11666 7.40831,6.24414 -0.74083,-3.06915 q -0.74083,-2.96333 -2.96333,-12.59413 z m 12.06497,-30.90324 q 1.48166,9.20747 3.70415,18.73244 2.32833,9.41914 5.60915,21.69577 3.06916,11.64163 4.02165,15.45161 0.10584,0.3175 0.10584,0.9525 0,2.53999 -2.85749,4.44499 -2.8575,1.79916 -5.92665,1.79916 -2.53999,0 -3.91582,-1.37583 -3.06916,-3.28082 -6.45582,-6.24415 -3.38665,-2.96332 -8.88997,-7.30247 l -3.49249,-2.8575 q -4.44498,9.52497 -6.87914,14.07579 -0.74083,1.5875 -3.91582,2.96333 -3.06916,1.26999 -5.71499,1.26999 -2.96332,0 -2.96332,-1.90499 0,-0.52917 0.3175,-1.27 3.17499,-7.83164 7.51414,-17.99161 l 2.2225,-5.39748 q -2.64583,-2.64582 -2.64583,-2.64582 -0.74083,-0.74084 -0.74083,-1.69333 0,-1.79916 2.32833,-3.38666 2.32832,-1.69333 5.18581,-2.22249 5.07999,-12.1708 9.52497,-24.76492 0.42333,-1.48167 2.64583,-2.54 2.32832,-1.16416 4.86832,-1.48166 1.79916,-0.52916 3.06915,-0.52916 2.96333,0 3.28083,2.22249 z"
             style="font-family:'Sedgwick Ave Display';-inkscape-font-specification:'Sedgwick Ave Display'"
             id="path7875" />
          <path
             d="m 280.3524,173.09035 q -0.21167,-2.22249 2.75166,-3.91582 3.06916,-1.79916 6.03248,-1.79916 3.28082,0 3.59832,2.22249 2.32833,16.93328 3.59832,29.10408 1.27,12.17079 1.27,24.12992 0,16.08662 -2.53999,28.46908 -2.01083,9.84247 -5.82082,17.67411 -3.80999,7.83164 -10.47746,12.17079 -5.50332,3.49249 -11.11247,3.49249 -5.18582,0 -10.15997,-2.75166 -4.97415,-2.64582 -9.3133,-7.30247 -0.84667,-1.05833 -0.84667,-1.79916 0,-2.11666 3.06916,-4.02166 2.96333,-1.79916 6.03248,-1.79916 2.11666,0 3.28083,1.16416 0.52916,0.52917 2.53999,2.64583 2.01082,2.11666 4.12748,3.59832 2.2225,1.48166 4.02166,1.48166 0.9525,0 1.37583,-0.21166 2.01082,-0.74083 3.49249,-3.49249 1.58749,-2.75166 2.53999,-5.07999 0.9525,-2.32832 1.16416,-2.85749 2.53999,-6.34998 3.70416,-13.44079 1.16416,-6.98498 1.58749,-15.66328 0.21167,-6.77331 0.21167,-10.2658 -2.75166,4.97415 -6.45582,7.83164 -3.70415,2.75166 -8.9958,2.75166 -7.51414,0 -9.84247,-6.66748 -2.22249,-6.77331 -2.32833,-16.50995 l -0.10583,-4.23332 q 0,-16.50995 3.38666,-31.00907 0.42333,-2.01083 3.59832,-3.59832 3.17499,-1.5875 6.03248,-1.5875 1.48166,0 2.32833,0.635 0.84666,0.635 0.63499,1.79916 -2.43415,12.27663 -3.06915,26.56409 -0.21167,4.44498 -0.21167,6.87914 0,4.02165 0.52917,8.99581 0.63499,4.44498 1.48166,6.34998 l 0.84666,1.69332 q 0.74083,-1.37583 2.01083,-4.12748 2.64582,-6.77332 4.23332,-16.29829 l 0.9525,-5.18581 q 2.01082,-9.41914 2.01082,-14.92246 0,-2.75165 -0.21166,-4.12748 z"
             style="font-family:'Sedgwick Ave Display';-inkscape-font-specification:'Sedgwick Ave Display'"
             id="path7877" />
        </g>
        <g
           aria-label="Way"
           id="text186-4-4"
           style="font-size:105.833px;line-height:1.25;word-spacing:0px;stroke:#000000;stroke-width:2.64583">
          <path
             d="m 212.61926,153.29957 q 1.48166,0.635 1.48166,4.02166 0,2.11666 -0.52917,4.97415 -0.52916,2.85749 -0.63499,3.70415 -0.74083,6.45581 -2.11666,14.60496 -1.48167,9.20747 -2.43416,14.28745 -0.9525,4.97415 -2.64583,10.15997 -2.01082,6.13831 -5.39748,11.2183 -3.38666,5.07998 -8.14914,6.13831 -1.05833,0.21167 -1.48166,0.21167 -3.06916,0 -4.65666,-2.75166 -1.58749,-2.75166 -2.01082,-5.82082 -0.42333,-3.06915 -0.74083,-7.72581 -2.01083,6.13832 -4.02166,10.37164 -2.01082,4.12749 -5.39748,7.19664 -2.85749,2.53999 -4.97415,2.53999 -3.59832,0 -4.55082,-7.51414 -0.84666,-6.66748 -1.90499,-20.00244 -1.27,-15.55745 -2.32833,-22.96576 -0.21167,-1.58749 -1.05833,-5.18581 -0.635,-2.43416 -1.16416,-5.07999 -0.42334,-2.64582 -0.42334,-4.76248 0,-2.01083 0.52917,-3.91582 0.84666,-2.75166 2.96332,-5.07999 2.2225,-2.43416 4.23332,-2.43416 2.32833,0 3.17499,3.28083 1.48167,5.39748 2.85749,14.71078 0.21167,1.27 0.52917,3.70416 0.42333,2.43416 0.74083,4.12749 2.11666,11.11246 3.17499,22.22493 l 0.84666,-4.23332 q 0.84667,-4.76249 1.5875,-7.72581 0.84666,-2.96333 2.43416,-5.60915 1.58749,-2.64583 3.59832,-4.76249 2.01083,-2.22249 4.12749,-2.22249 2.11666,0 3.28082,2.43416 1.27,2.32832 1.69333,4.76248 0.42333,2.32833 0.84666,6.24415 0.21167,2.11666 0.42333,6.34998 0.42334,7.83164 1.48167,12.48829 1.90499,-7.61997 3.06915,-20.74326 1.16417,-10.15997 1.27,-10.9008 0.74083,-5.18582 1.27,-7.83164 0.63499,-2.75166 1.90499,-5.39749 1.27,-2.43416 3.49249,-4.86832 2.22249,-2.53999 4.33915,-2.53999 0.635,0 1.27,0.3175 z"
             style="font-family:'Sedgwick Ave Display';-inkscape-font-specification:'Sedgwick Ave Display';fill:#f23554"
             id="path7880" />
          <path
             d="m 240.13589,196.26777 -0.84666,2.11666 7.40831,6.24415 -0.74083,-3.06916 q -0.74083,-2.96332 -2.96333,-12.59413 z m 12.06496,-30.90324 q 1.48167,9.20747 3.70416,18.73244 2.32833,9.41914 5.60915,21.69577 3.06916,11.64163 4.02165,15.45162 0.10584,0.3175 0.10584,0.95249 0,2.54 -2.8575,4.44499 -2.85749,1.79916 -5.92664,1.79916 -2.54,0 -3.91582,-1.37583 -3.06916,-3.28082 -6.45582,-6.24414 -3.38665,-2.96333 -8.88997,-7.30248 l -3.49249,-2.85749 q -4.44498,9.52497 -6.87914,14.07579 -0.74083,1.58749 -3.91582,2.96332 -3.06916,1.27 -5.71499,1.27 -2.96332,0 -2.96332,-1.905 0,-0.52916 0.3175,-1.26999 3.17499,-7.83165 7.51414,-17.99161 l 2.22249,-5.39749 q -2.64582,-2.64582 -2.64582,-2.64582 -0.74083,-0.74083 -0.74083,-1.69333 0,-1.79916 2.32832,-3.38666 2.32833,-1.69332 5.18582,-2.22249 5.07999,-12.17079 9.52497,-24.76492 0.42333,-1.48166 2.64583,-2.53999 2.32832,-1.16417 4.86831,-1.48166 1.79917,-0.52917 3.06916,-0.52917 2.96333,0 3.28082,2.22249 z"
             style="font-family:'Sedgwick Ave Display';-inkscape-font-specification:'Sedgwick Ave Display';fill:#f23554"
             id="path7882" />
          <path
             d="m 285.64418,167.79869 q -0.21167,-2.22249 2.75166,-3.91582 3.06915,-1.79916 6.03248,-1.79916 3.28082,0 3.59832,2.22249 2.32833,16.93328 3.59832,29.10408 1.27,12.17079 1.27,24.12992 0,16.08662 -2.53999,28.46908 -2.01083,9.84247 -5.82082,17.67411 -3.80999,7.83164 -10.47747,12.1708 -5.50331,3.49248 -11.11246,3.49248 -5.18582,0 -10.15997,-2.75165 -4.97415,-2.64583 -9.3133,-7.30248 -0.84667,-1.05833 -0.84667,-1.79916 0,-2.11666 3.06916,-4.02166 2.96332,-1.79916 6.03248,-1.79916 2.11666,0 3.28082,1.16417 0.52917,0.52916 2.54,2.64582 2.01082,2.11666 4.12748,3.59832 2.2225,1.48167 4.02166,1.48167 0.95249,0 1.37583,-0.21167 2.01082,-0.74083 3.49248,-3.49249 1.5875,-2.75166 2.54,-5.07998 0.95249,-2.32833 1.16416,-2.85749 2.53999,-6.34998 3.70415,-13.4408 1.16417,-6.98497 1.5875,-15.66328 0.21167,-6.77331 0.21167,-10.2658 -2.75166,4.97415 -6.45582,7.83164 -3.70415,2.75166 -8.9958,2.75166 -7.51415,0 -9.84247,-6.66748 -2.22249,-6.77331 -2.32833,-16.50995 l -0.10583,-4.23332 q 0,-16.50995 3.38666,-31.00907 0.42333,-2.01082 3.59832,-3.59832 3.17499,-1.58749 6.03248,-1.58749 1.48166,0 2.32832,0.63499 0.84667,0.635 0.635,1.79917 -2.43416,12.27662 -3.06915,26.56408 -0.21167,4.44498 -0.21167,6.87914 0,4.02166 0.52916,8.99581 0.635,4.44498 1.48167,6.34998 l 0.84666,1.69333 q 0.74083,-1.37583 2.01083,-4.12749 2.64582,-6.77331 4.23332,-16.29828 l 0.95249,-5.18582 q 2.01083,-9.41914 2.01083,-14.92245 0,-2.75166 -0.21166,-4.12749 z"
             style="font-family:'Sedgwick Ave Display';-inkscape-font-specification:'Sedgwick Ave Display';fill:#f23554"
             id="path7884" />
        </g>
      </g>
    </g>
  </g>
</svg>
