<?xml version="1.0" encoding="UTF-8" standalone="no"?>
<!-- Created with Inkscape (http://www.inkscape.org/) -->

<svg
   width="400"
   height="400"
   viewBox="0 0 105.83333 105.83333"
   version="1.1"
   id="svg5"
   xmlns="http://www.w3.org/2000/svg"
   xmlns:svg="http://www.w3.org/2000/svg">
  <defs
     id="defs2" />
  <circle
     style="fill:#f2f2f2;fill-opacity:0.515714;stroke:none;stroke-width:1.34234;stroke-linecap:square"
     id="path234"
     cx="52.916664"
     cy="52.916664"
     r="52.916664" />
  <path
     d="m 70.109483,47.467434 q -0.580654,-0.87098 -2.032291,-2.32262 l -0.435489,-0.29033 q -0.870982,-0.72582 -2.75811,-2.17745 -2.322618,-1.88713 -3.483926,-2.75811 -3.338762,-3.33876 -4.06458,-8.12916 -0.725819,-4.935563 1.596798,-9.290471 -3.774252,0.87098 -7.693671,4.064579 -5.806544,4.790402 -7.838834,12.338902 -2.032291,7.40335 0.580655,14.66153 0.290325,0.58065 0.290325,0.87098 0,1.16131 -1.016144,1.5968 -1.016145,0.43549 -1.887127,-0.43549 -0.290327,-0.14516 -0.435491,-0.43549 -2.612946,-3.33876 -3.048435,-7.54851 -0.435491,-4.20974 1.306471,-7.984 -3.62909,3.04844 -5.661379,7.984 -2.032291,4.7904 -1.741965,9.72596 0.290328,2.90328 0.870983,4.50008 0.580653,2.46778 2.177453,5.22589 2.322618,3.91941 6.387201,6.53236 4.064579,2.61294 8.564651,3.1936 5.080726,0.58065 9.871125,-0.58066 4.935563,-1.16131 8.419489,-4.35491 4.354908,-3.77425 5.516217,-9.1453 1.30647,-5.51622 -0.87098,-10.88727 L 72.4321,51.241684 q -0.580653,-1.45163 -2.322617,-3.77425 z m -9.580798,18.87127 q -1.5968,1.45163 -3.338762,1.88712 -2.322619,0.87099 -4.935565,0 -2.032289,-0.72581 -3.774251,-2.46778 2.46778,-0.58065 4.06458,-2.32262 1.741964,-1.74196 2.177453,-3.77425 0.435493,-1.74196 -0.290325,-4.93556 l -0.435493,-2.03229 q -0.580653,-3.33877 0.435493,-6.09687 1.016144,2.17745 1.887126,3.1936 0.870982,1.01614 2.612944,2.7581 1.887128,1.5968 2.612946,2.46779 1.161307,1.45163 1.5968,3.1936 0.14516,0.58065 0.14516,1.45163 0.14516,1.74196 -0.725818,3.62909 -0.725819,1.88713 -2.03229,3.04844 z"
     id="path954"
     style="font-size:72.5818px;-inkscape-font-specification:sans-serif;fill:#f2f2f2;fill-opacity:0.723753;stroke-width:1.08873;stroke-linecap:square" />
</svg>
