<?xml version="1.0" encoding="UTF-8" standalone="no"?>
<!-- Created with Inkscape (http://www.inkscape.org/) -->

<svg
   width="600"
   height="600"
   viewBox="0 0 158.75 158.75"
   version="1.1"
   id="svg5"
   inkscape:version="1.2 (dc2aedaf03, 2022-05-15)"
   sodipodi:docname="back.en.svg"
   xmlns:inkscape="http://www.inkscape.org/namespaces/inkscape"
   xmlns:sodipodi="http://sodipodi.sourceforge.net/DTD/sodipodi-0.dtd"
   xmlns="http://www.w3.org/2000/svg"
   xmlns:svg="http://www.w3.org/2000/svg">
  <sodipodi:namedview
     id="namedview7"
     pagecolor="#ffffff"
     bordercolor="#111111"
     borderopacity="1"
     inkscape:showpageshadow="0"
     inkscape:pageopacity="0"
     inkscape:pagecheckerboard="1"
     inkscape:deskcolor="#d1d1d1"
     inkscape:document-units="px"
     showgrid="false"
     inkscape:lockguides="true"
     inkscape:zoom="0.59465221"
     inkscape:cx="11.771587"
     inkscape:cy="470.86347"
     inkscape:window-width="1366"
     inkscape:window-height="697"
     inkscape:window-x="-8"
     inkscape:window-y="-8"
     inkscape:window-maximized="1"
     inkscape:current-layer="layer1" />
  <defs
     id="defs2" />
  <g
     inkscape:label="Capa 1"
     inkscape:groupmode="layer"
     id="layer1">
    <g
       aria-label="Credits"
       id="text2548"
       style="font-size:38.1px;line-height:1.25;word-spacing:0px;display:inline;fill:#ffffff;stroke-width:0.264583">
      <path
         d="m 22.501237,138.00759 q -3.581399,0 -6.172199,-1.1811 -2.5908,-1.1811 -4.0386,-3.4671 -1.4097,-2.286 -1.5621,-5.6769 -0.0381,-1.5621 -0.0381,-3.3528 0,-1.7907 0.0381,-3.429 0.1524,-3.3147 1.6002,-5.6388 1.4478,-2.3241 4.0386,-3.5052 2.5908,-1.1811 6.134099,-1.1811 2.5146,0 4.6482,0.6477 2.1336,0.6096 3.7338,1.8288 1.6002,1.1811 2.4765,2.8956 0.9144,1.6764 0.9525,3.81 0.0381,0.3429 -0.2286,0.5715 -0.2286,0.2286 -0.5715,0.2286 h -5.1435 q -0.4953,0 -0.762,-0.1905 -0.2667,-0.2286 -0.4572,-0.8001 -0.5334,-2.0193 -1.7526,-2.7432 -1.1811,-0.762 -2.9337,-0.762 -2.095499,0 -3.314699,1.1811 -1.2192,1.143 -1.3335,3.8481 -0.1143,3.1242 0,6.4008 0.1143,2.7051 1.3335,3.8862 1.2192,1.143 3.314699,1.143 1.7526,0 2.9718,-0.762 1.2192,-0.762 1.7145,-2.7432 0.1524,-0.5715 0.4191,-0.762 0.3048,-0.2286 0.8001,-0.2286 h 5.1435 q 0.3429,0 0.5715,0.2286 0.2667,0.2286 0.2286,0.5715 -0.0381,2.1336 -0.9525,3.8481 -0.8763,1.6764 -2.4765,2.8956 -1.6002,1.1811 -3.7338,1.8288 -2.1336,0.6096 -4.6482,0.6096 z"
         style="font-weight:bold;font-family:'Rubik Light';-inkscape-font-specification:'Rubik Light,  Bold'"
         id="path1020" />
      <path
         d="m 38.846123,137.62659 q -0.4191,0 -0.6858,-0.2667 -0.2667,-0.3048 -0.2667,-0.6858 v -17.907 q 0,-0.381 0.2667,-0.6477 0.2667,-0.3048 0.6858,-0.3048 h 4.3815 q 0.4191,0 0.6858,0.3048 0.3048,0.2667 0.3048,0.6477 v 1.524 q 0.9906,-1.1811 2.4003,-1.8288 1.4478,-0.6477 3.2385,-0.6477 h 1.6764 q 0.4191,0 0.6858,0.2667 0.2667,0.2667 0.2667,0.6858 v 3.9243 q 0,0.381 -0.2667,0.6858 -0.2667,0.2667 -0.6858,0.2667 h -3.6957 q -1.5621,0 -2.4384,0.8763 -0.8382,0.8382 -0.8382,2.4003 v 9.7536 q 0,0.381 -0.3048,0.6858 -0.2667,0.2667 -0.6858,0.2667 z"
         style="font-weight:bold;font-family:'Rubik Light';-inkscape-font-specification:'Rubik Light,  Bold'"
         id="path1022" />
      <path
         d="m 64.163611,138.00759 q -4.4958,0 -7.1628,-2.4384 -2.667,-2.4384 -2.7813,-7.239 0,-0.2667 0,-0.6858 0,-0.4191 0,-0.6477 0.1143,-3.0099 1.3335,-5.1435 1.2573,-2.1717 3.429,-3.2766 2.2098,-1.143 5.1435,-1.143 3.3528,0 5.5245,1.3335 2.2098,1.3335 3.3147,3.6195 1.104899,2.286 1.104899,5.2197 v 0.9144 q 0,0.4191 -0.266699,0.6858 -0.2667,0.2667 -0.6858,0.2667 h -12.192 q 0,0.0381 0,0.1143 0,0.0762 0,0.1524 0.0381,1.1049 0.381,2.0193 0.381,0.9144 1.0668,1.4478 0.7239,0.5334 1.7526,0.5334 0.762,0 1.2573,-0.2286 0.5334,-0.2667 0.8763,-0.5715 0.3429,-0.3429 0.5334,-0.5715 0.3429,-0.4191 0.5334,-0.4953 0.2286,-0.1143 0.6858,-0.1143 h 4.7244 q 0.381,0 0.6096,0.2286 0.2667,0.2286 0.2286,0.6096 -0.0381,0.6477 -0.6477,1.5621 -0.6096,0.9144 -1.7907,1.8288 -1.143,0.8763 -2.8956,1.4478 -1.7526,0.5715 -4.0767,0.5715 z m -3.2385,-12.3063 h 6.4389 v -0.0762 q 0,-1.2573 -0.381,-2.1336 -0.3429,-0.9144 -1.1049,-1.4097 -0.7239,-0.4953 -1.7526,-0.4953 -0.9906,0 -1.7145,0.4953 -0.7239,0.4953 -1.1049,1.4097 -0.381,0.8763 -0.381,2.1336 z"
         style="font-weight:bold;font-family:'Rubik Light';-inkscape-font-specification:'Rubik Light,  Bold'"
         id="path1024" />
      <path
         d="m 85.042408,138.00759 q -1.8288,0 -3.3147,-0.5715 -1.4478,-0.6096 -2.5146,-1.7526 -1.0287,-1.1811 -1.600199,-2.8194 -0.5715,-1.6764 -0.6477,-3.81 -0.0381,-0.762 -0.0381,-1.3335 0,-0.6096 0.0381,-1.3716 0.0762,-2.0193 0.6477,-3.6576 0.571499,-1.6764 1.600199,-2.8194 1.0287,-1.1811 2.5146,-1.7907 1.4859,-0.6477 3.3147,-0.6477 1.905,0 3.2766,0.6477 1.3716,0.6096 2.3241,1.6002 v -8.1534 q 0,-0.4191 0.2667,-0.6858 0.2667,-0.2667 0.6858,-0.2667 h 4.6482 q 0.381,0 0.6477,0.2667 0.3048,0.2667 0.3048,0.6858 v 25.146 q 0,0.381 -0.3048,0.6858 -0.2667,0.2667 -0.6477,0.2667 h -4.3053 q -0.4191,0 -0.6858,-0.2667 -0.2667,-0.3048 -0.2667,-0.6858 v -1.2192 q -0.9144,1.1049 -2.3622,1.8288 -1.4478,0.7239 -3.5814,0.7239 z m 2.0955,-5.1054 q 1.2573,0 1.9812,-0.5334 0.762,-0.5715 1.1049,-1.4478 0.381,-0.8763 0.4191,-1.905 0.0381,-0.762 0.0381,-1.4478 0,-0.6858 -0.0381,-1.4097 -0.0381,-0.9525 -0.4191,-1.7526 -0.381,-0.8382 -1.143,-1.3335 -0.762,-0.5334 -1.9431,-0.5334 -1.2573,0 -2.0193,0.5334 -0.7239,0.5334 -1.0668,1.4478 -0.3048,0.9144 -0.381,2.0193 -0.1143,1.1811 0,2.3622 0.0762,1.1049 0.381,2.0193 0.3429,0.9144 1.0668,1.4478 0.762,0.5334 2.0193,0.5334 z"
         style="font-weight:bold;font-family:'Rubik Light';-inkscape-font-specification:'Rubik Light,  Bold'"
         id="path1026" />
      <path
         d="m 102.64462,137.62659 q -0.4191,0 -0.6858,-0.2667 -0.2667,-0.3048 -0.2667,-0.6858 v -17.907 q 0,-0.4191 0.2667,-0.6858 0.2667,-0.2667 0.6858,-0.2667 h 4.4958 q 0.4191,0 0.6858,0.2667 0.2667,0.2667 0.2667,0.6858 v 17.907 q 0,0.381 -0.2667,0.6858 -0.2667,0.2667 -0.6858,0.2667 z m -0.0381,-22.6695 q -0.4191,0 -0.6858,-0.2667 -0.2667,-0.2667 -0.2667,-0.6858 v -3.429 q 0,-0.381 0.2667,-0.6477 0.2667,-0.3048 0.6858,-0.3048 h 4.572 q 0.381,0 0.6477,0.3048 0.3048,0.2667 0.3048,0.6477 v 3.429 q 0,0.4191 -0.3048,0.6858 -0.2667,0.2667 -0.6477,0.2667 z"
         style="font-weight:bold;font-family:'Rubik Light';-inkscape-font-specification:'Rubik Light,  Bold'"
         id="path1028" />
      <path
         d="m 122.7233,137.62659 q -2.4384,0 -4.2291,-0.762 -1.7526,-0.8001 -2.7051,-2.4384 -0.9525,-1.6764 -0.9525,-4.3053 v -7.3152 h -2.9718 q -0.4191,0 -0.7239,-0.2667 -0.2667,-0.2667 -0.2667,-0.6858 v -3.0861 q 0,-0.4191 0.2667,-0.6858 0.3048,-0.2667 0.7239,-0.2667 h 2.9718 v -6.2865 q 0,-0.4191 0.2667,-0.6858 0.3048,-0.2667 0.6858,-0.2667 h 4.4196 q 0.4191,0 0.6858,0.2667 0.2667,0.2667 0.2667,0.6858 v 6.2865 h 4.7625 q 0.4191,0 0.6858,0.2667 0.3048,0.2667 0.3048,0.6858 v 3.0861 q 0,0.4191 -0.3048,0.6858 -0.2667,0.2667 -0.6858,0.2667 h -4.7625 v 6.7818 q 0,1.2954 0.4953,2.0574 0.4953,0.762 1.6764,0.762 h 2.9337 q 0.4191,0 0.6858,0.2667 0.2667,0.2667 0.2667,0.6858 v 3.3147 q 0,0.381 -0.2667,0.6858 -0.2667,0.2667 -0.6858,0.2667 z"
         style="font-weight:bold;font-family:'Rubik Light';-inkscape-font-specification:'Rubik Light,  Bold'"
         id="path1030" />
      <path
         d="m 138.53476,138.00759 q -2.4765,0 -4.2291,-0.5334 -1.7145,-0.5715 -2.8194,-1.3716 -1.0668,-0.8001 -1.6002,-1.6383 -0.5334,-0.8763 -0.5715,-1.524 -0.0381,-0.4191 0.2667,-0.6858 0.3048,-0.2667 0.6477,-0.2667 h 4.3434 q 0.1143,0 0.1905,0.0381 0.1143,0.0381 0.2286,0.1524 0.4953,0.2667 0.9906,0.6858 0.4953,0.381 1.143,0.6858 0.6477,0.3048 1.5621,0.3048 1.0668,0 1.7907,-0.4191 0.7239,-0.4572 0.7239,-1.2573 0,-0.6096 -0.3429,-0.9906 -0.3429,-0.4191 -1.4097,-0.8001 -1.0287,-0.381 -3.1242,-0.762 -1.9812,-0.4572 -3.4671,-1.1811 -1.4859,-0.762 -2.286,-1.9431 -0.8001,-1.2192 -0.8001,-2.9337 0,-1.524 0.9906,-2.9337 0.9906,-1.4097 2.8956,-2.286 1.905,-0.9144 4.7244,-0.9144 2.1717,0 3.81,0.5334 1.6383,0.4953 2.7432,1.2954 1.1049,0.8001 1.6764,1.6383 0.5715,0.8382 0.6096,1.524 0.0381,0.381 -0.2286,0.6858 -0.2667,0.2667 -0.6096,0.2667 h -3.9624 q -0.1524,0 -0.3048,-0.0381 -0.1524,-0.0762 -0.2667,-0.1524 -0.4572,-0.2286 -0.9144,-0.6096 -0.4572,-0.381 -1.0668,-0.6858 -0.6096,-0.3048 -1.524,-0.3048 -1.0287,0 -1.6002,0.4572 -0.5715,0.4572 -0.5715,1.1811 0,0.4953 0.3048,0.9144 0.3429,0.4191 1.3335,0.762 1.0287,0.3429 3.1623,0.762 2.6289,0.4191 4.191,1.3716 1.5621,0.9144 2.2098,2.1717 0.6858,1.2192 0.6858,2.5908 0,1.8288 -1.1049,3.2385 -1.1049,1.4097 -3.2385,2.2098 -2.0955,0.762 -5.1816,0.762 z"
         style="font-weight:bold;font-family:'Rubik Light';-inkscape-font-specification:'Rubik Light,  Bold'"
         id="path1032" />
    </g>
    <g
       aria-label=""
       id="text318"
       style="font-size:105.833px;line-height:1.25;word-spacing:0px;stroke-width:0.264583;fill:#ffffff;fill-opacity:1">
      <path
         d="m 67.205237,59.634833 q -5.322655,0.155028 -8.784965,4.237454 h -4.44416 q -2.738842,0 -4.599188,-1.343583 -1.860345,-1.343583 -1.860345,-3.927397 0,-11.730513 4.134101,-11.730513 0.155029,0 1.39526,0.723468 1.291906,0.671791 3.255605,1.395259 1.963698,0.723468 3.979072,0.723468 2.22208,0 4.392483,-0.775144 -0.155029,1.446935 -0.155029,2.170403 0,4.599188 2.687166,8.526585 z m 35.553273,21.135594 q 0,3.979073 -2.42878,6.304505 -2.377112,2.273756 -6.459537,2.273756 H 64.879805 q -4.030749,0 -6.459533,-2.273756 -2.377109,-2.325432 -2.377109,-6.304505 0,-1.756993 0.103353,-3.410634 0.103352,-1.653641 0.41341,-3.617339 0.361734,-1.963698 0.878496,-3.617339 0.568439,-1.65364 1.446936,-3.203928 0.930173,-1.601965 2.067051,-2.687166 1.188554,-1.136878 2.842195,-1.80867 1.705317,-0.671791 3.720691,-0.671791 0.310058,0 1.395259,0.723467 1.136878,0.723468 2.428785,1.601965 1.343583,0.82682 3.565663,1.550288 2.222079,0.723468 4.444159,0.723468 2.273756,0 4.495835,-0.723468 2.22208,-0.723468 3.513987,-1.550288 1.343583,-0.878497 2.428784,-1.601965 1.136878,-0.723467 1.446936,-0.723467 2.377108,0 4.237454,0.878496 1.860346,0.878497 3.100576,2.428785 1.240231,1.498612 2.067047,3.358957 0.8785,1.860346 1.29191,4.134102 0.46509,2.22208 0.62012,4.185778 0.2067,1.963698 0.2067,4.030749 z M 66.275065,32.401439 q 2.48046,2.48046 2.48046,5.994447 0,3.513986 -2.48046,5.994447 -2.480461,2.480461 -5.994448,2.480461 -3.513986,0 -6.046123,-2.480461 -2.480461,-2.480461 -2.480461,-5.994447 0,-3.513987 2.480461,-5.994447 2.532137,-2.480461 6.046123,-2.480461 3.513987,0 5.994448,2.480461 z m 22.065767,9.715138 q 3.772367,3.720692 3.772367,9.043347 0,5.27098 -3.772367,8.991671 -3.720692,3.720692 -8.991671,3.720692 -5.219303,0 -8.991671,-3.720692 -3.720692,-3.720691 -3.720692,-8.991671 0,-5.322655 3.720692,-9.043347 3.772368,-3.720691 8.991671,-3.720691 5.270979,0 8.991671,3.720691 z m 22.892588,16.48473 q 0,2.583814 -1.86035,3.927397 -1.86034,1.343583 -4.54751,1.343583 h -4.49583 q -3.462314,-4.082426 -8.733293,-4.237454 2.635489,-3.875721 2.635489,-8.526585 0,-0.723468 -0.155028,-2.170403 2.170403,0.775144 4.392483,0.775144 1.550289,0 3.152249,-0.41341 1.60197,-0.465087 2.63549,-0.981849 1.03353,-0.568439 1.86035,-0.98185 0.82682,-0.465086 1.03352,-0.465086 0.62012,0 1.13688,0.258381 0.51676,0.206705 0.8785,0.775144 0.41341,0.516763 0.72347,1.033526 0.31005,0.465086 0.51676,1.343583 0.2067,0.82682 0.36173,1.446935 0.15503,0.568439 0.20671,1.601965 0.10335,1.033525 0.15503,1.550288 0.0517,0.465086 0.0517,1.498612 0.0517,1.033525 0.0517,1.24023 0,0.155029 0,0.981849 z m -6.76959,-26.199868 q 2.53214,2.48046 2.53214,5.994447 0,3.513986 -2.53214,5.994447 -2.48046,2.480461 -5.994449,2.480461 -3.513987,0 -5.994448,-2.480461 -2.480461,-2.480461 -2.480461,-5.994447 0,-3.513987 2.480461,-5.994447 2.480461,-2.480461 5.994448,-2.480461 3.513989,0 5.994449,2.480461 z"
         style="font-weight:bold;-inkscape-font-specification:'sans-serif Bold';fill:#ffffff;fill-opacity:1"
         id="path374" />
    </g>
  </g>
</svg>
