<?xml version="1.0" encoding="UTF-8" standalone="no"?>
<!-- Created with Inkscape (http://www.inkscape.org/) -->

<svg
   width="600"
   height="600"
   viewBox="0 0 158.75 158.75"
   version="1.1"
   id="svg5"
   inkscape:version="1.2 (dc2aedaf03, 2022-05-15)"
   sodipodi:docname="back.svg"
   xmlns:inkscape="http://www.inkscape.org/namespaces/inkscape"
   xmlns:sodipodi="http://sodipodi.sourceforge.net/DTD/sodipodi-0.dtd"
   xmlns="http://www.w3.org/2000/svg"
   xmlns:svg="http://www.w3.org/2000/svg">
  <sodipodi:namedview
     id="namedview7"
     pagecolor="#ffffff"
     bordercolor="#111111"
     borderopacity="1"
     inkscape:showpageshadow="0"
     inkscape:pageopacity="0"
     inkscape:pagecheckerboard="1"
     inkscape:deskcolor="#d1d1d1"
     inkscape:document-units="px"
     showgrid="false"
     inkscape:lockguides="true"
     inkscape:zoom="0.42048261"
     inkscape:cx="-118.91098"
     inkscape:cy="223.55265"
     inkscape:window-width="1366"
     inkscape:window-height="697"
     inkscape:window-x="-8"
     inkscape:window-y="-8"
     inkscape:window-maximized="1"
     inkscape:current-layer="layer1" />
  <defs
     id="defs2" />
  <g
     inkscape:label="Capa 1"
     inkscape:groupmode="layer"
     id="layer1">
    <g
       aria-label=""
       id="text1806"
       style="font-size:119.062px;line-height:1.25;word-spacing:0px;display:inline;fill:#ffffff;stroke-width:0.264583">
      <path
         d="m 105.00358,63.190669 v 21.335817 q 0,1.162715 -0.87204,2.034751 -0.8139,0.813901 -1.97661,0.813901 H 85.063018 V 70.28323 H 73.726549 V 87.375138 H 56.634641 q -1.162714,0 -2.034751,-0.813901 -0.8139,-0.872036 -0.8139,-2.034751 V 63.190669 q 0,-0.05814 0,-0.116271 0.05814,-0.116271 0.05814,-0.174407 L 79.423852,41.854853 104.94544,62.899991 q 0.0581,0.05814 0.0581,0.290678 z m 9.88307,-3.081194 -2.73238,3.313737 q -0.40695,0.406951 -0.93017,0.465086 h -0.11627 q -0.58136,0 -0.93017,-0.290678 L 79.423852,37.901622 48.611909,63.59762 q -0.465086,0.348814 -1.046443,0.290678 -0.523222,-0.05814 -0.930172,-0.465086 l -2.73238,-3.313737 q -0.40695,-0.465086 -0.348814,-1.046443 0.05814,-0.581357 0.465086,-0.930172 L 75.993843,31.448555 q 1.453393,-1.162715 3.430009,-1.162715 1.976615,0 3.371873,1.162715 l 10.813247,9.127311 v -8.662225 q 0,-0.639493 0.406951,-1.046443 0.40695,-0.40695 1.046443,-0.40695 h 8.545954 q 0.58136,0 0.98831,0.40695 0.40695,0.40695 0.40695,1.046443 v 18.080215 l 9.70867,8.139004 q 0.40695,0.348815 0.46508,0.930172 0.11627,0.581357 -0.29068,1.046443 z"
         style="font-family:'Hack Nerd Font Mono';-inkscape-font-specification:'Hack Nerd Font Mono'"
         id="path2685" />
    </g>
    <text
       xml:space="preserve"
       style="font-size:38.1px;line-height:1.25;font-family:sans-serif;word-spacing:0px;display:none;fill:#ffffff;stroke-width:0.264583"
       x="31.140387"
       y="137.62659"
       id="text2548"><tspan
         sodipodi:role="line"
         id="tspan2546"
         x="31.140387"
         y="137.62659"
         style="font-style:normal;font-variant:normal;font-weight:bold;font-stretch:normal;font-size:38.1px;font-family:'Rubik Light';-inkscape-font-specification:'Rubik Light,  Bold';fill:#ffffff;stroke-width:0.264583">Back</tspan></text>
    <g
       aria-label="Atrás"
       id="text2683"
       style="font-size:38.1px;line-height:1.25;word-spacing:0px;display:inline;fill:#ffffff;stroke-width:0.264583">
      <path
         d="m 28.759163,137.62659 q -0.3048,0 -0.5715,-0.2286 -0.2286,-0.2667 -0.2286,-0.5715 0,-0.1905 0.0381,-0.3429 l 8.9535,-24.4602 q 0.1143,-0.4191 0.4572,-0.7239 0.381,-0.3429 1.0287,-0.3429 h 5.6388 q 0.6477,0 0.9906,0.3429 0.381,0.3048 0.4953,0.7239 l 8.915399,24.4602 q 0.0762,0.1524 0.0762,0.3429 0,0.3048 -0.2667,0.5715 -0.2286,0.2286 -0.5715,0.2286 h -4.6863 q -0.5715,0 -0.8763,-0.2667 -0.2667,-0.3048 -0.3429,-0.5334 l -1.485899,-3.8862 h -10.1727 l -1.4478,3.8862 q -0.0762,0.2286 -0.3429,0.5334 -0.2667,0.2667 -0.9144,0.2667 z m 8.9535,-10.1727 h 7.0866 l -3.5433,-10.0584 z"
         style="font-weight:bold;font-family:'Rubik Light';-inkscape-font-specification:'Rubik Light,  Bold'"
         id="path2688" />
      <path
         d="m 66.006668,137.62659 q -2.4384,0 -4.2291,-0.762 -1.7526,-0.8001 -2.7051,-2.4384 -0.9525,-1.6764 -0.9525,-4.3053 v -7.3152 h -2.9718 q -0.4191,0 -0.7239,-0.2667 -0.2667,-0.2667 -0.2667,-0.6858 v -3.0861 q 0,-0.4191 0.2667,-0.6858 0.3048,-0.2667 0.7239,-0.2667 h 2.9718 v -6.2865 q 0,-0.4191 0.2667,-0.6858 0.3048,-0.2667 0.6858,-0.2667 h 4.4196 q 0.4191,0 0.6858,0.2667 0.2667,0.2667 0.2667,0.6858 v 6.2865 h 4.7625 q 0.4191,0 0.6858,0.2667 0.3048,0.2667 0.3048,0.6858 v 3.0861 q 0,0.4191 -0.3048,0.6858 -0.2667,0.2667 -0.6858,0.2667 h -4.7625 v 6.7818 q 0,1.2954 0.4953,2.0574 0.4953,0.762 1.6764,0.762 h 2.9337 q 0.4191,0 0.6858,0.2667 0.2667,0.2667 0.2667,0.6858 v 3.3147 q 0,0.381 -0.2667,0.6858 -0.2667,0.2667 -0.6858,0.2667 z"
         style="font-weight:bold;font-family:'Rubik Light';-inkscape-font-specification:'Rubik Light,  Bold'"
         id="path2690" />
      <path
         d="m 74.61723,137.62659 q -0.4191,0 -0.6858,-0.2667 -0.2667,-0.3048 -0.2667,-0.6858 v -17.907 q 0,-0.381 0.2667,-0.6477 0.2667,-0.3048 0.6858,-0.3048 h 4.3815 q 0.4191,0 0.6858,0.3048 0.3048,0.2667 0.3048,0.6477 v 1.524 q 0.9906,-1.1811 2.4003,-1.8288 1.4478,-0.6477 3.238499,-0.6477 h 1.6764 q 0.4191,0 0.6858,0.2667 0.2667,0.2667 0.2667,0.6858 v 3.9243 q 0,0.381 -0.2667,0.6858 -0.2667,0.2667 -0.6858,0.2667 H 83.60883 q -1.5621,0 -2.4384,0.8763 -0.8382,0.8382 -0.8382,2.4003 v 9.7536 q 0,0.381 -0.3048,0.6858 -0.2667,0.2667 -0.6858,0.2667 z"
         style="font-weight:bold;font-family:'Rubik Light';-inkscape-font-specification:'Rubik Light,  Bold'"
         id="path2692" />
      <path
         d="m 96.577133,138.00759 q -2.0574,0 -3.6957,-0.762 -1.6002,-0.8001 -2.5527,-2.1336 -0.9525,-1.3335 -0.9525,-3.0099 0,-2.7051 2.2098,-4.2672 2.2098,-1.6002 5.8674,-2.1717 l 4.762497,-0.7239 v -0.5334 q 0,-1.3716 -0.5715,-2.0955 -0.5715,-0.7239 -2.095497,-0.7239 -1.0668,0 -1.7526,0.4191 -0.6477,0.4191 -1.0287,1.143 -0.3429,0.4953 -0.9525,0.4953 h -4.2672 q -0.4191,0 -0.6477,-0.2286 -0.2286,-0.2667 -0.1905,-0.6096 0,-0.6858 0.4953,-1.5621 0.5334,-0.9144 1.6002,-1.7907 1.0668,-0.8763 2.7432,-1.4478 1.6764,-0.5715 4.0767,-0.5715 2.438397,0 4.190997,0.5715 1.7526,0.5715 2.8575,1.6002 1.1049,1.0287 1.6002,2.4384 0.5334,1.3716 0.5334,3.048 v 11.5824 q 0,0.381 -0.3048,0.6858 -0.2667,0.2667 -0.6477,0.2667 h -4.4196 q -0.4191,0 -0.6858,-0.2667 -0.2667,-0.3048 -0.2667,-0.6858 v -1.3335 q -0.4953,0.7239 -1.3335,1.3335 -0.8382,0.6096 -1.981197,0.9525 -1.1049,0.381 -2.5908,0.381 z m 1.7907,-4.3434 q 1.1049,0 1.981197,-0.4572 0.9144,-0.4953 1.4097,-1.4859 0.5334,-1.0287 0.5334,-2.5527 v -0.5334 l -3.238497,0.5715 q -1.7907,0.3048 -2.6289,0.9525 -0.8001,0.6096 -0.8001,1.4478 0,0.6477 0.381,1.1049 0.381,0.4572 0.9906,0.7239 0.6477,0.2286 1.3716,0.2286 z m -1.0287,-18.7071 q -0.6096,0 -0.6096,-0.6096 0,-0.3048 0.1905,-0.4953 l 3.352797,-4.0767 q 0.381,-0.4572 0.6477,-0.5715 0.2667,-0.1524 0.762,-0.1524 h 5.0292 q 0.7239,0 0.7239,0.762 0,0.2667 -0.1905,0.4572 l -5.0673,4.1529 q -0.3048,0.2667 -0.6096,0.4191 -0.3048,0.1143 -0.8382,0.1143 z"
         style="font-weight:bold;font-family:'Rubik Light';-inkscape-font-specification:'Rubik Light,  Bold'"
         id="path2694" />
      <path
         d="m 121.26594,138.00759 q -2.4765,0 -4.2291,-0.5334 -1.7145,-0.5715 -2.8194,-1.3716 -1.0668,-0.8001 -1.6002,-1.6383 -0.5334,-0.8763 -0.5715,-1.524 -0.0381,-0.4191 0.2667,-0.6858 0.3048,-0.2667 0.6477,-0.2667 h 4.3434 q 0.1143,0 0.1905,0.0381 0.1143,0.0381 0.2286,0.1524 0.4953,0.2667 0.9906,0.6858 0.4953,0.381 1.143,0.6858 0.6477,0.3048 1.5621,0.3048 1.0668,0 1.7907,-0.4191 0.7239,-0.4572 0.7239,-1.2573 0,-0.6096 -0.3429,-0.9906 -0.3429,-0.4191 -1.4097,-0.8001 -1.0287,-0.381 -3.1242,-0.762 -1.9812,-0.4572 -3.4671,-1.1811 -1.4859,-0.762 -2.286,-1.9431 -0.8001,-1.2192 -0.8001,-2.9337 0,-1.524 0.9906,-2.9337 0.9906,-1.4097 2.8956,-2.286 1.905,-0.9144 4.7244,-0.9144 2.1717,0 3.81,0.5334 1.6383,0.4953 2.7432,1.2954 1.1049,0.8001 1.6764,1.6383 0.5715,0.8382 0.6096,1.524 0.0381,0.381 -0.2286,0.6858 -0.2667,0.2667 -0.6096,0.2667 h -3.9624 q -0.1524,0 -0.3048,-0.0381 -0.1524,-0.0762 -0.2667,-0.1524 -0.4572,-0.2286 -0.9144,-0.6096 -0.4572,-0.381 -1.0668,-0.6858 -0.6096,-0.3048 -1.524,-0.3048 -1.0287,0 -1.6002,0.4572 -0.5715,0.4572 -0.5715,1.1811 0,0.4953 0.3048,0.9144 0.3429,0.4191 1.3335,0.762 1.0287,0.3429 3.1623,0.762 2.6289,0.4191 4.191,1.3716 1.5621,0.9144 2.2098,2.1717 0.6858,1.2192 0.6858,2.5908 0,1.8288 -1.1049,3.2385 -1.1049,1.4097 -3.2385,2.2098 -2.0955,0.762 -5.1816,0.762 z"
         style="font-weight:bold;font-family:'Rubik Light';-inkscape-font-specification:'Rubik Light,  Bold'"
         id="path2696" />
    </g>
  </g>
</svg>
