<?xml version="1.0" encoding="UTF-8" standalone="no"?>
<!-- Created with Inkscape (http://www.inkscape.org/) -->

<svg
   width="600"
   height="600"
   viewBox="0 0 158.75 158.75"
   version="1.1"
   id="svg5"
   inkscape:version="1.2 (dc2aedaf03, 2022-05-15)"
   sodipodi:docname="back.svg"
   xmlns:inkscape="http://www.inkscape.org/namespaces/inkscape"
   xmlns:sodipodi="http://sodipodi.sourceforge.net/DTD/sodipodi-0.dtd"
   xmlns="http://www.w3.org/2000/svg"
   xmlns:svg="http://www.w3.org/2000/svg">
  <sodipodi:namedview
     id="namedview7"
     pagecolor="#ffffff"
     bordercolor="#111111"
     borderopacity="1"
     inkscape:showpageshadow="0"
     inkscape:pageopacity="0"
     inkscape:pagecheckerboard="1"
     inkscape:deskcolor="#d1d1d1"
     inkscape:document-units="px"
     showgrid="false"
     inkscape:lockguides="true"
     inkscape:zoom="0.42048261"
     inkscape:cx="-90.372346"
     inkscape:cy="425.70131"
     inkscape:window-width="1366"
     inkscape:window-height="697"
     inkscape:window-x="-8"
     inkscape:window-y="-8"
     inkscape:window-maximized="1"
     inkscape:current-layer="layer1" />
  <defs
     id="defs2" />
  <g
     inkscape:label="Capa 1"
     inkscape:groupmode="layer"
     id="layer1">
    <text
       xml:space="preserve"
       style="font-size:31.75px;line-height:1.25;font-family:sans-serif;word-spacing:0px;display:none;fill:#ffffff;stroke-width:0.264583"
       x="10.945818"
       y="137.62659"
       id="text2548"
       sodipodi:insensitive="true"><tspan
         sodipodi:role="line"
         id="tspan2546"
         x="0"
         y="0"
         style="font-style:normal;font-variant:normal;font-weight:bold;font-stretch:normal;font-size:31.75px;font-family:'Rubik Light';-inkscape-font-specification:'Rubik Light,  Bold';fill:#ffffff;stroke-width:0.264583">Creditos</tspan></text>
    <g
       aria-label=""
       id="text318"
       style="font-size:105.833px;line-height:1.25;word-spacing:0px;stroke-width:0.264583;fill:#ffffff;fill-opacity:1">
      <path
         d="m 67.205237,59.634833 q -5.322655,0.155028 -8.784965,4.237454 h -4.44416 q -2.738842,0 -4.599188,-1.343583 -1.860345,-1.343583 -1.860345,-3.927397 0,-11.730513 4.134101,-11.730513 0.155029,0 1.39526,0.723468 1.291906,0.671791 3.255605,1.395259 1.963698,0.723468 3.979072,0.723468 2.22208,0 4.392483,-0.775144 -0.155029,1.446935 -0.155029,2.170403 0,4.599188 2.687166,8.526585 z m 35.553273,21.135594 q 0,3.979073 -2.42878,6.304505 -2.377112,2.273756 -6.459537,2.273756 H 64.879805 q -4.030749,0 -6.459533,-2.273756 -2.377109,-2.325432 -2.377109,-6.304505 0,-1.756993 0.103353,-3.410634 0.103352,-1.653641 0.41341,-3.617339 0.361734,-1.963698 0.878496,-3.617339 0.568439,-1.65364 1.446936,-3.203928 0.930173,-1.601965 2.067051,-2.687166 1.188554,-1.136878 2.842195,-1.80867 1.705317,-0.671791 3.720691,-0.671791 0.310058,0 1.395259,0.723467 1.136878,0.723468 2.428785,1.601965 1.343583,0.82682 3.565663,1.550288 2.222079,0.723468 4.444159,0.723468 2.273756,0 4.495835,-0.723468 2.22208,-0.723468 3.513987,-1.550288 1.343583,-0.878497 2.428784,-1.601965 1.136878,-0.723467 1.446936,-0.723467 2.377108,0 4.237454,0.878496 1.860346,0.878497 3.100576,2.428785 1.240231,1.498612 2.067047,3.358957 0.8785,1.860346 1.29191,4.134102 0.46509,2.22208 0.62012,4.185778 0.2067,1.963698 0.2067,4.030749 z M 66.275065,32.401439 q 2.48046,2.48046 2.48046,5.994447 0,3.513986 -2.48046,5.994447 -2.480461,2.480461 -5.994448,2.480461 -3.513986,0 -6.046123,-2.480461 -2.480461,-2.480461 -2.480461,-5.994447 0,-3.513987 2.480461,-5.994447 2.532137,-2.480461 6.046123,-2.480461 3.513987,0 5.994448,2.480461 z m 22.065767,9.715138 q 3.772367,3.720692 3.772367,9.043347 0,5.27098 -3.772367,8.991671 -3.720692,3.720692 -8.991671,3.720692 -5.219303,0 -8.991671,-3.720692 -3.720692,-3.720691 -3.720692,-8.991671 0,-5.322655 3.720692,-9.043347 3.772368,-3.720691 8.991671,-3.720691 5.270979,0 8.991671,3.720691 z m 22.892588,16.48473 q 0,2.583814 -1.86035,3.927397 -1.86034,1.343583 -4.54751,1.343583 h -4.49583 q -3.462314,-4.082426 -8.733293,-4.237454 2.635489,-3.875721 2.635489,-8.526585 0,-0.723468 -0.155028,-2.170403 2.170403,0.775144 4.392483,0.775144 1.550289,0 3.152249,-0.41341 1.60197,-0.465087 2.63549,-0.981849 1.03353,-0.568439 1.86035,-0.98185 0.82682,-0.465086 1.03352,-0.465086 0.62012,0 1.13688,0.258381 0.51676,0.206705 0.8785,0.775144 0.41341,0.516763 0.72347,1.033526 0.31005,0.465086 0.51676,1.343583 0.2067,0.82682 0.36173,1.446935 0.15503,0.568439 0.20671,1.601965 0.10335,1.033525 0.15503,1.550288 0.0517,0.465086 0.0517,1.498612 0.0517,1.033525 0.0517,1.24023 0,0.155029 0,0.981849 z m -6.76959,-26.199868 q 2.53214,2.48046 2.53214,5.994447 0,3.513986 -2.53214,5.994447 -2.48046,2.480461 -5.994449,2.480461 -3.513987,0 -5.994448,-2.480461 -2.480461,-2.480461 -2.480461,-5.994447 0,-3.513987 2.480461,-5.994447 2.480461,-2.480461 5.994448,-2.480461 3.513989,0 5.994449,2.480461 z"
         style="font-weight:bold;-inkscape-font-specification:'sans-serif Bold';fill:#ffffff;fill-opacity:1"
         id="path374" />
    </g>
    <g
       aria-label="Creditos"
       id="text984"
       style="font-size:31.75px;line-height:1.25;word-spacing:0px;display:inline;fill:#ffffff;stroke-width:0.264583">
      <path
         d="m 22.280568,137.94409 q -2.9845,0 -5.1435,-0.98425 -2.159,-0.98425 -3.3655,-2.88925 -1.17475,-1.905 -1.30175,-4.73075 -0.03175,-1.30175 -0.03175,-2.794 0,-1.49225 0.03175,-2.8575 0.127,-2.76225 1.3335,-4.699 1.2065,-1.93675 3.3655,-2.921 2.159,-0.98425 5.11175,-0.98425 2.0955,0 3.8735,0.53975 1.778,0.508 3.1115,1.524 1.3335,0.98425 2.06375,2.413 0.762,1.397 0.79375,3.175 0.03175,0.28575 -0.1905,0.47625 -0.1905,0.1905 -0.47625,0.1905 h -4.28625 q -0.41275,0 -0.635,-0.15875 -0.22225,-0.1905 -0.381,-0.66675 -0.4445,-1.68275 -1.4605,-2.286 -0.98425,-0.635 -2.44475,-0.635 -1.74625,0 -2.76225,0.98425 -1.016,0.9525 -1.11125,3.20675 -0.09525,2.6035 0,5.334 0.09525,2.25425 1.11125,3.2385 1.016,0.9525 2.76225,0.9525 1.4605,0 2.4765,-0.635 1.016,-0.635 1.42875,-2.286 0.127,-0.47625 0.34925,-0.635 0.254,-0.1905 0.66675,-0.1905 h 4.28625 q 0.28575,0 0.47625,0.1905 0.22225,0.1905 0.1905,0.47625 -0.03175,1.778 -0.79375,3.20675 -0.73025,1.397 -2.06375,2.413 -1.3335,0.98425 -3.1115,1.524 -1.778,0.508 -3.8735,0.508 z"
         style="font-weight:bold;font-family:'Rubik Light';-inkscape-font-specification:'Rubik Light,  Bold'"
         id="path986" />
      <path
         d="m 35.901308,137.62659 q -0.34925,0 -0.5715,-0.22225 -0.22225,-0.254 -0.22225,-0.5715 v -14.9225 q 0,-0.3175 0.22225,-0.53975 0.22225,-0.254 0.5715,-0.254 h 3.65125 q 0.34925,0 0.5715,0.254 0.254,0.22225 0.254,0.53975 v 1.27 q 0.8255,-0.98425 2.00025,-1.524 1.2065,-0.53975 2.69875,-0.53975 h 1.397 q 0.34925,0 0.5715,0.22225 0.22225,0.22225 0.22225,0.5715 v 3.27025 q 0,0.3175 -0.22225,0.5715 -0.22225,0.22225 -0.5715,0.22225 h -3.07975 q -1.30175,0 -2.032,0.73025 -0.6985,0.6985 -0.6985,2.00025 v 8.128 q 0,0.3175 -0.254,0.5715 -0.22225,0.22225 -0.5715,0.22225 z"
         style="font-weight:bold;font-family:'Rubik Light';-inkscape-font-specification:'Rubik Light,  Bold'"
         id="path988" />
      <path
         d="m 56.999218,137.94409 q -3.7465,0 -5.969,-2.032 -2.2225,-2.032 -2.31775,-6.0325 0,-0.22225 0,-0.5715 0,-0.34925 0,-0.53975 0.09525,-2.50825 1.11125,-4.28625 1.04775,-1.80975 2.8575,-2.7305 1.8415,-0.9525 4.28625,-0.9525 2.794,0 4.60375,1.11125 1.8415,1.11125 2.76225,3.01625 0.92075,1.905 0.92075,4.34975 v 0.762 q 0,0.34925 -0.22225,0.5715 -0.22225,0.22225 -0.5715,0.22225 h -10.16 q 0,0.0318 0,0.0952 0,0.0635 0,0.127 0.03175,0.92075 0.3175,1.68275 0.3175,0.762 0.889,1.2065 0.60325,0.4445 1.4605,0.4445 0.635,0 1.04775,-0.1905 0.4445,-0.22225 0.73025,-0.47625 0.28575,-0.28575 0.4445,-0.47625 0.28575,-0.34925 0.4445,-0.41275 0.1905,-0.0952 0.5715,-0.0952 h 3.937 q 0.3175,0 0.508,0.1905 0.22225,0.1905 0.1905,0.508 -0.03175,0.53975 -0.53975,1.30175 -0.508,0.762 -1.49225,1.524 -0.9525,0.73025 -2.413,1.2065 -1.4605,0.47625 -3.39725,0.47625 z m -2.69875,-10.25525 h 5.36575 v -0.0635 q 0,-1.04775 -0.3175,-1.778 -0.28575,-0.762 -0.92075,-1.17475 -0.60325,-0.41275 -1.4605,-0.41275 -0.8255,0 -1.42875,0.41275 -0.60325,0.41275 -0.92075,1.17475 -0.3175,0.73025 -0.3175,1.778 z"
         style="font-weight:bold;font-family:'Rubik Light';-inkscape-font-specification:'Rubik Light,  Bold'"
         id="path990" />
      <path
         d="m 74.398211,137.94409 q -1.524,0 -2.76225,-0.47625 -1.2065,-0.508 -2.0955,-1.4605 -0.85725,-0.98425 -1.3335,-2.3495 -0.47625,-1.397 -0.53975,-3.175 -0.03175,-0.635 -0.03175,-1.11125 0,-0.508 0.03175,-1.143 0.0635,-1.68275 0.53975,-3.048 0.47625,-1.397 1.3335,-2.3495 0.85725,-0.98425 2.0955,-1.49225 1.23825,-0.53975 2.76225,-0.53975 1.5875,0 2.7305,0.53975 1.143,0.508 1.93675,1.3335 v -6.7945 q 0,-0.34925 0.22225,-0.5715 0.22225,-0.22225 0.5715,-0.22225 h 3.8735 q 0.3175,0 0.53975,0.22225 0.254,0.22225 0.254,0.5715 v 20.955 q 0,0.3175 -0.254,0.5715 -0.22225,0.22225 -0.53975,0.22225 h -3.58775 q -0.34925,0 -0.5715,-0.22225 -0.22225,-0.254 -0.22225,-0.5715 v -1.016 q -0.762,0.92075 -1.9685,1.524 -1.2065,0.60325 -2.9845,0.60325 z m 1.74625,-4.2545 q 1.04775,0 1.651,-0.4445 0.635,-0.47625 0.92075,-1.2065 0.3175,-0.73025 0.34925,-1.5875 0.03175,-0.635 0.03175,-1.2065 0,-0.5715 -0.03175,-1.17475 -0.03175,-0.79375 -0.34925,-1.4605 -0.3175,-0.6985 -0.9525,-1.11125 -0.635,-0.4445 -1.61925,-0.4445 -1.04775,0 -1.68275,0.4445 -0.60325,0.4445 -0.889,1.2065 -0.254,0.762 -0.3175,1.68275 -0.09525,0.98425 0,1.9685 0.0635,0.92075 0.3175,1.68275 0.28575,0.762 0.889,1.2065 0.635,0.4445 1.68275,0.4445 z"
         style="font-weight:bold;font-family:'Rubik Light';-inkscape-font-specification:'Rubik Light,  Bold'"
         id="path992" />
      <path
         d="m 89.066729,137.62659 q -0.34925,0 -0.5715,-0.22225 -0.22225,-0.254 -0.22225,-0.5715 v -14.9225 q 0,-0.34925 0.22225,-0.5715 0.22225,-0.22225 0.5715,-0.22225 h 3.7465 q 0.34925,0 0.5715,0.22225 0.22225,0.22225 0.22225,0.5715 v 14.9225 q 0,0.3175 -0.22225,0.5715 -0.22225,0.22225 -0.5715,0.22225 z m -0.03175,-18.89125 q -0.34925,0 -0.5715,-0.22225 -0.22225,-0.22225 -0.22225,-0.5715 v -2.8575 q 0,-0.3175 0.22225,-0.53975 0.22225,-0.254 0.5715,-0.254 h 3.81 q 0.3175,0 0.53975,0.254 0.254,0.22225 0.254,0.53975 v 2.8575 q 0,0.34925 -0.254,0.5715 -0.22225,0.22225 -0.53975,0.22225 z"
         style="font-weight:bold;font-family:'Rubik Light';-inkscape-font-specification:'Rubik Light,  Bold'"
         id="path994" />
      <path
         d="m 105.79895,137.62659 q -2.032,0 -3.52425,-0.635 -1.4605,-0.66675 -2.25425,-2.032 -0.793746,-1.397 -0.793746,-3.58775 v -6.096 h -2.4765 q -0.34925,0 -0.60325,-0.22225 -0.22225,-0.22225 -0.22225,-0.5715 v -2.57175 q 0,-0.34925 0.22225,-0.5715 0.254,-0.22225 0.60325,-0.22225 h 2.4765 v -5.23875 q 0,-0.34925 0.22225,-0.5715 0.254,-0.22225 0.571496,-0.22225 h 3.683 q 0.34925,0 0.5715,0.22225 0.22225,0.22225 0.22225,0.5715 v 5.23875 h 3.96875 q 0.34925,0 0.5715,0.22225 0.254,0.22225 0.254,0.5715 v 2.57175 q 0,0.34925 -0.254,0.5715 -0.22225,0.22225 -0.5715,0.22225 h -3.96875 v 5.6515 q 0,1.0795 0.41275,1.7145 0.41275,0.635 1.397,0.635 h 2.44475 q 0.34925,0 0.5715,0.22225 0.22225,0.22225 0.22225,0.5715 v 2.76225 q 0,0.3175 -0.22225,0.5715 -0.22225,0.22225 -0.5715,0.22225 z"
         style="font-weight:bold;font-family:'Rubik Light';-inkscape-font-specification:'Rubik Light,  Bold'"
         id="path996" />
      <path
         d="m 119.99118,137.94409 q -2.667,0 -4.5085,-0.85725 -1.80975,-0.85725 -2.794,-2.44475 -0.9525,-1.61925 -1.0795,-3.84175 -0.0317,-0.635 -0.0317,-1.42875 0,-0.8255 0.0317,-1.42875 0.127,-2.25425 1.143,-3.84175 1.016,-1.5875 2.82575,-2.44475 1.8415,-0.85725 4.41325,-0.85725 2.6035,0 4.41325,0.85725 1.8415,0.85725 2.8575,2.44475 1.016,1.5875 1.143,3.84175 0.0317,0.60325 0.0317,1.42875 0,0.79375 -0.0317,1.42875 -0.127,2.2225 -1.11125,3.84175 -0.9525,1.5875 -2.794,2.44475 -1.80975,0.85725 -4.5085,0.85725 z m 0,-3.8735 q 1.42875,0 2.06375,-0.85725 0.66675,-0.85725 0.762,-2.57175 0.0318,-0.47625 0.0318,-1.27 0,-0.79375 -0.0318,-1.27 -0.0952,-1.68275 -0.762,-2.54 -0.635,-0.889 -2.06375,-0.889 -1.36525,0 -2.06375,0.889 -0.66675,0.85725 -0.73025,2.54 -0.0318,0.47625 -0.0318,1.27 0,0.79375 0.0318,1.27 0.0635,1.7145 0.73025,2.57175 0.6985,0.85725 2.06375,0.85725 z"
         style="font-weight:bold;font-family:'Rubik Light';-inkscape-font-specification:'Rubik Light,  Bold'"
         id="path998" />
      <path
         d="m 138.37443,137.94409 q -2.06375,0 -3.52425,-0.4445 -1.42875,-0.47625 -2.3495,-1.143 -0.889,-0.66675 -1.3335,-1.36525 -0.4445,-0.73025 -0.47625,-1.27 -0.0318,-0.34925 0.22225,-0.5715 0.254,-0.22225 0.53975,-0.22225 h 3.6195 q 0.0952,0 0.15875,0.0317 0.0952,0.0318 0.1905,0.127 0.41275,0.22225 0.8255,0.5715 0.41275,0.3175 0.9525,0.5715 0.53975,0.254 1.30175,0.254 0.889,0 1.49225,-0.34925 0.60325,-0.381 0.60325,-1.04775 0,-0.508 -0.28575,-0.8255 -0.28575,-0.34925 -1.17475,-0.66675 -0.85725,-0.3175 -2.6035,-0.635 -1.651,-0.381 -2.88925,-0.98425 -1.23825,-0.635 -1.905,-1.61925 -0.66675,-1.016 -0.66675,-2.44475 0,-1.27 0.8255,-2.44475 0.8255,-1.17475 2.413,-1.905 1.5875,-0.762 3.937,-0.762 1.80975,0 3.175,0.4445 1.36525,0.41275 2.286,1.0795 0.92075,0.66675 1.397,1.36525 0.47625,0.6985 0.508,1.27 0.0318,0.3175 -0.1905,0.5715 -0.22225,0.22225 -0.508,0.22225 h -3.302 q -0.127,0 -0.254,-0.0318 -0.127,-0.0635 -0.22225,-0.127 -0.381,-0.1905 -0.762,-0.508 -0.381,-0.3175 -0.889,-0.5715 -0.508,-0.254 -1.27,-0.254 -0.85725,0 -1.3335,0.381 -0.47625,0.381 -0.47625,0.98425 0,0.41275 0.254,0.762 0.28575,0.34925 1.11125,0.635 0.85725,0.28575 2.63525,0.635 2.19075,0.34925 3.4925,1.143 1.30175,0.762 1.8415,1.80975 0.5715,1.016 0.5715,2.159 0,1.524 -0.92075,2.69875 -0.92075,1.17475 -2.69875,1.8415 -1.74625,0.635 -4.318,0.635 z"
         style="font-weight:bold;font-family:'Rubik Light';-inkscape-font-specification:'Rubik Light,  Bold'"
         id="path1000" />
    </g>
  </g>
</svg>
