<?xml version="1.0" encoding="UTF-8" standalone="no"?>
<!-- Created with Inkscape (http://www.inkscape.org/) -->

<svg
   width="600"
   height="600"
   viewBox="0 0 158.75 158.75"
   version="1.1"
   id="svg5"
   inkscape:version="1.2 (dc2aedaf03, 2022-05-15)"
   sodipodi:docname="delete.svg"
   xmlns:inkscape="http://www.inkscape.org/namespaces/inkscape"
   xmlns:sodipodi="http://sodipodi.sourceforge.net/DTD/sodipodi-0.dtd"
   xmlns="http://www.w3.org/2000/svg"
   xmlns:svg="http://www.w3.org/2000/svg">
  <sodipodi:namedview
     id="namedview7"
     pagecolor="#ffffff"
     bordercolor="#111111"
     borderopacity="1"
     inkscape:showpageshadow="0"
     inkscape:pageopacity="0"
     inkscape:pagecheckerboard="1"
     inkscape:deskcolor="#d1d1d1"
     inkscape:document-units="px"
     showgrid="false"
     inkscape:lockguides="true"
     inkscape:zoom="0.2973261"
     inkscape:cx="-553.26457"
     inkscape:cy="366.60084"
     inkscape:window-width="1366"
     inkscape:window-height="697"
     inkscape:window-x="-8"
     inkscape:window-y="-8"
     inkscape:window-maximized="1"
     inkscape:current-layer="layer1" />
  <defs
     id="defs2" />
  <g
     inkscape:label="Capa 1"
     inkscape:groupmode="layer"
     id="layer1">
    <g
       aria-label=""
       id="text1642"
       style="font-size:105.833px;line-height:1.25;word-spacing:0px;fill:#ffffff;stroke-width:0.264583">
      <path
         d="M 70.667547,101.07903 V 69.24645 q 0,-0.620116 -0.41341,-1.033526 -0.361734,-0.41341 -0.981849,-0.41341 h -2.945547 q -0.620115,0 -1.033526,0.41341 -0.41341,0.41341 -0.41341,1.033526 v 31.83258 q 0,0.67179 0.41341,1.0852 0.413411,0.41341 1.033526,0.41341 h 2.945547 q 0.620115,0 0.981849,-0.41341 0.41341,-0.41341 0.41341,-1.0852 z m 11.627161,0 V 69.24645 q 0,-0.620116 -0.41341,-1.033526 -0.41341,-0.41341 -1.085202,-0.41341 h -2.842195 q -0.671791,0 -1.085201,0.41341 -0.41341,0.41341 -0.41341,1.033526 v 31.83258 q 0,0.67179 0.41341,1.0852 0.41341,0.41341 1.085201,0.41341 h 2.842195 q 0.671792,0 1.085202,-0.41341 0.41341,-0.41341 0.41341,-1.0852 z m 11.575485,0 V 69.24645 q 0,-0.620116 -0.413411,-1.033526 -0.41341,-0.41341 -1.033525,-0.41341 h -2.893871 q -0.620115,0 -1.033526,0.41341 -0.41341,0.41341 -0.41341,1.033526 v 31.83258 q 0,0.67179 0.41341,1.0852 0.413411,0.41341 1.033526,0.41341 h 2.893871 q 0.620115,0 1.033525,-0.41341 0.413411,-0.41341 0.413411,-1.0852 z M 69.272288,56.172353 h 20.257098 l -2.170403,-5.270979 q -0.258382,-0.41341 -0.775144,-0.516763 H 72.217836 q -0.465087,0.103353 -0.723468,0.516763 z m 41.961132,1.498612 v 2.893871 q 0,0.620115 -0.41341,1.033526 -0.36173,0.41341 -1.03353,0.41341 h -4.3408 v 42.891308 q 0,3.77236 -2.17041,6.51121 -2.11872,2.68716 -5.064271,2.68716 h -37.672 q -2.997224,0 -5.115951,-2.63549 -2.118727,-2.63549 -2.118727,-6.35618 V 62.011772 h -4.340807 q -0.620115,0 -1.033525,-0.41341 -0.41341,-0.413411 -0.41341,-1.033526 v -2.893871 q 0,-0.671791 0.41341,-1.085202 0.41341,-0.41341 1.033525,-0.41341 h 14.004269 l 3.152253,-7.493059 q 0.671791,-1.65364 2.428784,-2.842195 1.756994,-1.188554 3.617339,-1.188554 h 14.41768 q 1.860345,0 3.617338,1.188554 1.756994,1.188555 2.428785,2.842195 l 3.152253,7.493059 h 14.004265 q 0.6718,0 1.03353,0.41341 0.41341,0.413411 0.41341,1.085202 z"
         id="path2124" />
    </g>
  </g>
</svg>
