<?xml version="1.0" encoding="UTF-8" standalone="no"?>
<!-- Created with Inkscape (http://www.inkscape.org/) -->

<svg
   width="1200"
   height="600"
   viewBox="0 0 317.5 158.75"
   version="1.1"
   id="svg5"
   inkscape:version="1.2 (dc2aedaf03, 2022-05-15)"
   sodipodi:docname="guide.en.svg"
   xmlns:inkscape="http://www.inkscape.org/namespaces/inkscape"
   xmlns:sodipodi="http://sodipodi.sourceforge.net/DTD/sodipodi-0.dtd"
   xmlns="http://www.w3.org/2000/svg"
   xmlns:svg="http://www.w3.org/2000/svg">
  <sodipodi:namedview
     id="namedview7"
     pagecolor="#ffffff"
     bordercolor="#111111"
     borderopacity="1"
     inkscape:showpageshadow="0"
     inkscape:pageopacity="0"
     inkscape:pagecheckerboard="1"
     inkscape:deskcolor="#d1d1d1"
     inkscape:document-units="px"
     showgrid="false"
     inkscape:lockguides="false"
     inkscape:zoom="0.42048261"
     inkscape:cx="613.58067"
     inkscape:cy="330.57253"
     inkscape:window-width="1366"
     inkscape:window-height="697"
     inkscape:window-x="-8"
     inkscape:window-y="-8"
     inkscape:window-maximized="1"
     inkscape:current-layer="layer1" />
  <defs
     id="defs2" />
  <g
     inkscape:label="Capa 1"
     inkscape:groupmode="layer"
     id="layer1">
    <g
       aria-label="Guide"
       id="text2548"
       style="font-size:52.9167px;line-height:1.25;word-spacing:0px;display:inline;fill:#ffffff;stroke-width:0.264583">
      <path
         d="m 149.0662,99.086471 q -5.02708,0 -8.67834,-1.640417 -3.59833,-1.693335 -5.60917,-4.868337 -1.95791,-3.227918 -2.16958,-7.831671 -0.0529,-2.275418 -0.0529,-4.815419 0,-2.592919 0.0529,-4.921253 0.21167,-4.49792 2.2225,-7.620005 2.01083,-3.122085 5.66209,-4.762503 3.65125,-1.640418 8.5725,-1.640418 3.96875,0 7.03792,1.005418 3.06917,0.9525 5.13292,2.592918 2.11667,1.640418 3.22792,3.598335 1.11125,1.957918 1.16417,3.862919 0,0.476251 -0.37042,0.793751 -0.3175,0.3175 -0.79375,0.3175 h -7.72584 q -0.58208,0 -0.89958,-0.15875 -0.26458,-0.211667 -0.47625,-0.582084 -0.37042,-0.79375 -1.11125,-1.640417 -0.68792,-0.899584 -1.95792,-1.534585 -1.21708,-0.635 -3.22792,-0.635 -2.96333,0 -4.70958,1.587501 -1.74626,1.587501 -1.90501,5.080003 -0.15875,4.550836 0,9.207506 0.15875,3.704168 1.95792,5.344586 1.79917,1.640418 4.81542,1.640418 1.95792,0 3.4925,-0.687917 1.5875,-0.687917 2.48709,-2.116668 0.89958,-1.481668 0.89958,-3.757086 v -1.005417 h -4.97417 q -0.58208,0 -0.9525,-0.370417 -0.37041,-0.423334 -0.37041,-1.005417 v -3.915836 q 0,-0.582084 0.37041,-0.952501 0.37042,-0.423333 0.9525,-0.423333 h 13.33501 q 0.58208,0 0.9525,0.423333 0.37042,0.370417 0.37042,0.952501 v 6.032504 q 0,4.550836 -2.06375,7.778754 -2.06375,3.227919 -5.87376,4.97417 -3.75708,1.693334 -8.78417,1.693334 z"
         style="font-weight:bold;font-family:'Rubik Light';-inkscape-font-specification:'Rubik Light,  Bold'"
         id="path8116" />
      <path
         d="m 181.39827,99.086471 q -3.01625,0 -5.3975,-1.375834 -2.32834,-1.375834 -3.65126,-4.021669 -1.32291,-2.698751 -1.32291,-6.56167 V 72.363539 q 0,-0.582084 0.37041,-0.952501 0.37042,-0.370417 0.9525,-0.370417 h 6.61459 q 0.58208,0 0.9525,0.370417 0.42333,0.370417 0.42333,0.952501 v 14.446258 q 0,5.185837 4.60376,5.185837 2.16958,0 3.43958,-1.322918 1.32292,-1.375834 1.32292,-3.862919 V 72.363539 q 0,-0.582084 0.37042,-0.952501 0.37041,-0.370417 0.9525,-0.370417 h 6.61459 q 0.58208,0 0.9525,0.370417 0.37041,0.370417 0.37041,0.952501 v 24.870848 q 0,0.529167 -0.37041,0.9525 -0.37042,0.370417 -0.9525,0.370417 h -6.13834 q -0.52917,0 -0.9525,-0.370417 -0.37042,-0.423333 -0.37042,-0.9525 v -2.010835 q -1.37583,1.905002 -3.59833,2.910419 -2.16959,0.9525 -5.18584,0.9525 z"
         style="font-weight:bold;font-family:'Rubik Light';-inkscape-font-specification:'Rubik Light,  Bold'"
         id="path8118" />
      <path
         d="m 206.53374,98.557304 q -0.58208,0 -0.9525,-0.370417 -0.37042,-0.423333 -0.37042,-0.9525 V 72.363539 q 0,-0.582084 0.37042,-0.952501 0.37042,-0.370417 0.9525,-0.370417 h 6.24417 q 0.58208,0 0.9525,0.370417 0.37042,0.370417 0.37042,0.952501 v 24.870848 q 0,0.529167 -0.37042,0.9525 -0.37042,0.370417 -0.9525,0.370417 z m -0.0529,-31.485435 q -0.58208,0 -0.9525,-0.370417 -0.37041,-0.370417 -0.37041,-0.952501 v -4.762503 q 0,-0.529167 0.37041,-0.899583 0.37042,-0.423334 0.9525,-0.423334 h 6.35001 q 0.52916,0 0.89958,0.423334 0.42333,0.370416 0.42333,0.899583 v 4.762503 q 0,0.582084 -0.42333,0.952501 -0.37042,0.370417 -0.89958,0.370417 z"
         style="font-weight:bold;font-family:'Rubik Light';-inkscape-font-specification:'Rubik Light,  Bold'"
         id="path8120" />
      <path
         d="m 230.6108,99.086471 q -2.54,0 -4.60375,-0.79375 -2.01084,-0.846667 -3.4925,-2.434168 -1.42875,-1.640418 -2.2225,-3.915836 -0.79375,-2.328335 -0.89959,-5.29167 -0.0529,-1.058334 -0.0529,-1.852084 0,-0.846667 0.0529,-1.905001 0.10584,-2.804585 0.89959,-5.080003 0.79375,-2.328335 2.2225,-3.915836 1.42875,-1.640418 3.4925,-2.487085 2.06375,-0.899584 4.60375,-0.899584 2.64584,0 4.55084,0.899584 1.905,0.846667 3.22792,2.222501 V 62.309366 q 0,-0.582084 0.37041,-0.952501 0.37042,-0.370417 0.9525,-0.370417 h 6.45584 q 0.52917,0 0.89959,0.370417 0.42333,0.370417 0.42333,0.952501 v 34.925021 q 0,0.529167 -0.42333,0.9525 -0.37042,0.370417 -0.89959,0.370417 h -5.97959 q -0.58208,0 -0.9525,-0.370417 -0.37041,-0.423333 -0.37041,-0.9525 v -1.693334 q -1.27,1.534584 -3.28084,2.540001 -2.01083,1.005417 -4.97417,1.005417 z m 2.91042,-7.090837 q 1.74625,0 2.75167,-0.740834 1.05833,-0.79375 1.53458,-2.010835 0.52917,-1.217084 0.58209,-2.645834 0.0529,-1.058334 0.0529,-2.010835 0,-0.952501 -0.0529,-1.957918 -0.0529,-1.322917 -0.58209,-2.434168 -0.52916,-1.164167 -1.5875,-1.852084 -1.05833,-0.740834 -2.69875,-0.740834 -1.74625,0 -2.80458,0.740834 -1.00542,0.740833 -1.48167,2.010834 -0.42334,1.270001 -0.52917,2.804585 -0.15875,1.640418 0,3.280835 0.10583,1.534585 0.52917,2.804585 0.47625,1.270001 1.48167,2.010835 1.05833,0.740834 2.80458,0.740834 z"
         style="font-weight:bold;font-family:'Rubik Light';-inkscape-font-specification:'Rubik Light,  Bold'"
         id="path8122" />
      <path
         d="m 266.43544,99.086471 q -6.24418,0 -9.94834,-3.386668 -3.70417,-3.386669 -3.86292,-10.054173 0,-0.370417 0,-0.952501 0,-0.582083 0,-0.899583 0.15875,-4.18042 1.85208,-7.143755 1.74625,-3.016252 4.7625,-4.550836 3.06917,-1.587501 7.14376,-1.587501 4.65667,0 7.67292,1.852085 3.06917,1.852084 4.60375,5.027086 1.53459,3.175002 1.53459,7.249588 v 1.27 q 0,0.582084 -0.37042,0.952501 -0.37042,0.370417 -0.9525,0.370417 h -16.93334 q 0,0.05292 0,0.15875 0,0.105833 0,0.211667 0.0529,1.534584 0.52916,2.804585 0.52917,1.270001 1.48167,2.010834 1.00542,0.740834 2.43417,0.740834 1.05833,0 1.74625,-0.3175 0.74083,-0.370417 1.21708,-0.793751 0.47625,-0.47625 0.74084,-0.79375 0.47625,-0.582084 0.74083,-0.687917 0.3175,-0.15875 0.9525,-0.15875 h 6.56167 q 0.52917,0 0.84667,0.3175 0.37042,0.3175 0.3175,0.846667 -0.0529,0.899584 -0.89958,2.169585 -0.84667,1.270001 -2.48709,2.540001 -1.5875,1.217084 -4.02167,2.010835 -2.43417,0.79375 -5.66208,0.79375 z m -4.49792,-17.092093 h 8.94292 v -0.105834 q 0,-1.746251 -0.52917,-2.963335 -0.47625,-1.270001 -1.53458,-1.957918 -1.00542,-0.687917 -2.43417,-0.687917 -1.37584,0 -2.38125,0.687917 -1.00542,0.687917 -1.53459,1.957918 -0.52916,1.217084 -0.52916,2.963335 z"
         style="font-weight:bold;font-family:'Rubik Light';-inkscape-font-specification:'Rubik Light,  Bold'"
         id="path8124" />
    </g>
    <g
       aria-label=""
       id="text6609"
       style="font-size:118.657px;line-height:1.25;word-spacing:0px;fill:#ffffff;stroke-width:2.96644">
      <path
         d="m 76.941711,107.18523 v 18.54016 q 0,1.27464 -0.927008,2.20164 -0.927008,0.92701 -2.201644,0.92701 H 55.272903 q -1.274635,0 -2.201643,-0.92701 -0.927008,-0.927 -0.927008,-2.20164 v -18.54016 q 0,-1.27463 0.927008,-2.1437 0.927008,-0.92701 2.201643,-0.92701 h 18.540156 q 1.274636,0 2.201644,0.92701 0.927008,0.86907 0.927008,2.1437 z M 101.3336,60.834845 q 0,3.476279 -0.75319,6.546992 -0.695256,3.012776 -2.201644,5.446171 -1.44845,2.375457 -2.896899,4.113597 -1.390512,1.73814 -3.76597,3.476279 -2.375457,1.680202 -3.823907,2.549272 -1.390511,0.811132 -3.881845,2.259581 -3.070713,1.796078 -5.272357,5.098543 -2.143705,3.244527 -2.143705,5.098543 0,1.390512 -0.927008,2.549271 -0.927008,1.15876 -2.201644,1.15876 H 54.925276 q -1.15876,0 -1.969892,-1.44845 -0.811132,-1.448449 -0.811132,-2.838961 v -3.476279 q 0,-3.302465 1.506388,-6.662869 1.564326,-3.360403 3.997721,-5.909674 2.491333,-2.60721 5.214419,-4.635039 2.723085,-2.02783 5.388233,-3.244528 4.635039,-2.143705 6.489054,-4.345349 1.911954,-2.259581 1.911954,-5.909674 0,-3.244528 -3.592155,-5.677923 -3.592156,-2.491333 -8.285133,-2.491333 -5.040604,0 -8.34307,2.259581 -2.954837,2.085768 -8.34307,8.806574 -1.042884,1.332574 -2.317519,1.332574 -1.100822,0 -1.969892,-0.637318 L 31.112763,54.577542 Q 30.185755,53.824348 29.954003,52.723526 29.722251,51.564767 30.417507,50.463945 42.70036,29.89596 66.223183,29.89596 q 8.34307,0 16.39645,3.997721 8.053381,3.939783 13.383675,11.182031 5.330292,7.242249 5.330292,15.759133 z"
         id="path7796" />
    </g>
  </g>
</svg>
