<?xml version="1.0" encoding="UTF-8" standalone="no"?>
<!-- Created with Inkscape (http://www.inkscape.org/) -->

<svg
   width="1200"
   height="600"
   viewBox="0 0 317.5 158.75"
   version="1.1"
   id="svg5"
   inkscape:version="1.2 (dc2aedaf03, 2022-05-15)"
   sodipodi:docname="guide.svg"
   xmlns:inkscape="http://www.inkscape.org/namespaces/inkscape"
   xmlns:sodipodi="http://sodipodi.sourceforge.net/DTD/sodipodi-0.dtd"
   xmlns="http://www.w3.org/2000/svg"
   xmlns:svg="http://www.w3.org/2000/svg">
  <sodipodi:namedview
     id="namedview7"
     pagecolor="#ffffff"
     bordercolor="#111111"
     borderopacity="1"
     inkscape:showpageshadow="0"
     inkscape:pageopacity="0"
     inkscape:pagecheckerboard="1"
     inkscape:deskcolor="#d1d1d1"
     inkscape:document-units="px"
     showgrid="false"
     inkscape:lockguides="false"
     inkscape:zoom="0.42048261"
     inkscape:cx="532.7212"
     inkscape:cy="330.57253"
     inkscape:window-width="1366"
     inkscape:window-height="697"
     inkscape:window-x="-8"
     inkscape:window-y="-8"
     inkscape:window-maximized="1"
     inkscape:current-layer="layer1" />
  <defs
     id="defs2" />
  <g
     inkscape:label="Capa 1"
     inkscape:groupmode="layer"
     id="layer1">
    <text
       xml:space="preserve"
       style="font-size:52.9167px;line-height:1.25;font-family:sans-serif;word-spacing:0px;display:none;fill:#ffffff;stroke-width:0.264583"
       x="145.25626"
       y="98.954178"
       id="text2548"
       sodipodi:insensitive="true"><tspan
         sodipodi:role="line"
         id="tspan2546"
         x="0"
         y="0"
         style="font-style:normal;font-variant:normal;font-weight:bold;font-stretch:normal;font-size:52.9167px;font-family:'Rubik Light';-inkscape-font-specification:'Rubik Light,  Bold';fill:#ffffff;stroke-width:0.264583">Guía</tspan></text>
    <g
       id="g7955">
      <g
         aria-label=""
         id="text6609"
         style="font-size:118.657px;line-height:1.25;word-spacing:0px;fill:#ffffff;stroke-width:2.96644">
        <path
           d="m 76.941711,107.18523 v 18.54016 q 0,1.27464 -0.927008,2.20164 -0.927008,0.92701 -2.201644,0.92701 H 55.272903 q -1.274635,0 -2.201643,-0.92701 -0.927008,-0.927 -0.927008,-2.20164 v -18.54016 q 0,-1.27463 0.927008,-2.1437 0.927008,-0.92701 2.201643,-0.92701 h 18.540156 q 1.274636,0 2.201644,0.92701 0.927008,0.86907 0.927008,2.1437 z M 101.3336,60.834845 q 0,3.476279 -0.75319,6.546992 -0.695256,3.012776 -2.201644,5.446171 -1.44845,2.375457 -2.896899,4.113597 -1.390512,1.73814 -3.76597,3.476279 -2.375457,1.680202 -3.823907,2.549272 -1.390511,0.811132 -3.881845,2.259581 -3.070713,1.796078 -5.272357,5.098543 -2.143705,3.244527 -2.143705,5.098543 0,1.390512 -0.927008,2.549271 -0.927008,1.15876 -2.201644,1.15876 H 54.925276 q -1.15876,0 -1.969892,-1.44845 -0.811132,-1.448449 -0.811132,-2.838961 v -3.476279 q 0,-3.302465 1.506388,-6.662869 1.564326,-3.360403 3.997721,-5.909674 2.491333,-2.60721 5.214419,-4.635039 2.723085,-2.02783 5.388233,-3.244528 4.635039,-2.143705 6.489054,-4.345349 1.911954,-2.259581 1.911954,-5.909674 0,-3.244528 -3.592155,-5.677923 -3.592156,-2.491333 -8.285133,-2.491333 -5.040604,0 -8.34307,2.259581 -2.954837,2.085768 -8.34307,8.806574 -1.042884,1.332574 -2.317519,1.332574 -1.100822,0 -1.969892,-0.637318 L 31.112763,54.577542 Q 30.185755,53.824348 29.954003,52.723526 29.722251,51.564767 30.417507,50.463945 42.70036,29.89596 66.223183,29.89596 q 8.34307,0 16.39645,3.997721 8.053381,3.939783 13.383675,11.182031 5.330292,7.242249 5.330292,15.759133 z"
           id="path7950" />
      </g>
    </g>
    <g
       aria-label="Guía"
       id="text7764"
       style="font-size:52.9167px;line-height:1.25;word-spacing:0px;display:inline;fill:#ffffff;stroke-width:0.264583">
      <path
         d="m 164.25335,99.483345 q -5.02709,0 -8.67834,-1.640418 -3.59833,-1.693334 -5.60917,-4.868336 -1.95792,-3.227919 -2.16958,-7.831671 -0.0529,-2.275418 -0.0529,-4.81542 0,-2.592918 0.0529,-4.921253 0.21166,-4.497919 2.2225,-7.620005 2.01083,-3.122085 5.66209,-4.762502 3.65125,-1.640418 8.5725,-1.640418 3.96875,0 7.03792,1.005417 3.06917,0.952501 5.13292,2.592918 2.11667,1.640418 3.22792,3.598336 1.11125,1.957918 1.16417,3.862919 0,0.47625 -0.37042,0.79375 -0.3175,0.317501 -0.79375,0.317501 h -7.72584 q -0.58208,0 -0.89958,-0.15875 -0.26459,-0.211667 -0.47625,-0.582084 -0.37042,-0.793751 -1.11125,-1.640418 -0.68792,-0.899584 -1.95792,-1.534584 -1.21708,-0.635 -3.22792,-0.635 -2.96333,0 -4.70959,1.5875 -1.74625,1.587501 -1.905,5.080004 -0.15875,4.550836 0,9.207505 0.15875,3.704169 1.95792,5.344587 1.79917,1.640417 4.81542,1.640417 1.95792,0 3.4925,-0.687917 1.5875,-0.687917 2.48709,-2.116668 0.89958,-1.481667 0.89958,-3.757085 v -1.005418 h -4.97417 q -0.58208,0 -0.9525,-0.370417 -0.37042,-0.423333 -0.37042,-1.005417 v -3.915835 q 0,-0.582084 0.37042,-0.952501 0.37042,-0.423334 0.9525,-0.423334 h 13.33501 q 0.58208,0 0.9525,0.423334 0.37042,0.370417 0.37042,0.952501 v 6.032503 q 0,4.550836 -2.06375,7.778755 -2.06375,3.227918 -5.87376,4.974169 -3.75708,1.693335 -8.78417,1.693335 z"
         style="font-weight:bold;font-family:'Rubik Light';-inkscape-font-specification:'Rubik Light,  Bold'"
         id="path7766" />
      <path
         d="m 196.58542,99.483345 q -3.01625,0 -5.39751,-1.375834 -2.32833,-1.375834 -3.65125,-4.021669 -1.32292,-2.698752 -1.32292,-6.561671 V 72.760412 q 0,-0.582084 0.37042,-0.9525 0.37042,-0.370417 0.9525,-0.370417 h 6.61459 q 0.58208,0 0.9525,0.370417 0.42333,0.370416 0.42333,0.9525 v 14.446259 q 0,5.185836 4.60376,5.185836 2.16958,0 3.43958,-1.322917 1.32292,-1.375834 1.32292,-3.862919 V 72.760412 q 0,-0.582084 0.37042,-0.9525 0.37041,-0.370417 0.9525,-0.370417 h 6.61458 q 0.58209,0 0.9525,0.370417 0.37042,0.370416 0.37042,0.9525 V 97.63126 q 0,0.529167 -0.37042,0.952501 -0.37041,0.370417 -0.9525,0.370417 h -6.13833 q -0.52917,0 -0.9525,-0.370417 -0.37042,-0.423334 -0.37042,-0.952501 v -2.010834 q -1.37583,1.905001 -3.59834,2.910418 -2.16958,0.952501 -5.18583,0.952501 z"
         style="font-weight:bold;font-family:'Rubik Light';-inkscape-font-specification:'Rubik Light,  Bold'"
         id="path7768" />
      <path
         d="m 221.72089,98.954178 q -0.58208,0 -0.9525,-0.370417 -0.37042,-0.423334 -0.37042,-0.952501 V 72.760412 q 0,-0.582084 0.37042,-0.9525 0.37042,-0.370417 0.9525,-0.370417 h 6.24417 q 0.58208,0 0.9525,0.370417 0.37042,0.370416 0.37042,0.9525 V 97.63126 q 0,0.529167 -0.37042,0.952501 -0.37042,0.370417 -0.9525,0.370417 z m 0.0529,-31.485436 q -0.84667,0 -0.84667,-0.846667 0,-0.423333 0.26458,-0.687917 l 4.65667,-5.662087 q 0.52917,-0.635 0.89959,-0.79375 0.37041,-0.211667 1.05833,-0.211667 h 6.985 q 1.00542,0 1.00542,1.058334 0,0.370417 -0.26458,0.635 l -7.03792,5.76792 q -0.42334,0.370417 -0.84667,0.582084 -0.42333,0.15875 -1.16417,0.15875 z"
         style="font-weight:bold;font-family:'Rubik Light';-inkscape-font-specification:'Rubik Light,  Bold'"
         id="path7770" />
      <path
         d="m 243.78712,99.483345 q -2.8575,0 -5.13292,-1.058334 -2.2225,-1.111251 -3.54542,-2.963335 -1.32292,-1.852085 -1.32292,-4.180419 0,-3.757086 3.06917,-5.926671 3.06917,-2.222501 8.14917,-3.016251 l 6.61459,-1.005418 v -0.740834 q 0,-1.905001 -0.79375,-2.910418 -0.79375,-1.005417 -2.91042,-1.005417 -1.48167,0 -2.43417,0.582083 -0.89958,0.582084 -1.42875,1.587501 -0.47625,0.687918 -1.32292,0.687918 h -5.92667 q -0.58208,0 -0.89958,-0.317501 -0.3175,-0.370417 -0.26458,-0.846667 0,-0.9525 0.68791,-2.169584 0.74084,-1.270001 2.2225,-2.487085 1.48167,-1.217084 3.81001,-2.010835 2.32833,-0.79375 5.66208,-0.79375 3.38667,0 5.82084,0.79375 2.43417,0.793751 3.96875,2.222501 1.53459,1.428751 2.2225,3.386669 0.74084,1.905001 0.74084,4.233336 V 97.63126 q 0,0.529167 -0.42334,0.952501 -0.37041,0.370417 -0.89958,0.370417 h -6.13834 q -0.58208,0 -0.9525,-0.370417 -0.37042,-0.423334 -0.37042,-0.952501 v -1.852084 q -0.68791,1.005417 -1.85208,1.852084 -1.16417,0.846668 -2.75167,1.322918 -1.53458,0.529167 -3.59833,0.529167 z m 2.48708,-6.032504 q 1.53459,0 2.75167,-0.635 1.27,-0.687917 1.95792,-2.063751 0.74083,-1.428751 0.74083,-3.545419 v -0.740834 l -4.49792,0.79375 q -2.48708,0.423334 -3.65125,1.322918 -1.11125,0.846667 -1.11125,2.010835 0,0.899583 0.52917,1.534584 0.52916,0.635 1.37583,1.005417 0.89958,0.3175 1.905,0.3175 z"
         style="font-weight:bold;font-family:'Rubik Light';-inkscape-font-specification:'Rubik Light,  Bold'"
         id="path7772" />
    </g>
  </g>
</svg>
