<?xml version="1.0" encoding="UTF-8" standalone="no"?>
<!-- Created with Inkscape (http://www.inkscape.org/) -->

<svg
   width="1000"
   height="600"
   viewBox="0 0 264.58333 158.75"
   version="1.1"
   id="svg5"
   xmlns="http://www.w3.org/2000/svg"
   xmlns:svg="http://www.w3.org/2000/svg">
  <defs
     id="defs2" />
  <g
     id="layer1">
    <g
       id="g2493"
       transform="matrix(5.4687503,0,0,5.4687503,33.072917,33.072917)">
      <g
         id="g369"
         transform="translate(0,6.2119417)">
        <g
           aria-label="Ultimo en Pie"
           id="text465"
           style="font-size:6.96686px;line-height:1.25;word-spacing:0px;display:none;fill:#ffffff;stroke-width:0.0483809">
          <path
             d="m -0.36808574,7.3437924 v 3.4416286 c 0,0.613084 -0.31350869,0.905692 -0.96839356,0.905692 -0.6548848,0 -0.9683935,-0.292608 -0.9683935,-0.905692 V 7.3437924 h -1.0450289 v 3.4416286 c 0,0.571283 0.1532709,0.97536 0.494647,1.281902 0.3692436,0.33441 0.9056918,0.515548 1.5187754,0.515548 0.61308371,0 1.14953192,-0.181138 1.51877549,-0.515548 0.34137613,-0.306542 0.49464704,-0.710619 0.49464704,-1.281902 V 7.3437924 Z"
             style="font-weight:bold;font-family:'Rubik Light';-inkscape-font-specification:'Rubik Light,  Bold'"
             id="path6524" />
          <path
             d="M 2.5928305,7.3437924 H 1.6174702 v 5.0788406 h 0.9753603 z"
             style="font-weight:bold;font-family:'Rubik Light';-inkscape-font-specification:'Rubik Light,  Bold'"
             id="path6526" />
          <path
             d="M 5.1845015,8.7371643 H 4.6410865 V 7.7269697 H 3.6657261 V 8.7371643 H 3.1850128 v 0.647918 H 3.6657261 V 11.69808 c 0,0.592183 0.3135087,0.884791 0.9544598,0.884791 0.2229395,0 0.3831773,-0.0209 0.5643156,-0.07664 v -0.682752 c -0.097536,0.01393 -0.146304,0.0209 -0.2229395,0.0209 -0.2577738,0 -0.3204755,-0.07664 -0.3204755,-0.411045 V 9.3850823 h 0.543415 z"
             style="font-weight:bold;font-family:'Rubik Light';-inkscape-font-specification:'Rubik Light,  Bold'"
             id="path6528" />
          <path
             d="M 6.8356432,8.6605289 H 5.8602828 v 3.7621041 h 0.9753604 z m 0,-1.3167365 H 5.8602828 v 0.8708574 h 0.9753604 z"
             style="font-weight:bold;font-family:'Rubik Light';-inkscape-font-specification:'Rubik Light,  Bold'"
             id="path6530" />
          <path
             d="m 7.7483005,8.6605289 v 3.7621041 h 0.9753604 v -2.257262 c 0,-0.46678 0.2508069,-0.7384876 0.6688185,-0.7384876 0.3274424,0 0.5294813,0.1881053 0.5294813,0.4876802 v 2.5080694 h 0.9753603 v -2.257262 c 0,-0.4598132 0.250807,-0.7384876 0.668819,-0.7384876 0.327442,0 0.529481,0.1881053 0.529481,0.4876802 v 2.5080694 h 0.97536 V 9.7612927 c 0,-0.7315203 -0.445879,-1.1634656 -1.1983,-1.1634656 -0.480713,0 -0.808155,0.1672047 -1.100763,0.5573488 -0.181139,-0.3553098 -0.557349,-0.5573488 -1.0241288,-0.5573488 -0.4319453,0 -0.7106197,0.1393372 -1.0310952,0.5294814 V 8.6605289 Z"
             style="font-weight:bold;font-family:'Rubik Light';-inkscape-font-specification:'Rubik Light,  Bold'"
             id="path6532" />
          <path
             d="m 15.620851,8.5978271 c -1.149531,0 -1.853184,0.7593878 -1.853184,1.9925219 0,1.240101 0.703653,1.992522 1.860151,1.992522 1.149532,0 1.860152,-0.752421 1.860152,-1.964655 0,-1.2749349 -0.689719,-2.0203889 -1.867119,-2.0203889 z m 0.007,0.7872552 c 0.536448,0 0.884791,0.4807133 0.884791,1.2192007 0,0.703653 -0.362276,1.191333 -0.884791,1.191333 -0.529481,0 -0.884791,-0.480714 -0.884791,-1.205267 0,-0.7245534 0.35531,-1.2052667 0.884791,-1.2052667 z"
             style="font-weight:bold;font-family:'Rubik Light';-inkscape-font-specification:'Rubik Light,  Bold'"
             id="path6534" />
          <path
             d="m 23.368,10.848123 c 0.007,-0.0836 0.007,-0.118437 0.007,-0.167205 0,-0.37621 -0.05574,-0.7245532 -0.146304,-0.9892939 -0.250807,-0.6827522 -0.856924,-1.093797 -1.616312,-1.093797 -1.079863,0 -1.741715,0.7802883 -1.741715,2.0412899 0,1.205267 0.654885,1.943754 1.720815,1.943754 0.84299,0 1.525742,-0.473747 1.741715,-1.219201 h -0.961427 c -0.118437,0.299575 -0.390144,0.473747 -0.745454,0.473747 -0.278675,0 -0.501614,-0.118437 -0.640951,-0.327442 -0.09057,-0.139338 -0.125404,-0.306542 -0.139337,-0.661852 z m -2.50807,-0.647918 c 0.0627,-0.5782495 0.306542,-0.8569239 0.738487,-0.8569239 0.445879,0 0.71062,0.299575 0.759388,0.8569239 z"
             style="font-weight:bold;font-family:'Rubik Light';-inkscape-font-specification:'Rubik Light,  Bold'"
             id="path6536" />
          <path
             d="m 24.029849,8.6605289 v 3.7621041 h 0.97536 v -2.257262 c 0,-0.4458794 0.306542,-0.7384876 0.787255,-0.7384876 0.418012,0 0.627018,0.2299064 0.627018,0.6757856 v 2.319964 h 0.97536 V 9.9006299 c 0,-0.8360232 -0.452846,-1.3028028 -1.261002,-1.3028028 -0.50858,0 -0.849956,0.1811384 -1.128631,0.6061168 v -0.543415 z"
             style="font-weight:bold;font-family:'Rubik Light';-inkscape-font-specification:'Rubik Light,  Bold'"
             id="path6538" />
          <path
             d="m 31.358984,10.61125 h 1.302803 c 0.933559,0 1.532709,-0.6618521 1.532709,-1.6929473 0,-1.0171616 -0.57825,-1.5745103 -1.637212,-1.5745103 h -2.243329 v 5.0788406 h 1.045029 z m 0,-0.8708579 V 8.2146498 h 0.97536 c 0.557349,0 0.815123,0.2438401 0.815123,0.7593878 0,0.5225144 -0.257774,0.7663545 -0.815123,0.7663545 z"
             style="font-weight:bold;font-family:'Rubik Light';-inkscape-font-specification:'Rubik Light,  Bold'"
             id="path6540" />
          <path
             d="m 35.789914,8.6605289 h -0.97536 v 3.7621041 h 0.97536 z m 0,-1.3167365 h -0.97536 v 0.8708574 h 0.97536 z"
             style="font-weight:bold;font-family:'Rubik Light';-inkscape-font-specification:'Rubik Light,  Bold'"
             id="path6542" />
          <path
             d="m 39.935192,10.848123 c 0.007,-0.0836 0.007,-0.118437 0.007,-0.167205 0,-0.37621 -0.05573,-0.7245532 -0.146304,-0.9892939 -0.250807,-0.6827522 -0.856924,-1.093797 -1.616312,-1.093797 -1.079863,0 -1.741715,0.7802883 -1.741715,2.0412899 0,1.205267 0.654885,1.943754 1.720815,1.943754 0.84299,0 1.525742,-0.473747 1.741715,-1.219201 h -0.961427 c -0.118437,0.299575 -0.390144,0.473747 -0.745454,0.473747 -0.278674,0 -0.501614,-0.118437 -0.640951,-0.327442 -0.09057,-0.139338 -0.125404,-0.306542 -0.139337,-0.661852 z m -2.50807,-0.647918 c 0.0627,-0.5782495 0.306542,-0.8569239 0.738487,-0.8569239 0.44588,0 0.71062,0.299575 0.759388,0.8569239 z"
             style="font-weight:bold;font-family:'Rubik Light';-inkscape-font-specification:'Rubik Light,  Bold'"
             id="path6544" />
        </g>
        <g
           aria-label="Last Standing"
           id="text6414"
           style="font-size:6.96686px;line-height:1.25;word-spacing:0px;display:inline;fill:#ffffff;stroke-width:0.0483809">
          <path
             d="m -3.3185469,7.3437924 h -1.045029 v 5.0788406 h 3.47646307 V 11.551776 H -3.3185469 Z"
             style="font-weight:bold;font-family:'Rubik Light';-inkscape-font-specification:'Rubik Light,  Bold'"
             id="path6587" />
          <path
             d="M 3.0352295,12.304197 C 2.8680248,12.143959 2.8122899,12.032489 2.8122899,11.844384 V 9.7543259 c 0,-0.7663546 -0.5225144,-1.1564988 -1.539676,-1.1564988 -1.01716151,0 -1.54664285,0.4319453 -1.60934459,1.3028028 H 0.60379539 C 0.6525634,9.5104858 0.81280118,9.3850823 1.2935145,9.3850823 c 0.3762104,0 0.5643157,0.1254035 0.5643157,0.3762104 0,0.1254035 -0.062702,0.2299064 -0.1672047,0.2926083 -0.1323703,0.06967 -0.1323703,0.06967 -0.6130836,0.146304 l -0.3901442,0.06967 c -0.745454,0.125404 -1.10773071,0.508581 -1.10773071,1.184367 0,0.675785 0.45284589,1.128631 1.14256501,1.128631 0.4180116,0 0.794222,-0.174172 1.142565,-0.536448 0,0.195072 0.020901,0.26474 0.1114698,0.37621 H 3.0352295 Z M 1.8578302,10.910825 c 0,0.564315 -0.2786744,0.884791 -0.7733215,0.884791 -0.3274424,0 -0.52948133,-0.174172 -0.52948133,-0.452846 0,-0.292608 0.15327091,-0.431945 0.55734883,-0.515548 l 0.3344092,-0.0627 c 0.2577738,-0.04877 0.299575,-0.0627 0.4110448,-0.118437 z"
             style="font-weight:bold;font-family:'Rubik Light';-inkscape-font-specification:'Rubik Light,  Bold'"
             id="path6589" />
          <path
             d="M 6.7624921,9.8727625 C 6.7485584,9.0785405 6.1354747,8.5978271 5.12528,8.5978271 c -0.9544598,0 -1.5466428,0.4807134 -1.5466428,1.2540348 0,0.2508071 0.076635,0.4667801 0.2090058,0.6130841 0.1323703,0.13237 0.2508069,0.195072 0.6130836,0.313508 l 1.1634656,0.362277 c 0.2438401,0.07663 0.3274424,0.153271 0.3274424,0.306542 0,0.229906 -0.2717075,0.369243 -0.7245534,0.369243 -0.2577738,0 -0.4528459,-0.0418 -0.5782494,-0.13237 -0.1045029,-0.07663 -0.146304,-0.153271 -0.1881052,-0.35531 H 3.4462668 c 0.027867,0.829056 0.6339843,1.254035 1.7765493,1.254035 0.5225145,0 0.9196255,-0.11147 1.1982999,-0.334409 0.2786744,-0.22294 0.445879,-0.571283 0.445879,-0.940526 0,-0.487681 -0.2438401,-0.801189 -0.7384871,-0.947493 L 4.8953737,10.005133 C 4.6236661,9.9215305 4.5539975,9.8657956 4.5539975,9.7125247 c 0,-0.2090058 0.2229395,-0.348343 0.5643157,-0.348343 0.4667796,0 0.696686,0.1672046 0.7036528,0.5085808 z"
             style="font-weight:bold;font-family:'Rubik Light';-inkscape-font-specification:'Rubik Light,  Bold'"
             id="path6591" />
          <path
             d="M 9.2078623,8.7371643 H 8.6644472 V 7.7269697 H 7.6890868 V 8.7371643 H 7.2083735 v 0.647918 H 7.6890868 V 11.69808 c 0,0.592183 0.3135087,0.884791 0.9544598,0.884791 0.2229395,0 0.3831773,-0.0209 0.5643157,-0.07664 v -0.682752 c -0.097536,0.01393 -0.1463041,0.0209 -0.2229395,0.0209 -0.2577739,0 -0.3204756,-0.07664 -0.3204756,-0.411045 V 9.3850823 h 0.5434151 z"
             style="font-weight:bold;font-family:'Rubik Light';-inkscape-font-specification:'Rubik Light,  Bold'"
             id="path6593" />
          <path
             d="M 15.596472,8.8904352 C 15.589506,7.8384394 14.885853,7.26019 13.603951,7.26019 c -1.219201,0 -1.922854,0.5712826 -1.922854,1.5605766 0,0.7872552 0.397111,1.1704325 1.428206,1.3655044 l 0.71062,0.139337 c 0.696686,0.132371 0.95446,0.327443 0.95446,0.738488 0,0.424978 -0.390144,0.682752 -1.024128,0.682752 -0.71062,0 -1.107731,-0.299575 -1.142565,-0.84299 h -1.017162 c 0.0627,1.08683 0.808156,1.679013 2.103992,1.679013 1.309769,0 2.083091,-0.606117 2.083091,-1.644179 0,-0.801189 -0.404078,-1.2192004 -1.344604,-1.4003388 L 13.638785,9.3850823 C 12.893331,9.2387782 12.677358,9.0924742 12.677358,8.7232306 c 0,-0.3831773 0.334409,-0.6270174 0.877825,-0.6270174 0.661851,0 1.031095,0.2786744 1.065929,0.794222 z"
             style="font-weight:bold;font-family:'Rubik Light';-inkscape-font-specification:'Rubik Light,  Bold'"
             id="path6595" />
          <path
             d="M 18.111508,8.7371643 H 17.568093 V 7.7269697 h -0.975361 v 1.0101946 h -0.480713 v 0.647918 h 0.480713 V 11.69808 c 0,0.592183 0.313509,0.884791 0.95446,0.884791 0.22294,0 0.383177,-0.0209 0.564316,-0.07664 v -0.682752 c -0.09754,0.01393 -0.146304,0.0209 -0.22294,0.0209 -0.257774,0 -0.320475,-0.07664 -0.320475,-0.411045 V 9.3850823 h 0.543415 z"
             style="font-weight:bold;font-family:'Rubik Light';-inkscape-font-specification:'Rubik Light,  Bold'"
             id="path6597" />
          <path
             d="m 22.019913,12.304197 c -0.167205,-0.160238 -0.22294,-0.271708 -0.22294,-0.459813 V 9.7543259 c 0,-0.7663546 -0.522514,-1.1564988 -1.539676,-1.1564988 -1.017161,0 -1.546642,0.4319453 -1.609344,1.3028028 h 0.940526 c 0.04877,-0.3901441 0.209006,-0.5155476 0.689719,-0.5155476 0.37621,0 0.564316,0.1254035 0.564316,0.3762104 0,0.1254035 -0.0627,0.2299064 -0.167205,0.2926083 -0.13237,0.06967 -0.13237,0.06967 -0.613084,0.146304 l -0.390144,0.06967 c -0.745454,0.125404 -1.10773,0.508581 -1.10773,1.184367 0,0.675785 0.452845,1.128631 1.142565,1.128631 0.418011,0 0.794222,-0.174172 1.142565,-0.536448 0,0.195072 0.0209,0.26474 0.111469,0.37621 h 1.058963 z m -1.177399,-1.393372 c 0,0.564315 -0.278675,0.884791 -0.773322,0.884791 -0.327442,0 -0.529481,-0.174172 -0.529481,-0.452846 0,-0.292608 0.153271,-0.431945 0.557349,-0.515548 l 0.334409,-0.0627 c 0.257774,-0.04877 0.299575,-0.0627 0.411045,-0.118437 z"
             style="font-weight:bold;font-family:'Rubik Light';-inkscape-font-specification:'Rubik Light,  Bold'"
             id="path6599" />
          <path
             d="m 22.681762,8.6605289 v 3.7621041 h 0.97536 v -2.257262 c 0,-0.4458794 0.306542,-0.7384876 0.787256,-0.7384876 0.418011,0 0.627017,0.2299064 0.627017,0.6757856 v 2.319964 h 0.97536 V 9.9006299 c 0,-0.8360232 -0.452846,-1.3028028 -1.261001,-1.3028028 -0.508581,0 -0.849957,0.1811384 -1.128632,0.6061168 v -0.543415 z"
             style="font-weight:bold;font-family:'Rubik Light';-inkscape-font-specification:'Rubik Light,  Bold'"
             id="path6601" />
          <path
             d="m 29.32118,12.422633 h 0.97536 V 7.3437924 h -0.97536 v 1.8044167 c -0.24384,-0.3762105 -0.564316,-0.550382 -1.038062,-0.550382 -0.898725,0 -1.581477,0.8638906 -1.581477,1.9994889 0,0.508581 0.153271,1.024128 0.404078,1.386405 0.257773,0.369244 0.717586,0.59915 1.177399,0.59915 0.473746,0 0.794222,-0.167205 1.038062,-0.543415 z M 28.499091,9.4129497 c 0.494647,0 0.822089,0.4737465 0.822089,1.1983003 0,0.682752 -0.334409,1.156498 -0.822089,1.156498 -0.487681,0 -0.82209,-0.480713 -0.82209,-1.170432 0,-0.7036529 0.334409,-1.1843663 0.82209,-1.1843663 z"
             style="font-weight:bold;font-family:'Rubik Light';-inkscape-font-specification:'Rubik Light,  Bold'"
             id="path6603" />
          <path
             d="m 32.198492,8.6605289 h -0.97536 v 3.7621041 h 0.97536 z m 0,-1.3167365 h -0.97536 v 0.8708574 h 0.97536 z"
             style="font-weight:bold;font-family:'Rubik Light';-inkscape-font-specification:'Rubik Light,  Bold'"
             id="path6605" />
          <path
             d="m 33.132051,8.6605289 v 3.7621041 h 0.97536 v -2.257262 c 0,-0.4458794 0.306542,-0.7384876 0.787255,-0.7384876 0.418012,0 0.627018,0.2299064 0.627018,0.6757856 v 2.319964 h 0.97536 V 9.9006299 c 0,-0.8360232 -0.452846,-1.3028028 -1.261002,-1.3028028 -0.50858,0 -0.849956,0.1811384 -1.128631,0.6061168 v -0.543415 z"
             style="font-weight:bold;font-family:'Rubik Light';-inkscape-font-specification:'Rubik Light,  Bold'"
             id="path6607" />
          <path
             d="M 39.722696,8.6605289 V 9.2387782 C 39.450988,8.7998661 39.151413,8.5978271 38.754302,8.5978271 c -0.334409,0 -0.703653,0.1672047 -0.961427,0.4389122 -0.37621,0.3901441 -0.571282,0.9335592 -0.571282,1.5954107 0,1.156499 0.613084,1.950721 1.511809,1.950721 0.404077,0 0.647918,-0.13237 0.989294,-0.543415 v 0.508581 c 0,0.452846 -0.320476,0.766354 -0.780289,0.766354 -0.348343,0 -0.564315,-0.153271 -0.640951,-0.438912 h -1.003228 c 0.007,0.292608 0.11147,0.494647 0.369244,0.703653 0.299575,0.24384 0.71062,0.362277 1.240101,0.362277 1.08683,0 1.741715,-0.522515 1.741715,-1.393372 V 8.6605289 Z M 38.93544,9.4129497 c 0.459813,0 0.801189,0.5085808 0.801189,1.2052663 0,0.682753 -0.327442,1.149532 -0.815122,1.149532 -0.424979,0 -0.724554,-0.466779 -0.724554,-1.149532 0,-0.7106192 0.299575,-1.2052663 0.738487,-1.2052663 z"
             style="font-weight:bold;font-family:'Rubik Light';-inkscape-font-specification:'Rubik Light,  Bold'"
             id="path6609" />
        </g>
        <g
           aria-label="󰚌"
           id="text2777"
           style="font-size:16.2989px;font-family:'UbuntuMono NF';-inkscape-font-specification:'UbuntuMono NF';display:inline;fill:#ffffff;stroke-width:0.0407472">
          <path
             d="m 18.142856,-8.8093178 q -1.662488,0 -3.064193,0.814945 -1.385407,0.8149451 -2.216651,2.2329494 -0.831244,1.4017055 -0.831244,3.0641933 0,1.5320967 0.733451,2.86860655 0.73345,1.33650985 1.972167,2.20035155 v 2.3796395 h 1.369108 V 2.7140049 h 1.369107 v 2.0373626 h 1.33651 V 2.7140049 h 1.369108 v 2.0373626 h 1.369107 V 2.371728 q 1.238717,-0.8638417 1.972167,-2.21665045 0.733451,-1.35280875 0.733451,-2.85230765 0,-1.6624878 -0.831244,-3.0641933 -0.831244,-1.4180043 -2.232949,-2.2329494 -1.385407,-0.814945 -3.047895,-0.814945 z m -2.705617,6.1120877 q 0.537863,0 0.929037,0.4074726 0.407472,0.3911736 0.407472,0.9453362 0,0.55416261 -0.407472,0.96163513 -0.391174,0.39117361 -0.945336,0.39117361 -0.554163,0 -0.961635,-0.39117361 -0.391174,-0.40747252 -0.391174,-0.96163513 0,-0.5541626 0.391174,-0.9453362 0.407472,-0.4074726 0.977934,-0.4074726 z m 5.411235,0 q 0.570461,0 0.961635,0.4074726 0.407472,0.3911736 0.407472,0.9453362 0,0.55416261 -0.407472,0.96163513 -0.391174,0.39117361 -0.945336,0.39117361 -0.554163,0 -0.961636,-0.39117361 -0.391173,-0.40747252 -0.391173,-0.96163513 0,-0.5541626 0.391173,-0.9453362 0.407473,-0.4074726 0.945337,-0.4074726 z m -2.705618,2.03736262 1.010532,2.03736258 h -2.021064 z"
             id="path6409" />
        </g>
        <text
           xml:space="preserve"
           style="font-size:6.96686px;line-height:1.25;font-family:sans-serif;word-spacing:0px;display:none;fill:#ffffff;stroke-width:0.0483809"
           x="-3.8793831"
           y="12.422633"
           id="text6420"><tspan
             id="tspan6418"
             x="0"
             y="0"
             style="font-style:normal;font-variant:normal;font-weight:bold;font-stretch:normal;font-size:6.96686px;font-family:'Rubik Light';-inkscape-font-specification:'Rubik Light,  Bold';fill:#ffffff;stroke-width:0.0483809">Ultimo en pie</tspan></text>
      </g>
    </g>
  </g>
</svg>
