<?xml version="1.0" encoding="UTF-8" standalone="no"?>
<!-- Created with Inkscape (http://www.inkscape.org/) -->

<svg
   width="1000"
   height="600"
   viewBox="0 0 264.58333 158.75"
   version="1.1"
   id="svg5"
   xmlns="http://www.w3.org/2000/svg"
   xmlns:svg="http://www.w3.org/2000/svg">
  <defs
     id="defs2" />
  <g
     id="layer1">
    <g
       id="g2493"
       transform="matrix(5.4687503,0,0,5.4687503,33.072917,33.072917)">
      <g
         id="g369"
         transform="translate(0,6.2119417)">
        <g
           aria-label="Ultimo en Pie"
           id="text465"
           style="font-size:6.96686px;line-height:1.25;word-spacing:0px;display:inline;fill:#ffffff;stroke-width:0.0483809">
          <path
             d="m -0.36808574,7.3437924 v 3.4416286 c 0,0.613084 -0.31350869,0.905692 -0.96839356,0.905692 -0.6548848,0 -0.9683935,-0.292608 -0.9683935,-0.905692 V 7.3437924 h -1.0450289 v 3.4416286 c 0,0.571283 0.1532709,0.97536 0.494647,1.281902 0.3692436,0.33441 0.9056918,0.515548 1.5187754,0.515548 0.61308371,0 1.14953192,-0.181138 1.51877549,-0.515548 0.34137613,-0.306542 0.49464704,-0.710619 0.49464704,-1.281902 V 7.3437924 Z"
             style="font-weight:bold;font-family:'Rubik Light';-inkscape-font-specification:'Rubik Light,  Bold'"
             id="path6524" />
          <path
             d="M 2.5928305,7.3437924 H 1.6174702 v 5.0788406 h 0.9753603 z"
             style="font-weight:bold;font-family:'Rubik Light';-inkscape-font-specification:'Rubik Light,  Bold'"
             id="path6526" />
          <path
             d="M 5.1845015,8.7371643 H 4.6410865 V 7.7269697 H 3.6657261 V 8.7371643 H 3.1850128 v 0.647918 H 3.6657261 V 11.69808 c 0,0.592183 0.3135087,0.884791 0.9544598,0.884791 0.2229395,0 0.3831773,-0.0209 0.5643156,-0.07664 v -0.682752 c -0.097536,0.01393 -0.146304,0.0209 -0.2229395,0.0209 -0.2577738,0 -0.3204755,-0.07664 -0.3204755,-0.411045 V 9.3850823 h 0.543415 z"
             style="font-weight:bold;font-family:'Rubik Light';-inkscape-font-specification:'Rubik Light,  Bold'"
             id="path6528" />
          <path
             d="M 6.8356432,8.6605289 H 5.8602828 v 3.7621041 h 0.9753604 z m 0,-1.3167365 H 5.8602828 v 0.8708574 h 0.9753604 z"
             style="font-weight:bold;font-family:'Rubik Light';-inkscape-font-specification:'Rubik Light,  Bold'"
             id="path6530" />
          <path
             d="m 7.7483005,8.6605289 v 3.7621041 h 0.9753604 v -2.257262 c 0,-0.46678 0.2508069,-0.7384876 0.6688185,-0.7384876 0.3274424,0 0.5294813,0.1881053 0.5294813,0.4876802 v 2.5080694 h 0.9753603 v -2.257262 c 0,-0.4598132 0.250807,-0.7384876 0.668819,-0.7384876 0.327442,0 0.529481,0.1881053 0.529481,0.4876802 v 2.5080694 h 0.97536 V 9.7612927 c 0,-0.7315203 -0.445879,-1.1634656 -1.1983,-1.1634656 -0.480713,0 -0.808155,0.1672047 -1.100763,0.5573488 -0.181139,-0.3553098 -0.557349,-0.5573488 -1.0241288,-0.5573488 -0.4319453,0 -0.7106197,0.1393372 -1.0310952,0.5294814 V 8.6605289 Z"
             style="font-weight:bold;font-family:'Rubik Light';-inkscape-font-specification:'Rubik Light,  Bold'"
             id="path6532" />
          <path
             d="m 15.620851,8.5978271 c -1.149531,0 -1.853184,0.7593878 -1.853184,1.9925219 0,1.240101 0.703653,1.992522 1.860151,1.992522 1.149532,0 1.860152,-0.752421 1.860152,-1.964655 0,-1.2749349 -0.689719,-2.0203889 -1.867119,-2.0203889 z m 0.007,0.7872552 c 0.536448,0 0.884791,0.4807133 0.884791,1.2192007 0,0.703653 -0.362276,1.191333 -0.884791,1.191333 -0.529481,0 -0.884791,-0.480714 -0.884791,-1.205267 0,-0.7245534 0.35531,-1.2052667 0.884791,-1.2052667 z"
             style="font-weight:bold;font-family:'Rubik Light';-inkscape-font-specification:'Rubik Light,  Bold'"
             id="path6534" />
          <path
             d="m 23.368,10.848123 c 0.007,-0.0836 0.007,-0.118437 0.007,-0.167205 0,-0.37621 -0.05574,-0.7245532 -0.146304,-0.9892939 -0.250807,-0.6827522 -0.856924,-1.093797 -1.616312,-1.093797 -1.079863,0 -1.741715,0.7802883 -1.741715,2.0412899 0,1.205267 0.654885,1.943754 1.720815,1.943754 0.84299,0 1.525742,-0.473747 1.741715,-1.219201 h -0.961427 c -0.118437,0.299575 -0.390144,0.473747 -0.745454,0.473747 -0.278675,0 -0.501614,-0.118437 -0.640951,-0.327442 -0.09057,-0.139338 -0.125404,-0.306542 -0.139337,-0.661852 z m -2.50807,-0.647918 c 0.0627,-0.5782495 0.306542,-0.8569239 0.738487,-0.8569239 0.445879,0 0.71062,0.299575 0.759388,0.8569239 z"
             style="font-weight:bold;font-family:'Rubik Light';-inkscape-font-specification:'Rubik Light,  Bold'"
             id="path6536" />
          <path
             d="m 24.029849,8.6605289 v 3.7621041 h 0.97536 v -2.257262 c 0,-0.4458794 0.306542,-0.7384876 0.787255,-0.7384876 0.418012,0 0.627018,0.2299064 0.627018,0.6757856 v 2.319964 h 0.97536 V 9.9006299 c 0,-0.8360232 -0.452846,-1.3028028 -1.261002,-1.3028028 -0.50858,0 -0.849956,0.1811384 -1.128631,0.6061168 v -0.543415 z"
             style="font-weight:bold;font-family:'Rubik Light';-inkscape-font-specification:'Rubik Light,  Bold'"
             id="path6538" />
          <path
             d="m 31.358984,10.61125 h 1.302803 c 0.933559,0 1.532709,-0.6618521 1.532709,-1.6929473 0,-1.0171616 -0.57825,-1.5745103 -1.637212,-1.5745103 h -2.243329 v 5.0788406 h 1.045029 z m 0,-0.8708579 V 8.2146498 h 0.97536 c 0.557349,0 0.815123,0.2438401 0.815123,0.7593878 0,0.5225144 -0.257774,0.7663545 -0.815123,0.7663545 z"
             style="font-weight:bold;font-family:'Rubik Light';-inkscape-font-specification:'Rubik Light,  Bold'"
             id="path6540" />
          <path
             d="m 35.789914,8.6605289 h -0.97536 v 3.7621041 h 0.97536 z m 0,-1.3167365 h -0.97536 v 0.8708574 h 0.97536 z"
             style="font-weight:bold;font-family:'Rubik Light';-inkscape-font-specification:'Rubik Light,  Bold'"
             id="path6542" />
          <path
             d="m 39.935192,10.848123 c 0.007,-0.0836 0.007,-0.118437 0.007,-0.167205 0,-0.37621 -0.05573,-0.7245532 -0.146304,-0.9892939 -0.250807,-0.6827522 -0.856924,-1.093797 -1.616312,-1.093797 -1.079863,0 -1.741715,0.7802883 -1.741715,2.0412899 0,1.205267 0.654885,1.943754 1.720815,1.943754 0.84299,0 1.525742,-0.473747 1.741715,-1.219201 h -0.961427 c -0.118437,0.299575 -0.390144,0.473747 -0.745454,0.473747 -0.278674,0 -0.501614,-0.118437 -0.640951,-0.327442 -0.09057,-0.139338 -0.125404,-0.306542 -0.139337,-0.661852 z m -2.50807,-0.647918 c 0.0627,-0.5782495 0.306542,-0.8569239 0.738487,-0.8569239 0.44588,0 0.71062,0.299575 0.759388,0.8569239 z"
             style="font-weight:bold;font-family:'Rubik Light';-inkscape-font-specification:'Rubik Light,  Bold'"
             id="path6544" />
        </g>
        <g
           id="text6414"
           style="font-size:6.96686px;line-height:1.25;word-spacing:0px;display:none;fill:#ffffff;stroke-width:0.0483809" />
        <g
           aria-label="󰚌"
           id="text2777"
           style="font-size:16.2989px;font-family:'UbuntuMono NF';-inkscape-font-specification:'UbuntuMono NF';display:inline;fill:#ffffff;stroke-width:0.0407472">
          <path
             d="m 18.142856,-8.8093178 q -1.662488,0 -3.064193,0.814945 -1.385407,0.8149451 -2.216651,2.2329494 -0.831244,1.4017055 -0.831244,3.0641933 0,1.5320967 0.733451,2.86860655 0.73345,1.33650985 1.972167,2.20035155 v 2.3796395 h 1.369108 V 2.7140049 h 1.369107 v 2.0373626 h 1.33651 V 2.7140049 h 1.369108 v 2.0373626 h 1.369107 V 2.371728 q 1.238717,-0.8638417 1.972167,-2.21665045 0.733451,-1.35280875 0.733451,-2.85230765 0,-1.6624878 -0.831244,-3.0641933 -0.831244,-1.4180043 -2.232949,-2.2329494 -1.385407,-0.814945 -3.047895,-0.814945 z m -2.705617,6.1120877 q 0.537863,0 0.929037,0.4074726 0.407472,0.3911736 0.407472,0.9453362 0,0.55416261 -0.407472,0.96163513 -0.391174,0.39117361 -0.945336,0.39117361 -0.554163,0 -0.961635,-0.39117361 -0.391174,-0.40747252 -0.391174,-0.96163513 0,-0.5541626 0.391174,-0.9453362 0.407472,-0.4074726 0.977934,-0.4074726 z m 5.411235,0 q 0.570461,0 0.961635,0.4074726 0.407472,0.3911736 0.407472,0.9453362 0,0.55416261 -0.407472,0.96163513 -0.391174,0.39117361 -0.945336,0.39117361 -0.554163,0 -0.961636,-0.39117361 -0.391173,-0.40747252 -0.391173,-0.96163513 0,-0.5541626 0.391173,-0.9453362 0.407473,-0.4074726 0.945337,-0.4074726 z m -2.705618,2.03736262 1.010532,2.03736258 h -2.021064 z"
             id="path6409" />
        </g>
        <text
           xml:space="preserve"
           style="font-size:6.96686px;line-height:1.25;font-family:sans-serif;word-spacing:0px;display:none;fill:#ffffff;stroke-width:0.0483809"
           x="-3.8793831"
           y="12.422633"
           id="text6420"><tspan
             id="tspan6418"
             x="0"
             y="0"
             style="font-style:normal;font-variant:normal;font-weight:bold;font-stretch:normal;font-size:6.96686px;font-family:'Rubik Light';-inkscape-font-specification:'Rubik Light,  Bold';fill:#ffffff;stroke-width:0.0483809">Ultimo en pie</tspan></text>
      </g>
    </g>
  </g>
</svg>
