<?xml version="1.0" encoding="UTF-8" standalone="no"?>
<!-- Created with Inkscape (http://www.inkscape.org/) -->

<svg
   width="600"
   height="600"
   viewBox="0 0 158.75 158.75"
   version="1.1"
   id="svg5"
   inkscape:version="1.2 (dc2aedaf03, 2022-05-15)"
   sodipodi:docname="settings.en..svg"
   xmlns:inkscape="http://www.inkscape.org/namespaces/inkscape"
   xmlns:sodipodi="http://sodipodi.sourceforge.net/DTD/sodipodi-0.dtd"
   xmlns="http://www.w3.org/2000/svg"
   xmlns:svg="http://www.w3.org/2000/svg">
  <sodipodi:namedview
     id="namedview7"
     pagecolor="#ffffff"
     bordercolor="#111111"
     borderopacity="1"
     inkscape:showpageshadow="0"
     inkscape:pageopacity="0"
     inkscape:pagecheckerboard="1"
     inkscape:deskcolor="#d1d1d1"
     inkscape:document-units="px"
     showgrid="false"
     inkscape:lockguides="true"
     inkscape:zoom="0.42048261"
     inkscape:cx="-4.7564393"
     inkscape:cy="223.55265"
     inkscape:window-width="1366"
     inkscape:window-height="697"
     inkscape:window-x="-8"
     inkscape:window-y="-8"
     inkscape:window-maximized="1"
     inkscape:current-layer="g369" />
  <defs
     id="defs2" />
  <g
     inkscape:label="Capa 1"
     inkscape:groupmode="layer"
     id="layer1">
    <g
       id="g2493"
       transform="matrix(5.4687503,0,0,5.4687503,33.072917,33.072917)">
      <g
         id="g369"
         transform="translate(0,6.2119417)">
        <g
           aria-label="ï£"
           id="text320"
           style="font-size:19.3524px;line-height:1.25;word-spacing:0px;display:inline;fill:#ffffff;stroke-width:0.0483809">
          <path
             d="M 14.29223,-1.0132487 V -1.1644393 L 12.629133,-0.46518265 12.34565,0.36636578 13.044907,1.8971708 12.071617,2.8610111 10.550262,2.1712038 9.7187134,2.4452369 9.161198,4.1177831 H 7.7721341 L 7.2146187,2.4452369 6.3830702,2.1712038 4.8617146,2.8610111 3.888425,1.8971708 4.5876816,0.36636578 4.3041992,-0.46518265 2.6411023,-1.0132487 v -1.3985132 l 1.6630969,-0.548066 0.2834824,-0.8315485 -0.6992566,-1.530805 0.9732896,-0.9638403 1.5213556,0.6898073 0.8315485,-0.274033 0.5575154,-1.6725463 H 9.161198 l 0.5575154,1.6725463 0.8315486,0.274033 1.521355,-0.6898073 0.97329,0.9638403 -0.699257,1.530805 0.283483,0.8315485 1.663097,0.548066 z M 6.7326986,0.02618687 q 0.7654025,0.75595312 1.7292427,0.75595312 0.9732897,0 1.7386917,-0.75595312 0.765403,-0.76540253 0.765403,-1.73869217 0,-0.9732896 -0.765403,-1.7292428 -0.765402,-0.7654025 -1.7386917,-0.7654025 -0.9638402,0 -1.7292427,0.7654025 -0.7654026,0.7559532 -0.7654026,1.7292428 0,0.97328964 0.7654026,1.73869217 z"
             style="font-family:'Hack Nerd Font Mono';-inkscape-font-specification:'Hack Nerd Font Mono'"
             id="path1721" />
        </g>
        <g
           aria-label="Settings"
           id="text465"
           style="font-size:5.80571px;line-height:1.25;word-spacing:0px;display:inline;fill:#ffffff;stroke-width:0.0483809">
          <path
             d="m -2.1069784,12.964499 q -0.580571,0 -0.9637479,-0.16256 -0.3831768,-0.168366 -0.580571,-0.435428 -0.1973941,-0.267063 -0.2090055,-0.56896 0,-0.04645 0.034834,-0.08128 0.04064,-0.04064 0.092891,-0.04064 h 0.7315194 q 0.08128,0 0.1219199,0.02903 0.046446,0.02903 0.08128,0.07547 0.046446,0.08709 0.1277256,0.168366 0.087086,0.08128 0.2264227,0.133531 0.139337,0.04645 0.3367312,0.04645 0.3367311,0 0.5050967,-0.104503 0.1741713,-0.104503 0.1741713,-0.28448 0,-0.133531 -0.092891,-0.214811 -0.092891,-0.08128 -0.3018969,-0.145143 -0.2031998,-0.06967 -0.5457367,-0.139337 -0.4412339,-0.09289 -0.7547423,-0.238034 Q -3.4306803,10.85122 -3.5932402,10.613186 -3.7558,10.369346 -3.7558,10.009392 q 0,-0.3541478 0.1973941,-0.6328219 0.2031998,-0.2786741 0.5631538,-0.4354282 0.3599541,-0.1567542 0.8534394,-0.1567542 0.400594,0 0.7024909,0.1045028 0.3077026,0.1045028 0.51670816,0.2786741 0.20900555,0.1741712 0.31350833,0.3715654 0.11030849,0.1915884 0.1161142,0.3773711 0,0.046446 -0.0348343,0.087086 -0.0290286,0.03483 -0.0870857,0.03483 H -1.3812647 q -0.063863,0 -0.1103085,-0.02322 -0.046446,-0.023223 -0.08128,-0.075474 -0.034834,-0.1277257 -0.1857828,-0.220617 -0.1451427,-0.098697 -0.3831768,-0.098697 -0.2554512,0 -0.400594,0.092891 -0.139337,0.087086 -0.139337,0.2728683 0,0.1161144 0.075474,0.2031994 0.08128,0.08709 0.2612569,0.150949 0.1857828,0.06386 0.5050968,0.133531 0.5283196,0.0987 0.85343935,0.249646 0.32511975,0.145143 0.47606821,0.383177 0.15675416,0.232228 0.15675416,0.586376 0,0.394789 -0.22642268,0.679268 -0.22642268,0.28448 -0.62121094,0.441234 -0.3889826,0.150949 -0.9056907,0.150949 z"
             style="font-weight:bold;font-family:'Rubik Light';-inkscape-font-specification:'Rubik Light,  Bold'"
             id="path1724" />
          <path
             d="m 1.556425,12.964499 q -0.68507374,0 -1.09147343,-0.371566 -0.40639969,-0.371565 -0.42381682,-1.103085 0,-0.04064 0,-0.104502 0,-0.06386 0,-0.0987 Q 0.05855188,10.827998 0.2443346,10.502878 0.43592302,10.171952 0.76684848,10.003587 1.1035797,9.8294155 1.5506193,9.8294155 q 0.5109025,0 0.8418279,0.2031995 0.3367312,0.2032 0.5050968,0.551543 0.1683656,0.348342 0.1683656,0.795382 v 0.139337 q 0,0.06386 -0.04064,0.104503 -0.04064,0.04064 -0.1045028,0.04064 H 1.0629397 q 0,0.0058 0,0.01742 0,0.01161 0,0.02322 0.00581,0.168365 0.058057,0.307702 0.058057,0.139337 0.1625599,0.220617 0.1103084,0.08128 0.2670626,0.08128 0.1161142,0 0.1915884,-0.03483 0.08128,-0.04064 0.1335314,-0.08709 0.052251,-0.05225 0.08128,-0.08709 0.052251,-0.06386 0.08128,-0.07547 0.034834,-0.01742 0.1045028,-0.01742 h 0.719908 q 0.058057,0 0.092891,0.03484 0.04064,0.03483 0.034834,0.09289 -0.00581,0.0987 -0.098697,0.238034 -0.092891,0.139337 -0.2728684,0.278674 -0.1741713,0.133531 -0.4412339,0.220617 -0.2670627,0.08709 -0.621211,0.08709 z M 1.0629397,11.089255 h 0.9811649 v -0.01161 q 0,-0.191588 -0.058057,-0.32512 -0.052251,-0.139337 -0.1683655,-0.214811 -0.1103085,-0.07547 -0.2670627,-0.07547 -0.1509484,0 -0.2612569,0.07547 -0.1103085,0.07547 -0.1683656,0.214811 -0.058057,0.133532 -0.058057,0.32512 z"
             style="font-weight:bold;font-family:'Rubik Light';-inkscape-font-specification:'Rubik Light,  Bold'"
             id="path1726" />
          <path
             d="m 5.1472603,12.906442 q -0.3715654,0 -0.6444338,-0.116115 Q 4.2357638,12.668408 4.0906211,12.418762 3.9454783,12.163311 3.9454783,11.762717 V 10.648021 H 3.492633 q -0.063863,0 -0.1103085,-0.04064 -0.04064,-0.04064 -0.04064,-0.104503 v -0.470263 q 0,-0.063862 0.04064,-0.1045025 0.046446,-0.04064 0.1103085,-0.04064 H 3.9454783 V 8.9295304 q 0,-0.063863 0.04064,-0.1045027 0.046446,-0.04064 0.1045028,-0.04064 h 0.6734623 q 0.063863,0 0.1045028,0.04064 0.04064,0.04064 0.04064,0.1045027 v 0.9579422 h 0.7257137 q 0.063863,0 0.1045028,0.04064 0.046446,0.04064 0.046446,0.1045025 v 0.470263 q 0,0.06386 -0.046446,0.104503 -0.04064,0.04064 -0.1045028,0.04064 H 4.9092262 v 1.033416 q 0,0.197394 0.075474,0.313508 0.075474,0.116114 0.2554512,0.116114 h 0.4470397 q 0.063863,0 0.1045028,0.04064 0.04064,0.04064 0.04064,0.104503 v 0.505097 q 0,0.05806 -0.04064,0.104503 -0.04064,0.04064 -0.1045028,0.04064 z"
             style="font-weight:bold;font-family:'Rubik Light';-inkscape-font-specification:'Rubik Light,  Bold'"
             id="path1728" />
          <path
             d="m 7.8585211,12.906442 q -0.3715654,0 -0.6444338,-0.116115 Q 6.9470246,12.668408 6.8018819,12.418762 6.6567391,12.163311 6.6567391,11.762717 V 10.648021 H 6.2038938 q -0.063863,0 -0.1103085,-0.04064 -0.04064,-0.04064 -0.04064,-0.104503 v -0.470263 q 0,-0.063862 0.04064,-0.1045025 0.046446,-0.04064 0.1103085,-0.04064 H 6.6567391 V 8.9295304 q 0,-0.063863 0.04064,-0.1045027 0.046446,-0.04064 0.1045028,-0.04064 h 0.6734623 q 0.063863,0 0.1045028,0.04064 0.04064,0.04064 0.04064,0.1045027 v 0.9579422 h 0.7257137 q 0.063863,0 0.1045028,0.04064 0.046446,0.04064 0.046446,0.1045025 v 0.470263 q 0,0.06386 -0.046446,0.104503 -0.04064,0.04064 -0.1045028,0.04064 H 7.620487 v 1.033416 q 0,0.197394 0.075474,0.313508 0.075474,0.116114 0.2554512,0.116114 h 0.4470397 q 0.063863,0 0.1045028,0.04064 0.04064,0.04064 0.04064,0.104503 v 0.505097 q 0,0.05806 -0.04064,0.104503 -0.04064,0.04064 -0.1045028,0.04064 z"
             style="font-weight:bold;font-family:'Rubik Light';-inkscape-font-specification:'Rubik Light,  Bold'"
             id="path1730" />
          <path
             d="m 9.1706068,12.906442 q -0.063863,0 -0.1045028,-0.04064 -0.04064,-0.04645 -0.04064,-0.104503 v -2.728684 q 0,-0.063862 0.04064,-0.1045025 0.04064,-0.04064 0.1045028,-0.04064 h 0.6850737 q 0.063863,0 0.1045028,0.04064 0.04064,0.04064 0.04064,0.1045025 v 2.728684 q 0,0.05806 -0.04064,0.104503 -0.04064,0.04064 -0.1045028,0.04064 z M 9.164801,9.4520443 q -0.063863,0 -0.1045027,-0.04064 -0.04064,-0.04064 -0.04064,-0.1045028 V 8.7843877 q 0,-0.058057 0.04064,-0.098697 0.04064,-0.046446 0.1045027,-0.046446 h 0.6966852 q 0.058057,0 0.098697,0.046446 0.046446,0.04064 0.046446,0.098697 v 0.5225139 q 0,0.063863 -0.046446,0.1045028 -0.04064,0.04064 -0.098697,0.04064 z"
             style="font-weight:bold;font-family:'Rubik Light';-inkscape-font-specification:'Rubik Light,  Bold'"
             id="path1732" />
          <path
             d="m 10.831036,12.906442 q -0.06386,0 -0.104503,-0.04064 -0.04064,-0.04645 -0.04064,-0.104503 v -2.728684 q 0,-0.063862 0.04064,-0.1045025 0.04064,-0.04064 0.104503,-0.04064 h 0.667656 q 0.06386,0 0.104503,0.04064 0.04645,0.04064 0.04645,0.1045025 v 0.220617 q 0.145143,-0.179977 0.388982,-0.3018966 0.24384,-0.1219199 0.574766,-0.1219199 0.336731,0 0.592182,0.1509484 0.261257,0.1509481 0.4064,0.4412341 0.150948,0.290285 0.150948,0.719908 v 1.619793 q 0,0.05806 -0.04064,0.104503 -0.04064,0.04064 -0.104503,0.04064 h -0.731519 q -0.05806,0 -0.104503,-0.04064 -0.04064,-0.04645 -0.04064,-0.104503 V 11.17634 q 0,-0.272868 -0.133531,-0.418011 -0.127726,-0.150948 -0.383177,-0.150948 -0.238034,0 -0.383177,0.150948 -0.139337,0.145143 -0.139337,0.418011 v 1.584959 q 0,0.05806 -0.04645,0.104503 -0.04064,0.04064 -0.0987,0.04064 z"
             style="font-weight:bold;font-family:'Rubik Light';-inkscape-font-specification:'Rubik Light,  Bold'"
             id="path1734" />
          <path
             d="m 15.899417,14.183698 q -0.447039,0 -0.74313,-0.116114 -0.290286,-0.116115 -0.464457,-0.278674 -0.168366,-0.16256 -0.24384,-0.32512 -0.07547,-0.156754 -0.08128,-0.249646 -0.0058,-0.06386 0.04064,-0.110308 0.04645,-0.04064 0.110309,-0.04064 h 0.737325 q 0.05806,0 0.09289,0.02903 0.03483,0.02903 0.05806,0.09289 0.03483,0.06386 0.08128,0.127725 0.04645,0.06967 0.133531,0.116115 0.09289,0.04645 0.249646,0.04645 0.174171,0 0.290285,-0.05806 0.116115,-0.05225 0.174172,-0.179977 0.05806,-0.12192 0.05806,-0.330925 v -0.388983 q -0.133532,0.145143 -0.342537,0.238034 -0.209006,0.08709 -0.505097,0.08709 -0.296091,0 -0.522514,-0.08709 -0.226422,-0.08709 -0.377371,-0.261257 -0.150948,-0.174171 -0.238034,-0.423817 -0.08128,-0.249645 -0.0987,-0.574765 -0.0058,-0.150948 0,-0.307702 0.01742,-0.307703 0.0987,-0.557349 0.08128,-0.255451 0.232228,-0.429622 0.156755,-0.179977 0.383177,-0.2728685 0.226423,-0.098697 0.522514,-0.098697 0.313509,0 0.534125,0.1219199 0.226423,0.1161146 0.371566,0.2960916 v -0.214812 q 0,-0.058057 0.04064,-0.098697 0.04064,-0.046446 0.104503,-0.046446 h 0.667656 q 0.06386,0 0.104503,0.046446 0.04645,0.04064 0.04645,0.098697 v 2.792547 q 0,0.441234 -0.179977,0.743131 -0.174172,0.301897 -0.516708,0.458651 -0.336732,0.156754 -0.818606,0.156754 z m -0.04064,-2.095861 q 0.185782,0 0.301896,-0.08128 0.116115,-0.08128 0.168366,-0.209006 0.05806,-0.127726 0.06386,-0.272868 0.0058,-0.06386 0.0058,-0.179977 0,-0.116114 -0.0058,-0.174172 -0.0058,-0.150948 -0.06386,-0.278674 -0.05225,-0.127725 -0.168366,-0.203199 -0.116114,-0.08128 -0.301896,-0.08128 -0.191589,0 -0.307703,0.08128 -0.110309,0.08128 -0.16256,0.220617 -0.04645,0.139337 -0.05806,0.307702 -0.0058,0.127726 0,0.261257 0.01161,0.168366 0.05806,0.307703 0.05225,0.139337 0.16256,0.220617 0.116114,0.08128 0.307703,0.08128 z"
             style="font-weight:bold;font-family:'Rubik Light';-inkscape-font-specification:'Rubik Light,  Bold'"
             id="path1736" />
          <path
             d="m 19.342208,12.964499 q -0.377371,0 -0.644434,-0.08128 -0.261257,-0.08709 -0.429623,-0.209006 -0.16256,-0.12192 -0.243839,-0.249645 -0.08128,-0.133532 -0.08709,-0.232229 -0.0058,-0.06386 0.04064,-0.104502 0.04645,-0.04064 0.0987,-0.04064 h 0.661851 q 0.01742,0 0.02903,0.0058 0.01742,0.0058 0.03484,0.02322 0.07547,0.04064 0.150948,0.104503 0.07547,0.05806 0.174171,0.104503 0.0987,0.04645 0.238035,0.04645 0.162559,0 0.272868,-0.06386 0.110308,-0.06967 0.110308,-0.191589 0,-0.09289 -0.05225,-0.150948 -0.05225,-0.06386 -0.214811,-0.12192 -0.156754,-0.05806 -0.476069,-0.116114 -0.301896,-0.06967 -0.528319,-0.179977 -0.226423,-0.116115 -0.348343,-0.296092 -0.12192,-0.185782 -0.12192,-0.447039 0,-0.232229 0.150949,-0.44704 0.150948,-0.214811 0.441234,-0.3483425 0.290285,-0.139337 0.719908,-0.139337 0.330925,0 0.580571,0.08128 0.249645,0.075474 0.418011,0.1973946 0.168366,0.121919 0.255451,0.249645 0.08709,0.127726 0.09289,0.232228 0.0058,0.05806 -0.03484,0.104503 -0.04064,0.04064 -0.09289,0.04064 H 19.93439 q -0.02322,0 -0.04645,-0.0058 -0.02322,-0.01161 -0.04064,-0.02322 -0.06967,-0.03483 -0.139337,-0.09289 -0.06967,-0.05806 -0.162559,-0.104502 -0.09289,-0.04645 -0.232229,-0.04645 -0.156754,0 -0.24384,0.06967 -0.08708,0.06967 -0.08708,0.179977 0,0.07547 0.04644,0.139337 0.05225,0.06386 0.2032,0.116115 0.156754,0.05225 0.481874,0.116114 0.400594,0.06386 0.638628,0.209005 0.238034,0.139337 0.336731,0.330926 0.104503,0.185783 0.104503,0.394788 0,0.278674 -0.168365,0.493485 -0.168366,0.214812 -0.493486,0.336732 -0.319314,0.116114 -0.789576,0.116114 z"
             style="font-weight:bold;font-family:'Rubik Light';-inkscape-font-specification:'Rubik Light,  Bold'"
             id="path1738" />
        </g>
        <text
           xml:space="preserve"
           style="font-size:5.80571px;line-height:1.25;font-family:sans-serif;word-spacing:0px;display:none;fill:#ffffff;stroke-width:0.0483809"
           x="-4.0286684"
           y="12.906442"
           id="text1719"><tspan
             sodipodi:role="line"
             id="tspan1717"
             x="-4.0286684"
             y="12.906442"
             style="font-style:normal;font-variant:normal;font-weight:bold;font-stretch:normal;font-size:5.80571px;font-family:'Rubik Light';-inkscape-font-specification:'Rubik Light,  Bold';fill:#ffffff;stroke-width:0.0483809">Settings</tspan></text>
      </g>
    </g>
  </g>
</svg>
