<?xml version="1.0" encoding="UTF-8" standalone="no"?>
<!-- Created with Inkscape (http://www.inkscape.org/) -->

<svg
   width="1000"
   height="600"
   viewBox="0 0 264.58333 158.75"
   version="1.1"
   id="svg5"
   xmlns="http://www.w3.org/2000/svg"
   xmlns:svg="http://www.w3.org/2000/svg">
  <defs
     id="defs2" />
  <g
     id="layer1">
    <g
       id="g2493"
       transform="matrix(5.4687503,0,0,5.4687503,33.072917,33.072917)">
      <g
         id="g369"
         transform="translate(0,6.2119417)">
        <g
           aria-label="Time Trial"
           id="text6420"
           style="font-size:6.96686px;line-height:1.25;word-spacing:0px;display:none;fill:#ffffff;stroke-width:0.0483809">
          <path
             d="M 4.8500884,9.4725529 H 6.3340296 V 8.6016955 H 2.2653834 v 0.8708574 h 1.5396761 v 4.2079831 h 1.0450289 z"
             style="font-weight:bold;font-family:'Rubik Light';-inkscape-font-specification:'Rubik Light,  Bold'"
             id="path6705" />
          <path
             d="M 7.8528,9.918432 H 6.8774396 v 3.762104 H 7.8528 Z m 0,-1.3167365 H 6.8774396 V 9.4725529 H 7.8528 Z"
             style="font-weight:bold;font-family:'Rubik Light';-inkscape-font-specification:'Rubik Light,  Bold'"
             id="path6707" />
          <path
             d="m 8.7654578,9.918432 v 3.762104 h 0.9753604 v -2.257262 c 0,-0.46678 0.2508069,-0.738487 0.6688188,-0.738487 0.327442,0 0.529481,0.188105 0.529481,0.48768 v 2.508069 h 0.97536 v -2.257262 c 0,-0.459813 0.250807,-0.738487 0.668819,-0.738487 0.327442,0 0.529481,0.188105 0.529481,0.48768 v 2.508069 h 0.975361 v -2.66134 c 0,-0.73152 -0.445879,-1.1634658 -1.1983,-1.1634658 -0.480714,0 -0.808156,0.1672048 -1.100764,0.5573488 -0.181138,-0.35531 -0.557349,-0.5573488 -1.024128,-0.5573488 -0.431946,0 -0.71062,0.1393372 -1.0310957,0.5294818 v -0.46678 z"
             style="font-weight:bold;font-family:'Rubik Light';-inkscape-font-specification:'Rubik Light,  Bold'"
             id="path6709" />
          <path
             d="m 18.191618,12.106026 c 0.007,-0.0836 0.007,-0.118437 0.007,-0.167205 0,-0.37621 -0.05574,-0.724553 -0.146304,-0.989294 -0.250807,-0.682752 -0.856923,-1.0937968 -1.616311,-1.0937968 -1.079863,0 -1.741715,0.7802888 -1.741715,2.0412898 0,1.205267 0.654885,1.943754 1.720814,1.943754 0.84299,0 1.525743,-0.473746 1.741715,-1.2192 h -0.961426 c -0.118437,0.299575 -0.390145,0.473746 -0.745454,0.473746 -0.278675,0 -0.501614,-0.118437 -0.640952,-0.327442 -0.09057,-0.139338 -0.125403,-0.306542 -0.139337,-0.661852 z m -2.508069,-0.647918 c 0.0627,-0.578249 0.306542,-0.856924 0.738487,-0.856924 0.445879,0 0.71062,0.299575 0.759388,0.856924 z"
             style="font-weight:bold;font-family:'Rubik Light';-inkscape-font-specification:'Rubik Light,  Bold'"
             id="path6711" />
          <path
             d="m 23.033583,9.4725529 h 1.483941 V 8.6016955 h -4.068646 v 0.8708574 h 1.539676 v 4.2079831 h 1.045029 z"
             style="font-weight:bold;font-family:'Rubik Light';-inkscape-font-specification:'Rubik Light,  Bold'"
             id="path6713" />
          <path
             d="m 24.531463,9.918432 v 3.762104 h 0.975361 v -1.999488 c 0,-0.571283 0.285641,-0.856924 0.856923,-0.856924 0.104503,0 0.174172,0.007 0.306542,0.02787 V 9.8626971 c -0.05574,-0.00697 -0.07663,-0.00697 -0.118436,-0.00697 -0.44588,0 -0.829057,0.2926079 -1.045029,0.8011889 V 9.918432 Z"
             style="font-weight:bold;font-family:'Rubik Light';-inkscape-font-specification:'Rubik Light,  Bold'"
             id="path6715" />
          <path
             d="M 28.209971,9.918432 H 27.23461 v 3.762104 h 0.975361 z m 0,-1.3167365 H 27.23461 v 0.8708574 h 0.975361 z"
             style="font-weight:bold;font-family:'Rubik Light';-inkscape-font-specification:'Rubik Light,  Bold'"
             id="path6717" />
          <path
             d="m 32.355252,13.5621 c -0.167205,-0.160238 -0.22294,-0.271708 -0.22294,-0.459813 v -2.090058 c 0,-0.766355 -0.522514,-1.1564988 -1.539676,-1.1564988 -1.017161,0 -1.546643,0.4319458 -1.609344,1.3028028 h 0.940526 c 0.04877,-0.390144 0.209006,-0.515548 0.689719,-0.515548 0.37621,0 0.564315,0.125404 0.564315,0.376211 0,0.125403 -0.0627,0.229906 -0.167204,0.292608 -0.13237,0.06967 -0.13237,0.06967 -0.613084,0.146304 l -0.390144,0.06967 c -0.745454,0.125403 -1.107731,0.50858 -1.107731,1.184366 0,0.675785 0.452846,1.128631 1.142565,1.128631 0.418012,0 0.794222,-0.174171 1.142565,-0.536448 0,0.195072 0.0209,0.264741 0.11147,0.37621 h 1.058963 z m -1.1774,-1.393372 c 0,0.564315 -0.278674,0.884791 -0.773321,0.884791 -0.327442,0 -0.529481,-0.174172 -0.529481,-0.452846 0,-0.292608 0.153271,-0.431945 0.557348,-0.515548 l 0.33441,-0.0627 c 0.257774,-0.04877 0.299575,-0.0627 0.411044,-0.118437 z"
             style="font-weight:bold;font-family:'Rubik Light';-inkscape-font-specification:'Rubik Light,  Bold'"
             id="path6719" />
          <path
             d="m 34.020329,8.6016955 h -0.975361 v 5.0788405 h 0.975361 z"
             style="font-weight:bold;font-family:'Rubik Light';-inkscape-font-specification:'Rubik Light,  Bold'"
             id="path6721" />
        </g>
        <g
           aria-label="Contrarreloj"
           id="text6669"
           style="font-size:6.96686px;line-height:1.25;word-spacing:0px;display:inline;fill:#ffffff;stroke-width:0.0483809"
           transform="translate(0,0.967619)">
          <path
             d="M 3.0352314,9.0646067 C 3.0003971,8.6256946 2.9098279,8.3470202 2.6938553,8.0613789 2.3037111,7.5458313 1.6766938,7.26019 0.91730604,7.26019 c -1.43517312,0 -2.32693114,1.0241284 -2.32693114,2.6683074 0,1.6372116 0.88479116,2.6543736 2.2990637,2.6543736 1.2679685,0 2.1039917,-0.73152 2.1666934,-1.894986 H 2.0389705 c -0.069669,0.647918 -0.4737465,1.017162 -1.12166446,1.017162 -0.80815574,0 -1.28190221,-0.654885 -1.28190221,-1.7626159 0,-1.1216645 0.49464705,-1.790483 1.31673651,-1.790483 0.60611676,0 0.94749296,0.2926081 1.08683016,0.9126586 z"
             style="font-weight:bold;font-family:'Rubik Light';-inkscape-font-specification:'Rubik Light,  Bold'"
             id="path6680" />
          <path
             d="m 5.4178947,8.5978271 c -1.1495318,0 -1.8531847,0.7593878 -1.8531847,1.9925219 0,1.240101 0.7036529,1.992522 1.8601516,1.992522 1.1495319,0 1.8601516,-0.752421 1.8601516,-1.964655 0,-1.2749349 -0.6897192,-2.0203889 -1.8671185,-2.0203889 z m 0.00697,0.7872552 c 0.5364482,0 0.8847912,0.4807133 0.8847912,1.2192007 0,0.703653 -0.3622767,1.191333 -0.8847912,1.191333 -0.5294814,0 -0.8847912,-0.480714 -0.8847912,-1.205267 0,-0.7245534 0.3553098,-1.2052667 0.8847912,-1.2052667 z"
             style="font-weight:bold;font-family:'Rubik Light';-inkscape-font-specification:'Rubik Light,  Bold'"
             id="path6682" />
          <path
             d="m 8.0165341,8.6605289 v 3.7621041 h 0.9753604 v -2.257262 c 0,-0.4458794 0.3065418,-0.7384876 0.7872551,-0.7384876 0.4180114,0 0.6270174,0.2299064 0.6270174,0.6757856 v 2.319964 h 0.97536 V 9.9006299 c 0,-0.8360232 -0.452845,-1.3028028 -1.261001,-1.3028028 -0.508581,0 -0.8499571,0.1811384 -1.1286315,0.6061168 v -0.543415 z"
             style="font-weight:bold;font-family:'Rubik Light';-inkscape-font-specification:'Rubik Light,  Bold'"
             id="path6684" />
          <path
             d="M 13.931398,8.7371643 H 13.387983 V 7.7269697 h -0.975361 v 1.0101946 h -0.480713 v 0.647918 h 0.480713 V 11.69808 c 0,0.592183 0.313509,0.884791 0.95446,0.884791 0.22294,0 0.383177,-0.0209 0.564316,-0.07664 v -0.682752 c -0.09754,0.01393 -0.146304,0.0209 -0.22294,0.0209 -0.257774,0 -0.320475,-0.07664 -0.320475,-0.411045 V 9.3850823 h 0.543415 z"
             style="font-weight:bold;font-family:'Rubik Light';-inkscape-font-specification:'Rubik Light,  Bold'"
             id="path6686" />
          <path
             d="m 14.593251,8.6605289 v 3.7621041 h 0.97536 v -1.999489 c 0,-0.5712821 0.285641,-0.8569234 0.856924,-0.8569234 0.104503,0 0.174171,0.00697 0.306541,0.027868 V 8.604794 c -0.05573,-0.00697 -0.07663,-0.00697 -0.118436,-0.00697 -0.445879,0 -0.829056,0.2926081 -1.045029,0.8011889 v -0.738484 z"
             style="font-weight:bold;font-family:'Rubik Light';-inkscape-font-specification:'Rubik Light,  Bold'"
             id="path6688" />
          <path
             d="M 20.54991,12.304197 C 20.382705,12.143959 20.32697,12.032489 20.32697,11.844384 V 9.7543259 c 0,-0.7663546 -0.522514,-1.1564988 -1.539676,-1.1564988 -1.017161,0 -1.546643,0.4319453 -1.609344,1.3028028 h 0.940526 c 0.04877,-0.3901441 0.209006,-0.5155476 0.689719,-0.5155476 0.37621,0 0.564316,0.1254035 0.564316,0.3762104 0,0.1254035 -0.0627,0.2299064 -0.167205,0.2926083 -0.13237,0.06967 -0.13237,0.06967 -0.613084,0.146304 l -0.390144,0.06967 c -0.745454,0.125404 -1.107731,0.508581 -1.107731,1.184367 0,0.675785 0.452846,1.128631 1.142565,1.128631 0.418012,0 0.794222,-0.174172 1.142565,-0.536448 0,0.195072 0.0209,0.26474 0.11147,0.37621 h 1.058963 z m -1.177399,-1.393372 c 0,0.564315 -0.278675,0.884791 -0.773322,0.884791 -0.327442,0 -0.529481,-0.174172 -0.529481,-0.452846 0,-0.292608 0.153271,-0.431945 0.557349,-0.515548 l 0.334409,-0.0627 c 0.257774,-0.04877 0.299575,-0.0627 0.411045,-0.118437 z"
             style="font-weight:bold;font-family:'Rubik Light';-inkscape-font-specification:'Rubik Light,  Bold'"
             id="path6690" />
          <path
             d="m 21.211759,8.6605289 v 3.7621041 h 0.97536 v -1.999489 c 0,-0.5712821 0.285641,-0.8569234 0.856924,-0.8569234 0.104503,0 0.174171,0.00697 0.306542,0.027868 V 8.604794 c -0.05573,-0.00697 -0.07664,-0.00697 -0.118437,-0.00697 -0.445879,0 -0.829056,0.2926081 -1.045029,0.8011889 v -0.738484 z"
             style="font-weight:bold;font-family:'Rubik Light';-inkscape-font-specification:'Rubik Light,  Bold'"
             id="path6692" />
          <path
             d="m 23.900966,8.6605289 v 3.7621041 h 0.97536 v -1.999489 c 0,-0.5712821 0.285642,-0.8569234 0.856924,-0.8569234 0.104503,0 0.174172,0.00697 0.306542,0.027868 V 8.604794 c -0.05573,-0.00697 -0.07664,-0.00697 -0.118437,-0.00697 -0.445879,0 -0.829056,0.2926081 -1.045029,0.8011889 v -0.738484 z"
             style="font-weight:bold;font-family:'Rubik Light';-inkscape-font-specification:'Rubik Light,  Bold'"
             id="path6694" />
          <path
             d="m 29.850661,10.848123 c 0.007,-0.0836 0.007,-0.118437 0.007,-0.167205 0,-0.37621 -0.05573,-0.7245532 -0.146304,-0.9892939 -0.250807,-0.6827522 -0.856923,-1.093797 -1.616311,-1.093797 -1.079863,0 -1.741715,0.7802883 -1.741715,2.0412899 0,1.205267 0.654885,1.943754 1.720814,1.943754 0.84299,0 1.525743,-0.473747 1.741715,-1.219201 H 28.8544 c -0.118437,0.299575 -0.390145,0.473747 -0.745454,0.473747 -0.278675,0 -0.501614,-0.118437 -0.640951,-0.327442 -0.09057,-0.139338 -0.125404,-0.306542 -0.139338,-0.661852 z m -2.50807,-0.647918 c 0.0627,-0.5782495 0.306542,-0.8569239 0.738487,-0.8569239 0.445879,0 0.71062,0.299575 0.759388,0.8569239 z"
             style="font-weight:bold;font-family:'Rubik Light';-inkscape-font-specification:'Rubik Light,  Bold'"
             id="path6696" />
          <path
             d="m 31.522701,7.3437924 h -0.97536 v 5.0788406 h 0.97536 z"
             style="font-weight:bold;font-family:'Rubik Light';-inkscape-font-specification:'Rubik Light,  Bold'"
             id="path6698" />
          <path
             d="m 34.114375,8.5978271 c -1.149532,0 -1.853185,0.7593878 -1.853185,1.9925219 0,1.240101 0.703653,1.992522 1.860151,1.992522 1.149532,0 1.860152,-0.752421 1.860152,-1.964655 0,-1.2749349 -0.689719,-2.0203889 -1.867118,-2.0203889 z m 0.007,0.7872552 c 0.536449,0 0.884792,0.4807133 0.884792,1.2192007 0,0.703653 -0.362277,1.191333 -0.884792,1.191333 -0.529481,0 -0.884791,-0.480714 -0.884791,-1.205267 0,-0.7245534 0.35531,-1.2052667 0.884791,-1.2052667 z"
             style="font-weight:bold;font-family:'Rubik Light';-inkscape-font-specification:'Rubik Light,  Bold'"
             id="path6700" />
          <path
             d="m 37.695337,8.6605289 h -0.97536 v 4.2010161 c 0,0.215973 -0.07664,0.292608 -0.285642,0.292608 -0.0627,0 -0.111469,-0.007 -0.174171,-0.02787 v 0.780288 c 0.188105,0.0209 0.424978,0.03483 0.578249,0.03483 0.606117,0 0.856924,-0.250807 0.856924,-0.863891 z m 0,-1.3167365 h -0.97536 v 0.8708574 h 0.97536 z"
             style="font-weight:bold;font-family:'Rubik Light';-inkscape-font-specification:'Rubik Light,  Bold'"
             id="path6702" />
        </g>
        <text
           xml:space="preserve"
           style="font-size:6.96686px;line-height:1.25;font-family:sans-serif;word-spacing:0px;display:none;fill:#ffffff;stroke-width:0.0483809"
           x="-3.8793831"
           y="12.422633"
           id="text6673"><tspan
             id="tspan6671"
             x="0"
             y="0"
             style="font-style:normal;font-variant:normal;font-weight:bold;font-stretch:normal;font-size:6.96686px;font-family:'Rubik Light';-inkscape-font-specification:'Rubik Light,  Bold';fill:#ffffff;stroke-width:0.0483809">Ultimo en pie</tspan></text>
        <g
           aria-label=""
           id="text6665"
           style="font-weight:bold;font-size:19.3524px;font-family:'UbuntuMono NF';-inkscape-font-specification:'UbuntuMono NF Bold';fill:#ffffff;stroke-width:0.0483809"
           transform="translate(0,-0.1935238)">
          <path
             d="m 19.526552,-5.2767339 v 4.83809997 q 0,0.1548192 -0.09676,0.2515812 -0.09676,0.096762 -0.251581,0.096762 h -3.444727 q -0.154819,0 -0.251581,-0.096762 -0.09676,-0.096762 -0.09676,-0.2515812 V -1.1353203 q 0,-0.1161144 0.09676,-0.2322288 0.09676,-0.1161144 0.251581,-0.1161144 h 2.41905 v -3.7930704 q 0,-0.3483432 0.328991,-0.3483432 h 0.696686 q 0.348343,0 0.348343,0.3483432 z m 2.767393,7.9538363 q 1.722364,-1.72236354 1.722364,-4.1414135 0,-2.41905 -1.722364,-4.160766 -1.722363,-1.741716 -4.141413,-1.741716 -2.41905,0 -4.160766,1.741716 -1.722364,1.741716 -1.722364,4.160766 0,2.41904996 1.722364,4.1414135 1.741716,1.7223636 4.160766,1.7223636 2.41905,0 4.141413,-1.7223636 z m 1.722364,-10.0245431 q 2.41905,2.41905 2.41905,5.8637772 0,3.4447271 -2.41905,5.8637771 -2.41905,2.41905 -5.863777,2.41905 -3.444727,0 -5.88313,-2.41905 -2.4190497,-2.41905 -2.4190497,-5.8637771 0,-3.4447272 2.4190497,-5.8637772 2.438403,-2.4190499 5.88313,-2.4190499 3.444727,0 5.863777,2.4190499 z"
             style="font-weight:normal;-inkscape-font-specification:'UbuntuMono NF'"
             id="path6677" />
        </g>
      </g>
    </g>
  </g>
</svg>
