<?xml version="1.0" encoding="UTF-8" standalone="no"?>
<!-- Created with Inkscape (http://www.inkscape.org/) -->

<svg
   width="600"
   height="600"
   viewBox="0 0 158.75 158.75"
   version="1.1"
   id="svg5"
   inkscape:version="1.2 (dc2aedaf03, 2022-05-15)"
   sodipodi:docname="exit.svg"
   xmlns:inkscape="http://www.inkscape.org/namespaces/inkscape"
   xmlns:sodipodi="http://sodipodi.sourceforge.net/DTD/sodipodi-0.dtd"
   xmlns="http://www.w3.org/2000/svg"
   xmlns:svg="http://www.w3.org/2000/svg">
  <sodipodi:namedview
     id="namedview7"
     pagecolor="#ffffff"
     bordercolor="#111111"
     borderopacity="1"
     inkscape:showpageshadow="0"
     inkscape:pageopacity="0"
     inkscape:pagecheckerboard="1"
     inkscape:deskcolor="#d1d1d1"
     inkscape:document-units="px"
     showgrid="false"
     inkscape:lockguides="true"
     inkscape:zoom="0.42048261"
     inkscape:cx="-118.91098"
     inkscape:cy="223.55265"
     inkscape:window-width="1366"
     inkscape:window-height="697"
     inkscape:window-x="-8"
     inkscape:window-y="-8"
     inkscape:window-maximized="1"
     inkscape:current-layer="layer1" />
  <defs
     id="defs2" />
  <g
     inkscape:label="Capa 1"
     inkscape:groupmode="layer"
     id="layer1">
    <g
       aria-label=""
       id="text1806"
       style="font-size:119.062px;line-height:1.25;word-spacing:0px;display:inline;fill:#ffffff;stroke-width:0.264583">
      <path
         d="m 115.21569,61.853547 q 0,5.755439 -1.86035,11.278334 -1.80221,5.46476 -5.11594,9.883076 -3.25561,4.360181 -7.67392,7.673918 -4.418318,3.313737 -9.883077,5.174081 -5.46476,1.802208 -11.278334,1.802208 -7.266968,0 -13.952578,-2.848652 Q 58.824017,91.967861 53.99875,87.20073 49.23162,82.375464 46.382968,75.747989 43.534317,69.120515 43.534317,61.853547 q 0,-8.545953 3.720687,-16.045464 3.778824,-7.49951 10.638841,-12.615456 1.976615,-1.511529 4.418316,-1.162714 2.441701,0.348814 3.895095,2.383565 1.511529,1.918479 1.162715,4.418316 -0.348815,2.441701 -2.32543,3.895095 -4.534588,3.430009 -7.034425,8.429682 -2.499836,4.999674 -2.499836,10.696976 0,6.453068 3.197465,11.975963 3.197466,5.46476 8.720361,8.720361 5.522896,3.197466 11.975963,3.197466 6.453067,0 11.975962,-3.197466 5.522896,-3.255601 8.720359,-8.720361 3.19747,-5.522895 3.19747,-11.975963 0,-5.697302 -2.49984,-10.696976 -2.499835,-4.999673 -7.092559,-8.429682 -1.918479,-1.453394 -2.32543,-3.895095 -0.348814,-2.499837 1.162715,-4.418316 1.453394,-2.034751 3.895095,-2.383565 2.499837,-0.348815 4.476449,1.162714 6.80188,5.115946 10.52257,12.615456 3.77883,7.499511 3.77883,16.045464 z M 85.333914,25.983796 V 55.80743 q 0,2.499837 -1.744072,4.302045 -1.744072,1.744072 -4.185773,1.744072 -2.441701,0 -4.243909,-1.744072 -1.744072,-1.802208 -1.744072,-4.302045 V 25.983796 q 0,-2.441702 1.744072,-4.185774 1.802208,-1.802208 4.243909,-1.802208 2.441701,0 4.185773,1.802208 1.744072,1.744072 1.744072,4.185774 z"
         style="font-family:'Hack Nerd Font Mono';-inkscape-font-specification:'Hack Nerd Font Mono'"
         id="path2636" />
    </g>
    <g
       aria-label="Exit"
       id="text2548"
       style="font-size:38.1px;line-height:1.25;word-spacing:0px;display:none;fill:#ffffff;stroke-width:0.264583">
      <path
         d="m 44.399228,137.62659 q -0.4191,0 -0.6858,-0.2667 -0.2667,-0.3048 -0.2667,-0.6858 v -24.765 q 0,-0.4191 0.2667,-0.6858 0.2667,-0.2667 0.6858,-0.2667 h 17.792699 q 0.4191,0 0.6858,0.2667 0.2667,0.2667 0.2667,0.6858 v 3.5814 q 0,0.4191 -0.2667,0.6858 -0.2667,0.2667 -0.6858,0.2667 H 50.038028 v 5.1435 h 11.315699 q 0.4191,0 0.6858,0.3048 0.2667,0.2667 0.2667,0.6858 v 3.3147 q 0,0.381 -0.2667,0.6858 -0.2667,0.2667 -0.6858,0.2667 H 50.038028 v 5.2959 h 12.458699 q 0.4191,0 0.6858,0.2667 0.2667,0.2667 0.2667,0.6858 v 3.5814 q 0,0.381 -0.2667,0.6858 -0.2667,0.2667 -0.6858,0.2667 z"
         style="font-weight:bold;font-family:'Rubik Light';-inkscape-font-specification:'Rubik Light,  Bold'"
         id="path2593" />
      <path
         d="m 66.573424,137.62659 q -0.3429,0 -0.6096,-0.2286 -0.2286,-0.2667 -0.2286,-0.6477 0,-0.0762 0.0381,-0.2286 0.0381,-0.1905 0.1524,-0.3429 l 6.362699,-8.7249 -5.791199,-8.1915 q -0.1143,-0.1524 -0.1905,-0.3048 -0.0381,-0.1524 -0.0381,-0.3048 0,-0.3429 0.2667,-0.5715 0.2667,-0.2667 0.6096,-0.2667 h 4.648199 q 0.4953,0 0.7239,0.2286 0.2667,0.2286 0.381,0.4191 l 3.5433,4.8768 3.5052,-4.8387 q 0.1524,-0.1905 0.381,-0.4191 0.2667,-0.2667 0.762,-0.2667 h 4.4577 q 0.3429,0 0.5715,0.2667 0.2667,0.2286 0.2667,0.5715 0,0.1524 -0.0381,0.3048 -0.0381,0.1524 -0.1524,0.3048 l -5.9436,8.1915 6.477,8.7249 q 0.1143,0.1524 0.1524,0.3048 0.0381,0.1524 0.0381,0.2667 0,0.381 -0.2667,0.6477 -0.2286,0.2286 -0.5715,0.2286 h -4.8768 q -0.4572,0 -0.6858,-0.1905 -0.2286,-0.2286 -0.381,-0.4191 l -3.8481,-5.2197 -3.8862,5.2197 q -0.1524,0.1524 -0.381,0.381 -0.2286,0.2286 -0.6858,0.2286 z"
         style="font-weight:bold;font-family:'Rubik Light';-inkscape-font-specification:'Rubik Light,  Bold'"
         id="path2595" />
      <path
         d="m 90.7288,137.62659 q -0.4191,0 -0.6858,-0.2667 -0.2667,-0.3048 -0.2667,-0.6858 v -17.907 q 0,-0.4191 0.2667,-0.6858 0.2667,-0.2667 0.6858,-0.2667 h 4.4958 q 0.4191,0 0.6858,0.2667 0.2667,0.2667 0.2667,0.6858 v 17.907 q 0,0.381 -0.2667,0.6858 -0.2667,0.2667 -0.6858,0.2667 z m -0.0381,-22.6695 q -0.4191,0 -0.6858,-0.2667 -0.2667,-0.2667 -0.2667,-0.6858 v -3.429 q 0,-0.381 0.2667,-0.6477 0.2667,-0.3048 0.6858,-0.3048 h 4.572 q 0.381,0 0.6477,0.3048 0.3048,0.2667 0.3048,0.6477 v 3.429 q 0,0.4191 -0.3048,0.6858 -0.2667,0.2667 -0.6477,0.2667 z"
         style="font-weight:bold;font-family:'Rubik Light';-inkscape-font-specification:'Rubik Light,  Bold'"
         id="path2597" />
      <path
         d="m 110.80747,137.62659 q -2.4384,0 -4.2291,-0.762 -1.7526,-0.8001 -2.7051,-2.4384 -0.9525,-1.6764 -0.9525,-4.3053 v -7.3152 h -2.971798 q -0.4191,0 -0.723899,-0.2667 -0.2667,-0.2667 -0.2667,-0.6858 v -3.0861 q 0,-0.4191 0.2667,-0.6858 0.304799,-0.2667 0.723899,-0.2667 h 2.971798 v -6.2865 q 0,-0.4191 0.2667,-0.6858 0.3048,-0.2667 0.6858,-0.2667 h 4.4196 q 0.4191,0 0.6858,0.2667 0.2667,0.2667 0.2667,0.6858 v 6.2865 h 4.7625 q 0.4191,0 0.6858,0.2667 0.3048,0.2667 0.3048,0.6858 v 3.0861 q 0,0.4191 -0.3048,0.6858 -0.2667,0.2667 -0.6858,0.2667 h -4.7625 v 6.7818 q 0,1.2954 0.4953,2.0574 0.4953,0.762 1.6764,0.762 h 2.9337 q 0.4191,0 0.6858,0.2667 0.2667,0.2667 0.2667,0.6858 v 3.3147 q 0,0.381 -0.2667,0.6858 -0.2667,0.2667 -0.6858,0.2667 z"
         style="font-weight:bold;font-family:'Rubik Light';-inkscape-font-specification:'Rubik Light,  Bold'"
         id="path2599" />
    </g>
    <g
       aria-label="Salir"
       id="text2552"
       style="font-size:38.1px;line-height:1.25;word-spacing:0px;display:inline;fill:#ffffff;stroke-width:0.264583">
      <path
         d="m 48.247322,138.00759 q -3.81,0 -6.324599,-1.0668 -2.5146,-1.1049 -3.81,-2.8575 -1.2954,-1.7526 -1.3716,-3.7338 0,-0.3048 0.2286,-0.5334 0.2667,-0.2667 0.6096,-0.2667 h 4.8006 q 0.5334,0 0.8001,0.1905 0.3048,0.1905 0.5334,0.4953 0.3048,0.5715 0.838199,1.1049 0.5715,0.5334 1.4859,0.8763 0.9144,0.3048 2.2098,0.3048 2.2098,0 3.3147,-0.6858 1.143,-0.6858 1.143,-1.8669 0,-0.8763 -0.6096,-1.4097 -0.6096,-0.5334 -1.9812,-0.9525 -1.3335,-0.4572 -3.5814,-0.9144 -2.895599,-0.6096 -4.952999,-1.5621 -2.0193,-0.9906 -3.0861,-2.5527 -1.0668,-1.6002 -1.0668,-3.9624 0,-2.3241 1.2954,-4.1529 1.3335,-1.8288 3.6957,-2.8575 2.362199,-1.0287 5.600699,-1.0287 2.6289,0 4.6101,0.6858 2.0193,0.6858 3.3909,1.8288 1.3716,1.143 2.0574,2.4384 0.7239,1.2573 0.762,2.4765 0,0.3048 -0.2286,0.5715 -0.1905,0.2286 -0.5715,0.2286 h -5.0292 q -0.4191,0 -0.7239,-0.1524 -0.3048,-0.1524 -0.5334,-0.4953 -0.2286,-0.8382 -1.2192,-1.4478 -0.9525,-0.6477 -2.5146,-0.6477 -1.6764,0 -2.6289,0.6096 -0.9144,0.5715 -0.9144,1.7907 0,0.762 0.4953,1.3335 0.5334,0.5715 1.7145,0.9906 1.2192,0.4191 3.3147,0.8763 3.4671,0.6477 5.6007,1.6383 2.1336,0.9525 3.1242,2.5146 1.0287,1.524 1.0287,3.8481 0,2.5908 -1.4859,4.4577 -1.4859,1.8669 -4.0767,2.8956 -2.5527,0.9906 -5.9436,0.9906 z"
         style="font-weight:bold;font-family:'Rubik Light';-inkscape-font-specification:'Rubik Light,  Bold'"
         id="path2554" />
      <path
         d="m 69.088026,138.00759 q -2.0574,0 -3.6957,-0.762 -1.6002,-0.8001 -2.5527,-2.1336 -0.9525,-1.3335 -0.9525,-3.0099 0,-2.7051 2.2098,-4.2672 2.2098,-1.6002 5.8674,-2.1717 l 4.7625,-0.7239 v -0.5334 q 0,-1.3716 -0.5715,-2.0955 -0.5715,-0.7239 -2.0955,-0.7239 -1.0668,0 -1.7526,0.4191 -0.6477,0.4191 -1.0287,1.143 -0.3429,0.4953 -0.9525,0.4953 h -4.2672 q -0.4191,0 -0.6477,-0.2286 -0.2286,-0.2667 -0.1905,-0.6096 0,-0.6858 0.4953,-1.5621 0.5334,-0.9144 1.6002,-1.7907 1.0668,-0.8763 2.7432,-1.4478 1.6764,-0.5715 4.0767,-0.5715 2.4384,0 4.191,0.5715 1.7526,0.5715 2.8575,1.6002 1.1049,1.0287 1.6002,2.4384 0.5334,1.3716 0.5334,3.048 v 11.5824 q 0,0.381 -0.3048,0.6858 -0.2667,0.2667 -0.6477,0.2667 h -4.4196 q -0.4191,0 -0.6858,-0.2667 -0.2667,-0.3048 -0.2667,-0.6858 v -1.3335 q -0.4953,0.7239 -1.3335,1.3335 -0.8382,0.6096 -1.9812,0.9525 -1.1049,0.381 -2.5908,0.381 z m 1.7907,-4.3434 q 1.1049,0 1.9812,-0.4572 0.9144,-0.4953 1.4097,-1.4859 0.5334,-1.0287 0.5334,-2.5527 v -0.5334 l -3.2385,0.5715 q -1.7907,0.3048 -2.6289,0.9525 -0.8001,0.6096 -0.8001,1.4478 0,0.6477 0.381,1.1049 0.381,0.4572 0.9906,0.7239 0.6477,0.2286 1.3716,0.2286 z"
         style="font-weight:bold;font-family:'Rubik Light';-inkscape-font-specification:'Rubik Light,  Bold'"
         id="path2556" />
      <path
         d="m 86.575934,137.62659 q -0.4191,0 -0.6858,-0.2667 -0.2667,-0.3048 -0.2667,-0.6858 v -25.146 q 0,-0.4191 0.2667,-0.6858 0.2667,-0.2667 0.6858,-0.2667 h 4.4958 q 0.4191,0 0.6858,0.2667 0.2667,0.2667 0.2667,0.6858 v 25.146 q 0,0.381 -0.2667,0.6858 -0.2667,0.2667 -0.6858,0.2667 z"
         style="font-weight:bold;font-family:'Rubik Light';-inkscape-font-specification:'Rubik Light,  Bold'"
         id="path2558" />
      <path
         d="m 97.472506,137.62659 q -0.4191,0 -0.6858,-0.2667 -0.2667,-0.3048 -0.2667,-0.6858 v -17.907 q 0,-0.4191 0.2667,-0.6858 0.2667,-0.2667 0.6858,-0.2667 h 4.495804 q 0.4191,0 0.6858,0.2667 0.2667,0.2667 0.2667,0.6858 v 17.907 q 0,0.381 -0.2667,0.6858 -0.2667,0.2667 -0.6858,0.2667 z m -0.0381,-22.6695 q -0.4191,0 -0.6858,-0.2667 -0.2667,-0.2667 -0.2667,-0.6858 v -3.429 q 0,-0.381 0.2667,-0.6477 0.2667,-0.3048 0.6858,-0.3048 h 4.572004 q 0.381,0 0.6477,0.3048 0.3048,0.2667 0.3048,0.6477 v 3.429 q 0,0.4191 -0.3048,0.6858 -0.2667,0.2667 -0.6477,0.2667 z"
         style="font-weight:bold;font-family:'Rubik Light';-inkscape-font-specification:'Rubik Light,  Bold'"
         id="path2560" />
      <path
         d="m 108.36908,137.62659 q -0.4191,0 -0.6858,-0.2667 -0.2667,-0.3048 -0.2667,-0.6858 v -17.907 q 0,-0.381 0.2667,-0.6477 0.2667,-0.3048 0.6858,-0.3048 h 4.3815 q 0.4191,0 0.6858,0.3048 0.3048,0.2667 0.3048,0.6477 v 1.524 q 0.9906,-1.1811 2.4003,-1.8288 1.4478,-0.6477 3.2385,-0.6477 h 1.6764 q 0.4191,0 0.6858,0.2667 0.2667,0.2667 0.2667,0.6858 v 3.9243 q 0,0.381 -0.2667,0.6858 -0.2667,0.2667 -0.6858,0.2667 h -3.6957 q -1.5621,0 -2.4384,0.8763 -0.8382,0.8382 -0.8382,2.4003 v 9.7536 q 0,0.381 -0.3048,0.6858 -0.2667,0.2667 -0.6858,0.2667 z"
         style="font-weight:bold;font-family:'Rubik Light';-inkscape-font-specification:'Rubik Light,  Bold'"
         id="path2562" />
    </g>
  </g>
</svg>
