<?xml version="1.0" encoding="UTF-8" standalone="no"?>
<!-- Created with Inkscape (http://www.inkscape.org/) -->

<svg
   width="600"
   height="600"
   viewBox="0 0 158.75 158.75"
   version="1.1"
   id="svg5"
   inkscape:version="1.2 (dc2aedaf03, 2022-05-15)"
   sodipodi:docname="more.en.svg"
   xmlns:inkscape="http://www.inkscape.org/namespaces/inkscape"
   xmlns:sodipodi="http://sodipodi.sourceforge.net/DTD/sodipodi-0.dtd"
   xmlns="http://www.w3.org/2000/svg"
   xmlns:svg="http://www.w3.org/2000/svg">
  <sodipodi:namedview
     id="namedview7"
     pagecolor="#ffffff"
     bordercolor="#111111"
     borderopacity="1"
     inkscape:showpageshadow="0"
     inkscape:pageopacity="0"
     inkscape:pagecheckerboard="1"
     inkscape:deskcolor="#d1d1d1"
     inkscape:document-units="px"
     showgrid="false"
     inkscape:lockguides="true"
     inkscape:zoom="0.42048261"
     inkscape:cx="-294.89924"
     inkscape:cy="275.87348"
     inkscape:window-width="1366"
     inkscape:window-height="697"
     inkscape:window-x="-8"
     inkscape:window-y="-8"
     inkscape:window-maximized="1"
     inkscape:current-layer="g369" />
  <defs
     id="defs2" />
  <g
     inkscape:label="Capa 1"
     inkscape:groupmode="layer"
     id="layer1">
    <g
       id="g2493"
       transform="matrix(5.4687503,0,0,5.4687503,33.072917,33.072917)">
      <g
         id="g369"
         transform="translate(0,6.2119417)">
        <g
           id="g306"
           transform="translate(3.628571,-6.0476188)">
          <rect
             style="fill:#ffffff;stroke:none;stroke-width:1.5119;stroke-linecap:round;stroke-linejoin:round"
             id="rect851"
             width="2.1166666"
             height="9.6761904"
             x="3.7797618"
             y="0"
             rx="0.48380953"
             ry="0.4838095" />
          <rect
             style="fill:#ffffff;stroke:none;stroke-width:1.5119;stroke-linecap:round;stroke-linejoin:round"
             id="rect851-3"
             width="9.6761904"
             height="2.1166666"
             x="0"
             y="3.7797618"
             rx="0.48380953"
             ry="0.4838095" />
        </g>
        <g
           aria-label="Más"
           id="text362"
           style="font-size:6.96686px;line-height:1.25;word-spacing:0px;display:none;fill:#ffffff;stroke-width:0.0483809">
          <path
             d="m 2.123343,12.906442 q -0.069669,0 -0.1254034,-0.04877 -0.048768,-0.05573 -0.048768,-0.125404 V 8.2038113 q 0,-0.076635 0.048768,-0.1254035 0.055735,-0.048768 0.1254034,-0.048768 h 0.7524209 q 0.1184366,0 0.1741715,0.062702 0.055735,0.055735 0.069669,0.090569 L 4.3457713,10.377472 5.5719386,8.1829107 q 0.020901,-0.034834 0.069669,-0.090569 0.055735,-0.062702 0.1741715,-0.062702 h 0.745454 q 0.076636,0 0.1254035,0.048768 0.055735,0.048768 0.055735,0.1254035 V 12.73227 q 0,0.06967 -0.055735,0.125404 -0.048768,0.04877 -0.1254035,0.04877 H 5.7321764 q -0.076635,0 -0.1323703,-0.04877 -0.048768,-0.05573 -0.048768,-0.125404 v -2.612572 l -0.7802883,1.456073 q -0.034834,0.0627 -0.090569,0.11147 -0.055735,0.04877 -0.1532709,0.04877 H 4.164633 q -0.097536,0 -0.153271,-0.04877 -0.055735,-0.04877 -0.090569,-0.11147 L 3.1335377,10.119698 v 2.612572 q 0,0.06967 -0.048768,0.125404 -0.048768,0.04877 -0.1254035,0.04877 z"
             style="font-weight:bold;font-family:'Rubik Light';-inkscape-font-specification:'Rubik Light,  Bold'"
             id="path467" />
          <path
             d="m 8.7279199,12.97611 q -0.3762104,0 -0.6757854,-0.139337 -0.2926081,-0.146304 -0.4667796,-0.390144 -0.1741715,-0.24384 -0.1741715,-0.550382 0,-0.494647 0.4040779,-0.780288 0.4040779,-0.292608 1.0728964,-0.397111 l 0.8708575,-0.132371 v -0.09754 q 0,-0.250807 -0.1045029,-0.383177 Q 9.5500094,9.9733937 9.271335,9.9733937 q -0.1950721,0 -0.3204755,0.076635 -0.1184367,0.07664 -0.1881053,0.209006 -0.062702,0.09057 -0.1741715,0.09057 H 7.8082944 q -0.076635,0 -0.1184366,-0.0418 -0.041801,-0.04877 -0.034834,-0.11147 0,-0.125403 0.090569,-0.2856413 Q 7.8431287,9.7434873 8.0382008,9.5832496 8.2332729,9.4230118 8.5398147,9.3185089 8.8463566,9.214006 9.2852687,9.214006 q 0.4458791,0 0.7663543,0.1045029 0.320476,0.1045029 0.522515,0.2926081 0.202039,0.1881052 0.292608,0.445879 0.09754,0.250807 0.09754,0.557349 v 2.117925 q 0,0.06967 -0.05574,0.125404 -0.04877,0.04877 -0.118437,0.04877 H 9.9819547 q -0.076635,0 -0.1254035,-0.04877 -0.048768,-0.05573 -0.048768,-0.125404 V 12.48843 Q 9.717214,12.6208 9.5639431,12.73227 9.4106722,12.84374 9.2016664,12.906442 8.9996275,12.97611 8.7279199,12.97611 Z m 0.3274425,-0.794222 q 0.2020389,0 0.3622767,-0.0836 0.1672046,-0.09057 0.2577738,-0.271708 0.097536,-0.188105 0.097536,-0.466779 v -0.09754 l -0.5921831,0.104503 q -0.3274424,0.05574 -0.4807133,0.174171 -0.1463041,0.11147 -0.1463041,0.264741 0,0.118436 0.069669,0.202039 0.069669,0.0836 0.1811384,0.13237 0.1184366,0.0418 0.250807,0.0418 z M 8.8672571,8.7611601 q -0.1114697,0 -0.1114697,-0.1114698 0,-0.055735 0.034834,-0.090569 L 9.4037053,7.8136672 Q 9.4733739,7.7300648 9.522142,7.7091643 9.57091,7.6812968 9.6614792,7.6812968 h 0.9196258 q 0.13237,0 0.13237,0.1393372 0,0.048768 -0.03483,0.083602 L 9.7520483,8.6636241 q -0.055735,0.048768 -0.1114697,0.076635 -0.055735,0.020901 -0.1532709,0.020901 z"
             style="font-weight:bold;font-family:'Rubik Light';-inkscape-font-specification:'Rubik Light,  Bold'"
             id="path469" />
          <path
             d="m 13.242446,12.97611 q -0.452846,0 -0.773322,-0.09754 -0.313508,-0.104503 -0.515547,-0.250807 -0.195072,-0.146304 -0.292608,-0.299575 -0.09754,-0.160237 -0.104503,-0.278674 -0.007,-0.07664 0.04877,-0.125404 0.05574,-0.04877 0.118436,-0.04877 h 0.794222 q 0.0209,0 0.03484,0.007 0.0209,0.007 0.0418,0.02787 0.09057,0.04877 0.181138,0.125403 0.09057,0.06967 0.209006,0.125404 0.118436,0.05574 0.285641,0.05574 0.195072,0 0.327443,-0.07664 0.13237,-0.0836 0.13237,-0.229906 0,-0.11147 -0.0627,-0.181139 -0.0627,-0.07663 -0.257774,-0.146304 -0.188105,-0.06967 -0.571282,-0.139337 -0.362277,-0.0836 -0.633984,-0.215973 -0.271708,-0.139337 -0.418012,-0.355309 -0.146304,-0.22294 -0.146304,-0.536449 0,-0.278674 0.181138,-0.5364478 0.181139,-0.2577738 0.529482,-0.4180116 0.348343,-0.1672046 0.86389,-0.1672046 0.397111,0 0.696686,0.097536 0.299575,0.090569 0.501614,0.2368733 0.202039,0.146304 0.306542,0.2995749 0.104503,0.1532708 0.11147,0.2786748 0.007,0.06967 -0.0418,0.125403 -0.04877,0.04877 -0.11147,0.04877 h -0.724554 q -0.02787,0 -0.05573,-0.007 -0.02787,-0.01393 -0.04877,-0.02787 -0.0836,-0.0418 -0.167204,-0.11147 -0.0836,-0.06967 -0.195072,-0.125403 -0.11147,-0.055735 -0.278675,-0.055735 -0.188105,0 -0.292608,0.083602 -0.104503,0.0836 -0.104503,0.215973 0,0.09057 0.05574,0.167204 0.0627,0.07664 0.24384,0.139338 0.188106,0.0627 0.57825,0.139337 0.480713,0.07664 0.766354,0.250807 0.285642,0.167204 0.404078,0.397111 0.125404,0.222939 0.125404,0.473746 0,0.334409 -0.202039,0.592183 -0.202039,0.257774 -0.592183,0.404078 -0.383178,0.139337 -0.947493,0.139337 z"
             style="font-weight:bold;font-family:'Rubik Light';-inkscape-font-specification:'Rubik Light,  Bold'"
             id="path471" />
        </g>
        <g
           aria-label="More"
           id="text465"
           style="font-size:6.96686px;line-height:1.25;word-spacing:0px;display:inline;fill:#ffffff;stroke-width:0.0483809">
          <path
             d="m 0.35898257,12.906442 q -0.0696686,0 -0.12540348,-0.04877 -0.048768,-0.05573 -0.048768,-0.125404 V 8.2038113 q 0,-0.076635 0.048768,-0.1254035 0.0557349,-0.048768 0.12540348,-0.048768 H 1.1114034 q 0.1184366,0 0.1741715,0.062702 0.055735,0.055735 0.069669,0.090569 L 2.5814109,10.377472 3.8075782,8.1829107 q 0.020901,-0.034834 0.069669,-0.090569 0.055735,-0.062702 0.1741715,-0.062702 h 0.745454 q 0.076635,0 0.1254035,0.048768 0.055735,0.048768 0.055735,0.1254035 V 12.73227 q 0,0.06967 -0.055735,0.125404 -0.048768,0.04877 -0.1254035,0.04877 H 3.967816 q -0.076636,0 -0.1323704,-0.04877 -0.048768,-0.05573 -0.048768,-0.125404 v -2.612572 l -0.7802883,1.456073 q -0.034834,0.0627 -0.090569,0.11147 -0.055735,0.04877 -0.1532709,0.04877 H 2.4002725 q -0.097536,0 -0.1532709,-0.04877 -0.055735,-0.04877 -0.090569,-0.11147 L 1.3691772,10.119698 v 2.612572 q 0,0.06967 -0.048768,0.125404 -0.048768,0.04877 -0.1254035,0.04877 z"
             style="font-weight:bold;font-family:'Rubik Light';-inkscape-font-specification:'Rubik Light,  Bold'"
             id="path489" />
          <path
             d="m 7.5905769,12.97611 q -0.5852163,0 -0.9892941,-0.188105 -0.397111,-0.188105 -0.6130837,-0.536448 -0.2090058,-0.35531 -0.2368732,-0.84299 -0.00697,-0.139337 -0.00697,-0.313509 0,-0.181138 0.00697,-0.313509 Q 5.7791933,10.286902 6.0021328,9.9385594 6.2250723,9.5902164 6.6221834,9.4021112 7.0262612,9.214006 7.5905769,9.214006 q 0.5712825,0 0.9683935,0.1881052 0.4040779,0.1881052 0.6270174,0.5364482 0.2229395,0.3483426 0.2508069,0.8429896 0.00697,0.132371 0.00697,0.313509 0,0.174172 -0.00697,0.313509 -0.027867,0.48768 -0.2438401,0.84299 Q 8.9839488,12.5999 8.579871,12.788005 8.18276,12.97611 7.5905769,12.97611 Z m 0,-0.849957 q 0.3135087,0 0.4528459,-0.188105 0.146304,-0.188105 0.1672046,-0.564315 0.00697,-0.104503 0.00697,-0.278675 0,-0.174171 -0.00697,-0.278674 -0.020901,-0.369244 -0.1672046,-0.557349 -0.1393372,-0.195072 -0.4528459,-0.195072 -0.299575,0 -0.4528459,0.195072 -0.1463041,0.188105 -0.1602378,0.557349 -0.00697,0.104503 -0.00697,0.278674 0,0.174172 0.00697,0.278675 0.013934,0.37621 0.1602378,0.564315 0.1532709,0.188105 0.4528459,0.188105 z"
             style="font-weight:bold;font-family:'Rubik Light';-inkscape-font-specification:'Rubik Light,  Bold'"
             id="path491" />
          <path
             d="m 10.307652,12.906442 q -0.07664,0 -0.125404,-0.04877 -0.04877,-0.05573 -0.04877,-0.125404 V 9.4578461 q 0,-0.069669 0.04877,-0.1184366 0.04877,-0.055735 0.125404,-0.055735 h 0.801189 q 0.07663,0 0.125403,0.055735 0.05574,0.048768 0.05574,0.1184366 v 0.2786744 q 0.181138,-0.2159727 0.438912,-0.3344093 0.264741,-0.1184366 0.592183,-0.1184366 h 0.306542 q 0.07664,0 0.125404,0.048768 0.04877,0.048768 0.04877,0.1254035 v 0.7175869 q 0,0.06967 -0.04877,0.125403 -0.04877,0.04877 -0.125404,0.04877 h -0.675785 q -0.285641,0 -0.445879,0.160238 -0.153271,0.153271 -0.153271,0.438912 v 1.783516 q 0,0.06967 -0.05574,0.125404 -0.04877,0.04877 -0.125403,0.04877 z"
             style="font-weight:bold;font-family:'Rubik Light';-inkscape-font-specification:'Rubik Light,  Bold'"
             id="path493" />
          <path
             d="m 14.937138,12.97611 q -0.82209,0 -1.30977,-0.445879 -0.48768,-0.445879 -0.508581,-1.323703 0,-0.04877 0,-0.125404 0,-0.07664 0,-0.118436 0.0209,-0.550382 0.24384,-0.940526 0.229907,-0.3971113 0.627018,-0.5991502 0.404078,-0.2090058 0.940526,-0.2090058 0.613083,0 1.010194,0.2438401 0.404078,0.2438401 0.606117,0.6618519 0.202039,0.418011 0.202039,0.95446 v 0.167204 q 0,0.07664 -0.04877,0.125404 -0.04877,0.04877 -0.125403,0.04877 h -2.229395 q 0,0.007 0,0.0209 0,0.01393 0,0.02787 0.007,0.202039 0.06967,0.369243 0.06967,0.167205 0.195072,0.264741 0.132371,0.09754 0.320476,0.09754 0.139337,0 0.229906,-0.0418 0.09754,-0.04877 0.160238,-0.104503 0.0627,-0.0627 0.09754,-0.104503 0.0627,-0.07663 0.09754,-0.09057 0.0418,-0.0209 0.125403,-0.0209 h 0.863891 q 0.06967,0 0.11147,0.0418 0.04877,0.0418 0.0418,0.11147 -0.007,0.118437 -0.118437,0.285641 -0.111469,0.167205 -0.327442,0.33441 -0.209006,0.160237 -0.529481,0.26474 -0.320476,0.104503 -0.745454,0.104503 z m -0.592183,-2.250295 h 1.177399 v -0.01393 q 0,-0.229907 -0.06967,-0.390144 -0.0627,-0.167205 -0.202039,-0.257774 -0.13237,-0.090569 -0.320475,-0.090569 -0.181139,0 -0.313509,0.090569 -0.13237,0.09057 -0.202039,0.257774 -0.06967,0.160237 -0.06967,0.390144 z"
             style="font-weight:bold;font-family:'Rubik Light';-inkscape-font-specification:'Rubik Light,  Bold'"
             id="path495" />
        </g>
      </g>
    </g>
  </g>
</svg>
